<?xml version="1.0" standalone="no"?>
<!DOCTYPE svg PUBLIC "-//W3C//DTD SVG 20010904//EN"
 "http://www.w3.org/TR/2001/REC-SVG-20010904/DTD/svg10.dtd">
<svg version="1.0" xmlns="http://www.w3.org/2000/svg"
 width="1600.000000pt" height="761.000000pt" viewBox="0 0 1600.000000 761.000000"
 preserveAspectRatio="xMidYMid meet">

<g transform="translate(0.000000,761.000000) scale(0.100000,-0.100000)"
fill="#000000" stroke="none">
<path d="M0 7289 l0 -321 7333 5 c4032 3 7343 7 7357 10 14 3 34 6 45 7 l20 1
-20 9 c-19 8 -18 9 5 11 21 1 19 3 -10 9 l-35 7 40 3 c35 2 37 3 13 9 -30 7
-26 25 7 34 17 4 16 5 -5 7 l-25 2 25 8 c23 7 23 8 3 9 -21 1 -22 6 -25 104
-2 81 0 105 12 115 13 11 13 13 0 25 -12 10 -14 36 -12 140 l3 127 -7365 0
-7366 0 0 -321z m1157 160 c3 -11 12 -18 21 -17 26 5 21 -31 -9 -63 -16 -17
-29 -39 -29 -48 0 -34 -39 -80 -78 -92 -32 -9 -44 -8 -70 5 -51 27 -63 54 -60
137 3 71 4 74 28 74 24 0 25 -3 28 -70 2 -51 7 -73 19 -82 42 -32 73 -1 73 72
0 30 5 57 11 60 6 4 8 13 5 20 -6 18 0 23 31 23 17 0 27 -7 30 -19z m-427 -29
c0 -25 -4 -30 -25 -30 -24 0 -24 -2 -27 -82 -3 -81 -4 -83 -28 -83 -24 0 -25
2 -28 83 -3 80 -3 82 -27 82 -21 0 -25 5 -25 30 l0 30 80 0 80 0 0 -30z m176
9 c13 -10 12 -14 -2 -31 -13 -13 -25 -17 -49 -12 -23 4 -37 1 -48 -11 -39 -39
-4 -102 50 -91 22 5 34 2 48 -14 18 -19 17 -20 -20 -35 -99 -42 -190 59 -139
156 27 52 117 74 160 38z m-526 1 c0 -5 -20 -10 -45 -10 l-45 0 0 -90 c0 -73
-3 -90 -15 -90 -12 0 -15 17 -15 90 l0 90 -45 0 c-25 0 -45 5 -45 10 0 6 42
10 105 10 63 0 105 -4 105 -10z m-249 -42 c1 -7 0 -25 -1 -41 -1 -15 1 -41 5
-57 6 -25 11 -30 36 -30 35 0 49 27 49 96 0 24 5 44 10 44 6 0 10 -33 10 -78
l0 -78 -55 -2 c-45 -2 -56 1 -65 17 -13 25 -13 141 0 141 6 0 10 -6 11 -12z
m302 -10 c17 -28 17 -130 0 -135 -8 -3 -13 16 -15 64 -3 67 -3 68 -33 71 -39
5 -55 -19 -55 -85 0 -29 -4 -53 -10 -53 -6 0 -10 33 -10 78 l0 78 55 2 c47 2
56 -1 68 -20z m-239 -167 c3 -5 -1 -11 -9 -14 -9 -4 -12 -1 -8 9 6 16 10 17
17 5z m196 -9 c0 -8 -15 -12 -50 -11 -51 2 -68 15 -27 21 44 7 77 3 77 -10z
m-114 1 c-4 -5 -21 -8 -37 -8 -16 0 -29 3 -29 8 0 4 17 7 37 7 20 0 33 -3 29
-7z m376 -45 c-7 -7 -12 -8 -12 -2 0 14 12 26 19 19 2 -3 -1 -11 -7 -17z m54
-5 c-10 -10 -19 5 -10 18 6 11 8 11 12 0 2 -7 1 -15 -2 -18z m-536 2 c0 -2 -7
-5 -15 -9 -9 -3 -15 0 -15 9 0 9 6 12 15 9 8 -4 15 -7 15 -9z m158 6 c6 -1 12
-5 12 -10 0 -5 -8 -8 -17 -6 -10 2 -24 4 -30 4 -7 1 -13 5 -13 10 0 5 8 8 18
6 9 -2 23 -4 30 -4z m-108 -5 c0 -3 -4 -8 -10 -11 -5 -3 -10 -1 -10 4 0 6 5
11 10 11 6 0 10 -2 10 -4z m40 -6 c0 -5 -4 -10 -10 -10 -5 0 -10 5 -10 10 0 6
5 10 10 10 6 0 10 -4 10 -10z m180 0 c0 -7 -14 -8 -37 -4 -52 9 -54 14 -5 14
23 0 42 -5 42 -10z"/>
<path d="M8740 4653 c-22 -8 -40 -34 -40 -59 0 -14 -8 -24 -22 -29 l-23 -8 23
-4 c20 -4 22 -10 22 -69 0 -41 4 -63 10 -59 6 3 10 33 10 66 0 56 1 59 25 59
14 0 25 5 25 10 0 6 -12 10 -26 10 -21 0 -25 4 -22 23 2 12 13 26 26 32 32 14
26 38 -8 28z"/>
<path d="M7577 4549 c-6 -100 -4 -124 12 -114 12 7 14 215 3 215 -5 0 -12 -46
-15 -101z"/>
<path d="M8890 4540 c0 -67 4 -110 10 -110 6 0 10 43 10 110 0 67 -4 110 -10
110 -6 0 -10 -43 -10 -110z"/>
<path d="M6973 4625 c-58 -41 -80 -128 -42 -166 24 -24 72 -21 98 6 22 22 6
29 -23 10 -31 -21 -64 -12 -72 19 -8 32 19 91 51 112 26 17 28 17 40 1 17 -24
25 -21 25 8 0 21 -5 25 -28 25 -15 0 -37 -7 -49 -15z"/>
<path d="M8266 4632 c-12 -19 -18 -179 -7 -186 7 -5 11 5 11 29 0 36 3 39 51
49 49 11 56 81 10 105 -23 13 -58 14 -65 3z m62 -28 c12 -8 22 -19 22 -24 0
-15 -31 -40 -51 -40 -15 0 -19 7 -19 33 0 50 11 57 48 31z"/>
<path d="M8820 4620 c0 -5 5 -10 10 -10 6 0 10 5 10 10 0 6 -4 10 -10 10 -5 0
-10 -4 -10 -10z"/>
<path d="M7820 4595 c0 -18 -5 -25 -20 -25 -11 0 -20 -4 -20 -10 0 -5 9 -10
20 -10 18 0 20 -7 20 -55 0 -30 5 -55 10 -55 6 0 10 25 10 55 0 48 2 55 20 55
11 0 20 5 20 10 0 6 -9 10 -20 10 -15 0 -20 7 -20 25 0 14 -4 25 -10 25 -5 0
-10 -11 -10 -25z"/>
<path d="M7426 4569 c-10 -24 -2 -189 9 -192 6 -1 11 10 13 26 2 18 9 27 20
27 38 0 62 29 62 74 0 52 -18 71 -59 63 -19 -4 -31 -2 -34 6 -3 8 -7 7 -11 -4z
m82 -61 c2 -28 -1 -39 -15 -47 -25 -13 -39 -3 -45 32 -6 32 15 60 41 55 11 -2
17 -16 19 -40z"/>
<path d="M7090 4550 c-37 -37 -15 -110 33 -110 27 0 57 37 57 69 0 56 -52 79
-90 41z m66 -27 c8 -31 -6 -58 -31 -58 -28 0 -41 29 -27 59 16 35 49 35 58 -1z"/>
<path d="M7220 4505 c0 -37 4 -65 10 -65 6 0 10 17 10 38 0 35 22 72 43 72 3
0 7 -25 9 -55 2 -31 7 -54 13 -53 6 2 9 21 7 44 -2 27 2 45 12 53 23 19 33 6
41 -49 8 -58 25 -67 24 -12 -2 77 -9 87 -64 88 -31 1 -57 -5 -67 -14 -16 -14
-18 -13 -18 1 0 10 -4 17 -10 17 -6 0 -10 -28 -10 -65z"/>
<path d="M7656 4551 c-37 -41 -15 -111 35 -111 28 0 69 22 69 37 0 11 -5 10
-25 -3 -28 -18 -75 -12 -75 10 0 7 18 18 40 25 46 13 56 26 40 46 -17 21 -64
19 -84 -4z m64 -9 c0 -8 -43 -32 -55 -32 -11 0 -4 29 8 33 20 9 47 8 47 -1z"/>
<path d="M7926 4549 c-32 -25 -35 -68 -5 -94 17 -16 25 -17 49 -8 20 7 32 7
39 0 7 -7 9 6 5 44 -3 30 -7 60 -10 67 -5 19 -48 14 -78 -9z m62 -41 c-2 -35
-7 -44 -25 -46 -33 -5 -49 32 -28 64 8 13 25 24 36 24 18 0 20 -5 17 -42z"/>
<path d="M8050 4505 c0 -37 4 -65 10 -65 6 0 10 17 10 38 0 25 7 45 18 55 23
21 42 22 42 2 0 -8 5 -15 10 -15 16 0 11 40 -6 47 -8 3 -26 1 -40 -5 -15 -7
-24 -8 -24 -2 0 6 -4 10 -10 10 -6 0 -10 -28 -10 -65z"/>
<path d="M8409 4549 c-48 -48 3 -126 68 -103 15 5 29 18 31 28 4 17 3 17 -23
0 -21 -14 -30 -15 -52 -5 -29 13 -25 21 20 37 39 13 58 41 37 54 -25 16 -59
11 -81 -11z m71 -8 c0 -11 -59 -36 -67 -28 -3 4 0 13 7 22 13 16 60 21 60 6z"/>
<path d="M8547 4563 c-11 -10 -8 -111 3 -118 6 -4 10 10 10 34 0 30 6 44 22
55 28 20 38 20 38 1 0 -8 5 -15 10 -15 15 0 12 40 -4 46 -8 3 -24 0 -36 -6
-17 -9 -24 -9 -29 -1 -4 6 -10 8 -14 4z"/>
<path d="M8814 4556 c-9 -22 0 -111 11 -111 6 0 11 28 13 63 2 39 -1 62 -8 62
-6 0 -13 -6 -16 -14z"/>
<path d="M5712 4090 c-28 -27 -35 -67 -30 -195 3 -103 4 -108 31 -131 l28 -24
2175 0 2175 0 24 25 c24 23 25 29 25 160 0 131 -1 137 -25 160 l-24 25 -2179
0 c-2163 0 -2178 0 -2200 -20z m4386 -6 c21 -14 22 -22 22 -154 0 -153 -4
-164 -63 -175 -18 -3 -997 -4 -2175 -3 l-2144 3 -19 24 c-16 20 -19 40 -19
148 0 118 1 125 25 148 l24 25 2163 0 c1942 0 2166 -2 2186 -16z"/>
<path d="M10026 3936 c12 -31 64 -25 64 6 0 6 -7 5 -15 -2 -12 -10 -19 -10
-27 -2 -16 16 -28 15 -22 -2z"/>
<path d="M5910 3936 c0 -2 7 -7 16 -10 8 -3 12 -2 9 4 -6 10 -25 14 -25 6z"/>
<path d="M5999 3924 c-16 -19 -1 -48 27 -51 15 -2 14 -1 -3 7 -27 11 -30 35
-5 49 9 6 12 11 6 11 -6 0 -17 -7 -25 -16z"/>
<path d="M6076 3931 c-4 -5 3 -7 14 -4 23 6 26 13 6 13 -8 0 -17 -4 -20 -9z"/>
<path d="M6136 3931 c-4 -5 3 -7 14 -4 23 6 26 13 6 13 -8 0 -17 -4 -20 -9z"/>
<path d="M6193 3905 c0 -22 2 -30 4 -17 2 12 2 30 0 40 -3 9 -5 -1 -4 -23z"/>
<path d="M6301 3900 l1 -35 7 30 c4 20 12 30 24 29 9 -1 14 2 12 6 -3 5 -14 8
-25 7 -16 -1 -20 -8 -19 -37z"/>
<path d="M6563 3905 c0 -22 2 -30 4 -17 2 12 2 30 0 40 -3 9 -5 -1 -4 -23z"/>
<path d="M6587 3933 c6 -4 13 -22 16 -38 4 -27 5 -27 3 4 0 21 -7 36 -16 38
-10 3 -11 2 -3 -4z"/>
<path d="M6698 3930 c12 -5 22 -16 22 -25 0 -21 -30 -31 -42 -14 -8 12 -9 11
-5 -1 2 -8 14 -15 26 -14 28 1 27 -14 -1 -26 -14 -5 -17 -9 -7 -9 24 -1 39 20
39 59 0 32 -3 36 -27 37 -26 2 -27 1 -5 -7z"/>
<path d="M6756 3931 c-4 -5 3 -7 14 -4 23 6 26 13 6 13 -8 0 -17 -4 -20 -9z"/>
<path d="M6823 3905 c0 -22 2 -30 4 -17 2 12 2 30 0 40 -3 9 -5 -1 -4 -23z"/>
<path d="M6852 3926 c7 -8 15 -12 17 -11 5 6 -10 25 -20 25 -5 0 -4 -6 3 -14z"/>
<path d="M7017 3934 c-4 -4 -7 -12 -7 -18 0 -6 4 -5 9 3 11 17 41 7 41 -14 0
-21 -30 -31 -41 -14 -6 10 -9 11 -9 1 0 -21 30 -26 48 -8 13 13 14 20 6 34
-12 19 -36 27 -47 16z"/>
<path d="M5891 3909 c-1 -19 26 -45 36 -35 3 3 1 6 -6 6 -6 0 -16 10 -21 23
-6 15 -9 17 -9 6z"/>
<path d="M6078 3878 c5 -5 16 -8 23 -6 8 3 3 7 -10 11 -17 4 -21 3 -13 -5z"/>
<path d="M6138 3878 c5 -5 16 -8 23 -6 8 3 3 7 -10 11 -17 4 -21 3 -13 -5z"/>
<path d="M6388 3878 c5 -5 16 -8 23 -6 8 3 3 7 -10 11 -17 4 -21 3 -13 -5z"/>
<path d="M6505 3880 c-16 -7 -17 -9 -3 -9 9 -1 20 4 23 9 7 11 7 11 -20 0z"/>
<path d="M6758 3878 c5 -5 16 -8 23 -6 8 3 3 7 -10 11 -17 4 -21 3 -13 -5z"/>
<path d="M5838 3873 c7 -3 16 -2 19 1 4 3 -2 6 -13 5 -11 0 -14 -3 -6 -6z"/>
<path d="M6908 3873 c7 -3 16 -2 19 1 4 3 -2 6 -13 5 -11 0 -14 -3 -6 -6z"/>
<path d="M6783 3471 c-23 -11 -52 -35 -67 -57 -22 -33 -26 -50 -26 -110 0 -87
23 -128 90 -161 l44 -23 1091 0 c1036 0 1092 1 1130 19 48 22 69 44 90 94 19
46 19 98 0 144 -21 50 -42 72 -90 94 -38 18 -93 19 -1130 19 -1046 0 -1092 -1
-1132 -19z m941 -117 c9 -3 16 -10 16 -15 0 -6 -8 -5 -19 1 -24 12 -48 4 -56
-20 -8 -24 3 -48 26 -55 26 -8 42 3 36 26 -5 19 7 26 17 10 10 -16 -5 -41 -29
-47 -35 -9 -65 12 -65 46 0 46 33 70 74 54z m326 -53 c0 -46 -1 -48 -27 -46
-39 3 -40 3 -47 21 -10 27 13 57 40 51 16 -3 24 0 24 9 0 8 2 14 5 14 3 0 5
-22 5 -49z m-268 -3 c4 -46 31 -44 39 2 l6 35 2 -37 c1 -29 -3 -38 -19 -43
-28 -9 -50 11 -50 46 0 40 18 37 22 -3z m138 -6 c0 -35 -2 -38 -30 -40 -20 -2
-32 4 -40 18 -16 30 4 60 40 60 28 0 30 -3 30 -38z m42 26 c-7 -7 -12 -22 -12
-35 0 -13 -4 -23 -10 -23 -5 0 -10 16 -10 35 0 29 4 35 22 35 17 0 19 -3 10
-12z m178 -28 c0 -31 -3 -36 -25 -38 -32 -2 -58 33 -44 60 7 12 19 18 39 16
27 -2 30 -6 30 -38z m42 28 c-6 -7 -12 -26 -15 -43 -3 -24 -4 -22 -6 13 -1 33
3 42 15 42 12 0 14 -3 6 -12z"/>
<path d="M7997 3313 c-11 -10 -8 -41 4 -49 16 -9 41 20 33 39 -6 17 -25 22
-37 10z"/>
<path d="M7864 3305 c-8 -21 3 -48 19 -43 19 7 22 58 2 58 -8 0 -18 -7 -21
-15z"/>
<path d="M8083 3304 c-3 -8 1 -22 9 -30 13 -13 16 -13 27 0 7 9 11 23 7 31 -7
20 -35 19 -43 -1z"/>
<path d="M0 205 l0 -205 8000 0 8000 0 0 205 0 205 -8000 0 -8000 0 0 -205z
m7820 145 c0 -5 -4 -10 -10 -10 -5 0 -10 5 -10 10 0 6 5 10 10 10 6 0 10 -4
10 -10z m80 -40 c0 -49 -1 -50 -29 -50 -21 0 -32 6 -36 20 -7 23 10 50 31 50
8 0 14 7 14 15 0 8 5 15 10 15 6 0 10 -22 10 -50z m150 -1 l0 -50 -32 3 c-28
2 -33 7 -33 28 0 16 8 28 23 35 12 5 22 15 22 22 0 7 5 13 10 13 6 0 10 -23
10 -51z m147 36 c-4 -8 -2 -17 3 -20 18 -11 10 -35 -10 -35 -27 0 -25 -18 3
-23 19 -4 18 -4 -6 -6 -32 -1 -47 23 -28 48 6 9 14 24 17 34 4 9 11 17 16 17
6 0 8 -7 5 -15z m183 5 c0 -5 -4 -10 -10 -10 -5 0 -10 5 -10 10 0 6 5 10 10
10 6 0 10 -4 10 -10z m430 0 c0 -5 -4 -10 -10 -10 -5 0 -10 5 -10 10 0 6 5 10
10 10 6 0 10 -4 10 -10z m250 -40 c0 -27 -4 -50 -10 -50 -5 0 -10 23 -10 50 0
28 5 50 10 50 6 0 10 -22 10 -50z m-2088 23 c22 -20 23 -41 1 -65 -32 -36 -83
-17 -83 32 0 48 45 67 82 33z m125 1 c3 -8 -4 -25 -17 -39 l-22 -23 24 -5 c18
-3 16 -5 -9 -6 -38 -1 -41 8 -13 34 25 22 26 42 3 48 -13 4 -12 5 5 6 12 0 25
-6 29 -15z m74 -8 c15 -32 -4 -68 -34 -64 -16 2 -23 11 -25 31 -6 52 39 78 59
33z m67 -3 c2 -14 -5 -26 -20 -34 l-23 -13 25 -7 c23 -6 22 -7 -8 -8 -29 -1
-32 1 -23 18 6 10 17 21 26 25 22 8 18 25 -7 36 -23 10 -23 10 2 7 17 -1 26
-9 28 -24z m74 -8 c4 -37 -9 -71 -19 -47 -2 6 -13 12 -24 12 -24 0 -24 4 3 40
28 39 35 38 40 -5z m74 -22 c2 -13 11 -23 19 -23 16 0 30 42 21 65 -3 8 -1 15
5 15 6 0 9 -18 7 -42 -3 -40 -5 -43 -33 -43 -29 0 -30 2 -32 45 -1 42 0 40 13
-17z m763 49 c-10 -5 -15 -19 -14 -44 1 -21 -2 -38 -7 -38 -4 0 -8 18 -8 39 0
29 -5 41 -17 44 -10 3 0 5 22 5 22 0 33 -2 24 -6z m447 -17 c21 -32 32 -32 37
3 2 16 5 9 6 -20 1 -56 -9 -60 -38 -15 l-21 32 0 -32 c0 -18 -4 -33 -10 -33
-5 0 -10 20 -10 45 0 51 12 57 36 20z m-1078 -32 c2 -19 -1 -33 -7 -33 -6 0
-11 11 -11 24 0 14 -4 28 -10 31 -6 4 -10 -7 -10 -24 0 -17 -4 -31 -10 -31 -5
0 -10 15 -10 34 0 30 3 33 28 32 23 -1 27 -6 30 -33z m29 -15 c-2 -13 -4 -5
-4 17 -1 22 1 32 4 23 2 -10 2 -28 0 -40z m33 26 c0 -22 17 -17 23 8 4 12 9
19 13 15 8 -7 -15 -67 -26 -67 -8 0 -30 45 -30 61 0 6 5 7 10 4 6 -3 10 -13
10 -21z m108 4 c2 -12 -5 -18 -25 -20 l-28 -4 25 -12 25 -12 -25 3 c-28 2 -38
30 -19 53 15 19 43 14 47 -8z m45 15 c-7 -3 -13 -18 -13 -34 0 -16 -4 -29 -10
-29 -5 0 -10 15 -10 33 0 27 4 33 23 34 12 0 16 -1 10 -4z m57 -3 c0 -5 -7 -7
-15 -4 -8 4 -15 1 -15 -5 0 -7 7 -14 15 -17 23 -9 18 -34 -7 -33 -22 0 -22 1
-3 8 19 8 19 8 -3 20 -19 10 -21 15 -11 27 13 16 39 19 39 4z m30 -25 c0 -19
-4 -35 -10 -35 -11 0 -14 53 -3 63 11 12 13 8 13 -28z m148 -3 c3 -31 2 -33
-24 -30 -34 4 -44 27 -15 35 12 3 21 10 21 15 0 6 -7 8 -15 4 -8 -3 -15 -1
-15 5 0 6 10 9 23 7 17 -2 23 -11 25 -36z m307 27 c4 -6 0 -9 -11 -7 -26 4
-32 -38 -7 -46 11 -3 9 -4 -7 -3 -15 1 -26 9 -28 20 -7 34 37 63 53 36z m69
-5 c9 -24 7 -54 -4 -54 -5 0 -10 14 -10 30 0 40 -17 38 -29 -2 l-9 -33 -1 38
c-1 33 2 37 23 37 13 0 27 -7 30 -16z m36 -19 c0 -19 -4 -35 -10 -35 -11 0
-14 53 -3 63 11 12 13 8 13 -28z m64 26 c3 -5 -2 -8 -12 -7 -11 0 -18 -7 -20
-21 -4 -27 19 -31 38 -8 7 8 19 15 26 15 8 0 14 5 14 11 0 6 -7 8 -17 4 -14
-5 -15 -4 -6 6 17 17 43 -6 43 -37 0 -22 -4 -24 -54 -24 -46 0 -56 3 -61 20
-11 33 32 69 49 41z m264 -29 c3 -29 1 -32 -22 -32 -31 0 -36 29 -6 37 11 3
17 10 14 15 -3 5 -13 7 -21 4 -8 -3 -11 -1 -8 5 14 21 40 4 43 -29z m72 29 c0
-5 -8 -8 -17 -7 -27 2 -28 -33 -1 -44 l23 -10 -25 3 c-44 4 -37 66 8 67 6 0
12 -4 12 -9z m30 -32 c0 -16 -4 -29 -10 -29 -5 0 -10 16 -10 36 0 21 4 33 10
29 6 -3 10 -19 10 -36z m71 25 c17 -21 0 -49 -32 -49 -27 0 -37 28 -19 50 16
19 34 19 51 -1z m76 -24 c1 -34 1 -34 -5 -5 -9 38 -26 39 -30 3 -4 -37 -22
-36 -22 1 0 54 54 55 57 1z m71 2 c3 -31 2 -33 -24 -30 -34 4 -43 24 -15 33
12 3 21 11 21 17 0 5 -7 7 -16 4 -9 -3 -12 -2 -9 5 14 22 40 4 43 -29z m62
-22 c0 -5 -5 -10 -11 -10 -5 0 -7 5 -4 10 3 6 8 10 11 10 2 0 4 -4 4 -10z
m-1810 -160 c0 -46 -2 -50 -25 -50 -13 0 -28 8 -34 17 -13 24 4 53 30 53 15 0
19 5 15 15 -3 8 -1 15 4 15 6 0 10 -22 10 -50z m210 0 c0 -27 -4 -50 -10 -50
-5 0 -10 23 -10 50 0 28 5 50 10 50 6 0 10 -22 10 -50z m250 -1 l0 -50 -32 3
c-28 2 -33 7 -33 28 0 16 8 28 23 35 12 5 22 15 22 22 0 7 5 13 10 13 6 0 10
-23 10 -51z m293 19 c17 -2 23 -11 25 -38 2 -19 1 -32 -3 -28 -6 5 -12 27 -14
51 -2 20 -21 3 -30 -25 -8 -30 -9 -28 -9 22 0 30 2 47 5 38 2 -9 14 -18 26
-20z m697 -19 l0 -50 -32 3 c-28 2 -33 7 -33 28 0 16 8 28 23 35 12 5 22 15
22 22 0 7 5 13 10 13 6 0 10 -23 10 -51z m-1597 34 c-8 -2 -13 -22 -13 -44 0
-21 -4 -39 -10 -39 -5 0 -10 18 -10 39 0 22 -5 42 -12 44 -7 3 3 5 22 5 19 0
29 -2 23 -5z m62 -48 c0 -25 -4 -30 -25 -30 -28 0 -39 27 -19 51 20 24 44 13
44 -21z m153 26 c8 -4 12 -19 10 -32 -4 -33 -53 -40 -63 -9 -11 36 22 61 53
41z m68 -3 c5 -8 2 -9 -9 -5 -22 8 -22 -9 -1 -21 22 -12 9 -32 -19 -31 -18 1
-19 2 -4 6 17 4 17 6 2 23 -18 20 -13 40 10 40 8 0 17 -5 21 -12z m144 -3 c20
-24 3 -57 -28 -53 -30 3 -41 30 -22 53 16 19 34 19 50 0z m60 4 c0 -5 -4 -8
-9 -4 -5 3 -12 1 -16 -5 -3 -6 1 -13 9 -16 24 -9 19 -34 -6 -33 -21 0 -22 1
-3 8 18 7 18 8 1 18 -12 7 -17 17 -13 27 7 18 37 22 37 5z m178 -1 c18 -18 14
-26 -15 -30 l-28 -4 25 -12 25 -12 -25 3 c-15 1 -26 9 -28 20 -8 40 20 61 46
35z m54 0 c-7 -7 -12 -22 -12 -35 0 -13 -4 -23 -10 -23 -5 0 -10 16 -10 35 0
29 4 35 22 35 17 0 19 -3 10 -12z m68 -3 c11 -13 14 -13 27 0 16 17 29 19 37
6 3 -5 -2 -8 -11 -7 -27 2 -28 -33 -1 -43 23 -10 23 -10 -4 -10 -19 -1 -28 4
-28 14 0 10 -10 15 -30 15 -35 0 -40 -17 -7 -23 19 -4 19 -4 -5 -6 -31 -1 -47
31 -28 54 16 19 34 19 50 0z m210 0 c20 -25 8 -50 -25 -50 -21 0 -31 5 -33 18
-4 21 14 47 33 47 7 0 18 -7 25 -15z m66 3 c5 -8 2 -9 -9 -5 -9 3 -19 2 -22
-3 -3 -5 4 -12 15 -15 27 -9 20 -29 -11 -32 -21 -2 -22 -2 -4 6 18 7 19 8 1
18 -12 7 -17 17 -13 27 7 19 33 21 43 4z m76 0 c-5 -7 -12 -24 -15 -38 -3 -18
-5 -15 -6 13 -1 28 3 37 15 37 12 0 14 -3 6 -12z m74 1 c4 -8 9 -8 17 0 14 14
37 14 37 0 0 -5 -4 -8 -9 -4 -5 3 -12 1 -15 -4 -13 -21 27 -20 44 1 15 18 22
21 36 12 29 -17 28 -34 0 -34 -32 0 -34 -17 -3 -23 19 -4 18 -4 -5 -6 -16 0
-28 4 -28 11 0 9 -3 9 -12 0 -7 -7 -21 -12 -32 -11 -21 0 -21 1 -1 8 19 8 19
8 0 18 -11 5 -33 6 -50 3 l-30 -7 25 -11 25 -12 -25 3 c-15 1 -26 9 -28 20 -7
34 37 63 54 36z m201 -10 c6 -21 6 -21 24 2 21 27 25 13 7 -26 -15 -33 -27
-32 -39 5 -12 34 -29 31 -29 -6 0 -13 -4 -24 -10 -24 -11 0 -14 53 -3 63 14
15 45 6 50 -14z m101 -17 c3 -29 1 -32 -22 -32 -31 0 -36 29 -6 37 11 3 17 9
15 14 -3 4 -13 5 -22 2 -11 -4 -14 -3 -9 6 15 23 41 7 44 -27z m150 29 c8 -4
12 -19 10 -32 -4 -33 -53 -40 -63 -9 -11 36 22 61 53 41z m68 -3 c5 -8 2 -9
-9 -5 -22 8 -22 -9 -1 -21 22 -12 9 -32 -19 -31 -18 1 -19 2 -4 6 17 4 17 6 2
23 -18 20 -13 40 10 40 8 0 17 -5 21 -12z m29 -48 c3 -5 1 -10 -4 -10 -6 0
-11 5 -11 10 0 6 2 10 4 10 3 0 8 -4 11 -10z"/>
<path d="M7856 313 c-12 -12 -6 -43 9 -43 8 0 15 9 15 19 0 21 -13 34 -24 24z"/>
<path d="M8002 307 c-13 -15 1 -42 17 -33 13 9 15 33 2 40 -5 3 -13 0 -19 -7z"/>
<path d="M8170 310 c0 -5 7 -10 16 -10 8 0 12 5 9 10 -3 6 -10 10 -16 10 -5 0
-9 -4 -9 -10z"/>
<path d="M6912 328 c-32 -32 2 -79 43 -60 39 18 27 72 -15 72 -9 0 -21 -5 -28
-12z m42 -7 c3 -5 -2 -8 -12 -7 -9 0 -17 -6 -17 -14 0 -9 8 -14 19 -13 11 1
15 -2 9 -8 -14 -14 -43 0 -43 20 0 29 31 44 44 22z"/>
<path d="M7130 305 c0 -25 4 -35 13 -32 6 2 12 16 12 32 0 16 -6 30 -12 33 -9
2 -13 -8 -13 -33z"/>
<path d="M7275 300 c-3 -5 -1 -10 4 -10 6 0 11 5 11 10 0 6 -2 10 -4 10 -3 0
-8 -4 -11 -10z"/>
<path d="M7650 310 c0 -5 5 -10 10 -10 6 0 10 5 10 10 0 6 -4 10 -10 10 -5 0
-10 -4 -10 -10z"/>
<path d="M7930 280 c0 -5 5 -10 10 -10 6 0 10 5 10 10 0 6 -4 10 -10 10 -5 0
-10 -4 -10 -10z"/>
<path d="M8470 280 c0 -5 5 -10 10 -10 6 0 10 5 10 10 0 6 -4 10 -10 10 -5 0
-10 -4 -10 -10z"/>
<path d="M8675 280 c-3 -5 -2 -10 4 -10 5 0 13 5 16 10 3 6 2 10 -4 10 -5 0
-13 -4 -16 -10z"/>
<path d="M8840 305 c-14 -16 -5 -35 16 -35 15 0 20 35 5 44 -5 3 -14 -1 -21
-9z"/>
<path d="M8990 280 c0 -5 5 -10 10 -10 6 0 10 5 10 10 0 6 -4 10 -10 10 -5 0
-10 -4 -10 -10z"/>
<path d="M7234 107 c-6 -17 2 -37 16 -37 15 0 19 29 5 40 -12 10 -16 9 -21 -3z"/>
<path d="M7696 113 c-12 -12 -6 -43 9 -43 8 0 15 9 15 19 0 21 -13 34 -24 24z"/>
<path d="M8686 113 c-12 -12 -6 -43 9 -43 8 0 15 9 15 19 0 21 -13 34 -24 24z"/>
<path d="M7154 106 c-7 -19 3 -36 22 -36 10 0 14 8 12 22 -4 26 -26 36 -34 14z"/>
<path d="M7313 104 c-8 -21 13 -42 28 -27 13 13 5 43 -11 43 -6 0 -13 -7 -17
-16z"/>
<path d="M7516 105 c-8 -21 1 -35 20 -35 10 0 14 8 12 22 -4 27 -23 34 -32 13z"/>
<path d="M7765 110 c-3 -5 1 -10 9 -10 9 0 16 5 16 10 0 6 -4 10 -9 10 -6 0
-13 -4 -16 -10z"/>
<path d="M7885 110 c-3 -5 1 -10 10 -10 9 0 13 5 10 10 -3 6 -8 10 -10 10 -2
0 -7 -4 -10 -10z"/>
<path d="M8096 113 c-12 -12 -6 -43 9 -43 8 0 15 9 15 19 0 21 -13 34 -24 24z"/>
<path d="M8310 110 c0 -5 5 -10 10 -10 6 0 10 5 10 10 0 6 -4 10 -10 10 -5 0
-10 -4 -10 -10z"/>
<path d="M8435 110 c-3 -5 1 -10 10 -10 9 0 13 5 10 10 -3 6 -8 10 -10 10 -2
0 -7 -4 -10 -10z"/>
<path d="M8615 80 c-3 -5 -2 -10 4 -10 5 0 13 5 16 10 3 6 2 10 -4 10 -5 0
-13 -4 -16 -10z"/>
<path d="M8767 113 c-13 -12 -7 -43 7 -43 19 0 28 14 20 34 -7 17 -16 20 -27
9z"/>
</g>
</svg>
