<?xml version="1.0" standalone="no"?>
<!DOCTYPE svg PUBLIC "-//W3C//DTD SVG 20010904//EN"
 "http://www.w3.org/TR/2001/REC-SVG-20010904/DTD/svg10.dtd">
<svg version="1.0" xmlns="http://www.w3.org/2000/svg"
 width="501.000000pt" height="329.000000pt" viewBox="0 0 501.000000 329.000000"
 preserveAspectRatio="xMidYMid meet">

<g transform="translate(0.000000,329.000000) scale(0.100000,-0.100000)"
fill="#000000" stroke="none">
<path d="M966 2684 c-5 -85 -4 -130 3 -137 17 -17 20 -7 21 93 2 146 1 170 -9
170 -4 0 -12 -57 -15 -126z"/>
<path d="M1430 2756 l0 -54 -43 5 c-39 5 -46 2 -65 -22 -29 -37 -29 -95 -1
-121 15 -13 37 -19 75 -20 l54 -1 0 134 c0 82 -4 133 -10 133 -5 0 -10 -24
-10 -54z m-12 -119 c4 -45 -11 -67 -44 -67 -31 0 -58 41 -48 72 9 30 23 39 59
36 27 -3 30 -7 33 -41z"/>
<path d="M775 2790 c-66 -27 -104 -128 -74 -194 26 -57 123 -70 167 -23 26 28
52 88 52 122 0 74 -76 124 -145 95z m102 -47 c28 -37 5 -126 -38 -157 -31 -22
-61 -20 -93 5 -44 34 -30 124 26 164 28 20 87 13 105 -12z"/>
<path d="M4078 2789 c-19 -11 -25 -39 -8 -39 6 0 10 5 10 10 0 15 36 12 50 -5
25 -30 70 -11 70 30 0 19 -2 18 -20 -5 l-19 -25 -23 23 c-27 24 -35 26 -60 11z"/>
<path d="M594 2776 c-8 -22 3 -33 18 -18 9 9 9 15 0 24 -9 9 -13 7 -18 -6z"/>
<path d="M1227 2784 c-8 -8 1 -24 14 -24 5 0 9 7 9 15 0 15 -12 20 -23 9z"/>
<path d="M4413 2780 c-13 -5 -23 -16 -23 -25 0 -18 2 -18 34 -4 20 10 30 9 51
-5 36 -23 31 -46 -17 -88 -29 -25 -40 -40 -33 -47 7 -7 25 2 58 30 56 48 61
77 18 120 -30 30 -50 34 -88 19z"/>
<path d="M1870 2741 c0 -26 -4 -31 -25 -31 -32 0 -32 -18 0 -26 22 -5 24 -11
27 -72 2 -41 8 -67 16 -70 9 -3 12 15 12 67 0 64 2 71 19 71 20 0 37 17 28 26
-3 3 -13 7 -23 8 -10 2 -21 13 -24 26 -9 36 -30 37 -30 1z"/>
<path d="M2308 2743 c-2 -20 -9 -29 -25 -31 -30 -4 -29 -20 2 -28 22 -5 24
-11 27 -72 4 -86 22 -83 26 3 3 56 6 65 22 65 10 0 22 5 26 11 8 14 -14 29
-32 22 -8 -3 -14 6 -16 23 -4 37 -26 42 -30 7z"/>
<path d="M3258 2743 c-2 -15 -9 -29 -15 -29 -30 -3 -33 -4 -33 -14 0 -5 11
-12 25 -16 22 -5 24 -11 27 -72 2 -41 8 -67 16 -70 9 -3 12 15 12 67 0 64 2
71 19 71 20 0 37 17 28 26 -3 3 -13 7 -23 8 -10 2 -21 13 -24 26 -8 34 -28 36
-32 3z"/>
<path d="M547 2689 c-32 -28 -47 -48 -47 -66 0 -27 49 -83 74 -83 30 0 66 23
66 43 0 19 -1 19 -26 2 -32 -21 -68 -9 -79 27 -6 18 0 29 36 60 31 26 40 41
33 48 -7 7 -25 -2 -57 -31z"/>
<path d="M1730 2718 c-46 -13 -60 -26 -60 -54 0 -18 8 -27 28 -34 38 -14 55
-25 60 -38 5 -17 -48 -27 -71 -13 -32 20 -45 -4 -13 -24 30 -20 86 -14 106 10
22 27 3 65 -40 82 -47 19 -49 26 -14 42 22 10 28 9 39 -6 13 -17 14 -17 20 0
8 19 0 48 -12 46 -4 0 -24 -5 -43 -11z"/>
<path d="M3770 2718 c-48 -14 -62 -27 -58 -57 2 -21 11 -28 40 -35 39 -10 57
-34 36 -48 -19 -11 -52 -10 -66 4 -14 14 -27 4 -19 -16 14 -37 101 -31 118 8
15 33 -2 62 -46 76 -42 14 -44 23 -8 39 23 11 29 10 40 -5 11 -16 13 -16 19
-1 7 19 -1 47 -13 46 -4 0 -24 -5 -43 -11z"/>
<path d="M1040 2701 c0 -16 50 -145 60 -155 6 -6 23 20 45 68 39 85 41 96 22
96 -7 0 -21 -23 -31 -50 -10 -28 -22 -52 -26 -55 -4 -2 -16 19 -27 47 -18 47
-43 76 -43 49z"/>
<path d="M1220 2629 c0 -60 3 -80 13 -77 8 3 13 31 15 81 2 63 0 77 -13 77
-12 0 -15 -15 -15 -81z"/>
<path d="M1515 2685 c-36 -35 -36 -108 1 -132 21 -13 32 -14 54 -6 15 6 34 7
41 2 21 -13 29 0 18 29 -6 14 -9 45 -8 67 2 23 -1 46 -5 53 -13 22 -75 14
-101 -13z m77 -47 c6 -50 -5 -68 -38 -68 -43 0 -53 87 -12 103 35 14 46 7 50
-35z"/>
<path d="M2000 2678 c-37 -62 -17 -122 44 -133 33 -7 96 16 96 34 0 17 -14 20
-34 6 -26 -19 -57 -19 -81 -1 -18 13 -16 16 38 40 47 20 57 29 57 49 0 28 -16
37 -66 37 -28 0 -38 -6 -54 -32z m90 -8 c0 -10 -70 -43 -77 -36 -3 2 0 14 7
25 11 22 70 31 70 11z"/>
<path d="M2427 2678 c-8 -42 7 -118 24 -129 8 -5 34 -7 59 -6 l45 3 3 82 c2
67 0 82 -12 82 -12 0 -16 -16 -18 -67 l-3 -68 -32 -3 c-29 -3 -32 0 -38 31 -4
19 -5 49 -3 67 4 44 -18 51 -25 8z"/>
<path d="M2720 2678 c-29 -47 -26 -92 6 -117 31 -24 43 -26 79 -9 29 13 36 45
8 33 -40 -17 -59 -16 -78 4 -18 21 -18 23 -1 57 16 35 19 36 56 30 31 -5 40
-3 40 8 0 17 -21 26 -61 26 -22 0 -34 -8 -49 -32z"/>
<path d="M2898 2700 c-27 -16 -42 -76 -28 -111 22 -53 67 -63 105 -24 32 31
35 103 7 128 -21 19 -58 22 -84 7z m70 -32 c31 -31 -6 -106 -46 -94 -30 10
-38 50 -18 81 18 27 45 32 64 13z"/>
<path d="M3050 2624 c0 -64 3 -85 13 -82 6 3 13 24 15 48 4 51 27 90 53 90 16
0 19 -8 19 -57 0 -59 12 -94 27 -79 10 10 4 126 -8 149 -12 21 -52 22 -73 1
-15 -14 -16 -14 -16 0 0 9 -7 16 -15 16 -12 0 -15 -16 -15 -86z"/>
<path d="M3380 2624 c0 -64 3 -85 13 -81 8 2 11 19 9 48 -2 34 2 49 18 67 26
27 50 28 57 2 8 -31 23 -24 23 10 0 37 -21 48 -64 32 -20 -8 -32 -9 -34 -2 -2
5 -8 10 -13 10 -5 0 -9 -39 -9 -86z"/>
<path d="M3555 2685 c-36 -35 -36 -108 1 -132 22 -14 31 -15 57 -5 20 8 35 8
42 2 18 -15 25 -1 14 28 -6 15 -9 45 -8 67 2 23 -1 46 -5 53 -13 22 -75 14
-101 -13z m80 -50 c3 -44 -8 -65 -36 -65 -47 0 -62 67 -21 98 32 24 54 11 57
-33z"/>
<path d="M3893 2688 c-45 -50 -37 -116 16 -138 37 -15 88 -4 105 22 14 24 1
34 -19 14 -20 -20 -65 -21 -90 -2 -17 12 -14 15 38 39 47 21 57 30 57 50 0 43
-73 52 -107 15z m87 -16 c0 -12 -79 -47 -87 -39 -12 13 30 47 59 47 15 0 28
-4 28 -8z"/>
<path d="M4056 2642 c-7 -68 -2 -102 15 -102 5 0 9 15 9 33 0 46 30 102 55
102 17 0 21 -8 25 -64 7 -87 30 -96 30 -12 0 100 -24 131 -80 101 -13 -7 -21
-7 -25 0 -14 23 -23 6 -29 -58z"/>
<path d="M4247 2692 c-9 -10 -21 -32 -27 -48 -22 -63 30 -121 86 -95 20 9 30
9 40 0 14 -11 19 -4 13 16 -1 6 -5 39 -8 75 l-6 65 -41 3 c-29 2 -45 -2 -57
-16z m75 -54 c6 -50 -5 -68 -38 -68 -44 0 -56 76 -15 100 35 20 49 12 53 -32z"/>
<path d="M4415 2570 c-8 -13 4 -32 16 -25 12 8 12 35 0 35 -6 0 -13 -4 -16
-10z"/>
<path d="M4261 2124 c0 -11 3 -14 6 -6 3 7 2 16 -1 19 -3 4 -6 -2 -5 -13z"/>
<path d="M1660 2100 c0 -5 -11 -10 -25 -10 -14 0 -25 -4 -25 -8 0 -5 14 -7 30
-4 17 2 30 10 30 18 0 8 -2 14 -5 14 -3 0 -5 -4 -5 -10z"/>
<path d="M1921 2094 c0 -11 3 -14 6 -6 3 7 2 16 -1 19 -3 4 -6 -2 -5 -13z"/>
<path d="M3111 2094 c0 -11 3 -14 6 -6 3 7 2 16 -1 19 -3 4 -6 -2 -5 -13z"/>
<path d="M698 2093 c6 -2 18 -2 25 0 6 3 1 5 -13 5 -14 0 -19 -2 -12 -5z"/>
<path d="M1018 2093 c7 -3 16 -2 19 1 4 3 -2 6 -13 5 -11 0 -14 -3 -6 -6z"/>
<path d="M1690 2096 c0 -3 9 -10 20 -16 11 -6 20 -8 20 -6 0 3 -9 10 -20 16
-11 6 -20 8 -20 6z"/>
<path d="M1766 2091 c-4 -5 3 -7 14 -4 23 6 26 13 6 13 -8 0 -17 -4 -20 -9z"/>
<path d="M2622 2075 c0 -16 2 -22 5 -12 2 9 2 23 0 30 -3 6 -5 -1 -5 -18z"/>
<path d="M3188 2093 c-16 -2 -28 -8 -28 -12 0 -4 14 -6 30 -3 17 2 30 8 30 13
0 5 -1 8 -2 8 -2 -1 -15 -4 -30 -6z"/>
<path d="M3395 2090 l-30 -8 27 -1 c15 0 30 4 33 9 3 6 5 9 3 9 -2 -1 -16 -5
-33 -9z"/>
<path d="M4262 2080 c0 -14 2 -19 5 -12 2 6 2 18 0 25 -3 6 -5 1 -5 -13z"/>
<path d="M2233 2083 c9 -2 23 -2 30 0 6 3 -1 5 -18 5 -16 0 -22 -2 -12 -5z"/>
<path d="M2793 2083 c9 -2 23 -2 30 0 6 3 -1 5 -18 5 -16 0 -22 -2 -12 -5z"/>
<path d="M3493 2083 c9 -2 25 -2 35 0 9 3 1 5 -18 5 -19 0 -27 -2 -17 -5z"/>
<path d="M4323 2083 c9 -2 23 -2 30 0 6 3 -1 5 -18 5 -16 0 -22 -2 -12 -5z"/>
<path d="M675 1890 c-3 -6 1 -7 9 -4 18 7 21 14 7 14 -6 0 -13 -4 -16 -10z"/>
<path d="M1075 1890 c-3 -6 1 -7 9 -4 18 7 21 14 7 14 -6 0 -13 -4 -16 -10z"/>
<path d="M1287 1893 c-3 -5 5 -8 18 -8 13 0 21 3 18 8 -2 4 -10 7 -18 7 -8 0
-16 -3 -18 -7z"/>
<path d="M1366 1891 c-4 -5 3 -7 14 -4 23 6 26 13 6 13 -8 0 -17 -4 -20 -9z"/>
<path d="M1658 1893 c7 -3 16 -2 19 1 4 3 -2 6 -13 5 -11 0 -14 -3 -6 -6z"/>
<path d="M2022 1888 c-7 -7 -12 -16 -12 -22 0 -5 6 -1 14 9 8 11 19 16 30 12
10 -4 15 -3 11 3 -8 14 -28 13 -43 -2z"/>
<path d="M2115 1890 c-3 -6 1 -7 9 -4 18 7 21 14 7 14 -6 0 -13 -4 -16 -10z"/>
<path d="M2400 1896 c0 -2 7 -7 16 -10 8 -3 12 -2 9 4 -6 10 -25 14 -25 6z"/>
<path d="M2765 1890 c-3 -6 1 -7 9 -4 18 7 21 14 7 14 -6 0 -13 -4 -16 -10z"/>
<path d="M2898 1893 c6 -2 18 -2 25 0 6 3 1 5 -13 5 -14 0 -19 -2 -12 -5z"/>
<path d="M3478 1893 c7 -3 16 -2 19 1 4 3 -2 6 -13 5 -11 0 -14 -3 -6 -6z"/>
<path d="M3888 1893 c6 -2 18 -2 25 0 6 3 1 5 -13 5 -14 0 -19 -2 -12 -5z"/>
<path d="M4008 1893 c7 -3 16 -2 19 1 4 3 -2 6 -13 5 -11 0 -14 -3 -6 -6z"/>
<path d="M4150 1896 c0 -2 7 -7 16 -10 8 -3 12 -2 9 4 -6 10 -25 14 -25 6z"/>
<path d="M711 1874 c0 -11 3 -14 6 -6 3 7 2 16 -1 19 -3 4 -6 -2 -5 -13z"/>
<path d="M3522 1860 c0 -19 2 -27 5 -17 2 9 2 25 0 35 -3 9 -5 1 -5 -18z"/>
<path d="M4210 1879 c0 -5 5 -7 10 -4 6 3 10 8 10 11 0 2 -4 4 -10 4 -5 0 -10
-5 -10 -11z"/>
<path d="M2372 1850 c0 -19 2 -27 5 -17 2 9 2 25 0 35 -3 9 -5 1 -5 -18z"/>
<path d="M4262 1855 c0 -16 2 -22 5 -12 2 9 2 23 0 30 -3 6 -5 -1 -5 -18z"/>
<path d="M2067 1851 c-4 -17 -3 -21 5 -13 5 5 8 16 6 23 -3 8 -7 3 -11 -10z"/>
<path d="M3572 1850 c0 -14 2 -19 5 -12 2 6 2 18 0 25 -3 6 -5 1 -5 -13z"/>
<path d="M3710 1856 c0 -8 4 -17 9 -20 5 -4 7 3 4 14 -6 23 -13 26 -13 6z"/>
<path d="M566 1399 c13 -15 20 -16 42 -6 41 17 48 26 17 23 -15 -2 -31 -10
-36 -17 -7 -11 -9 -11 -9 2 0 9 -7 16 -15 16 -13 0 -13 -3 1 -18z"/>
<path d="M524 1346 c0 -34 3 -42 18 -43 10 -1 16 2 14 6 -3 4 5 8 17 8 17 2
19 0 7 -7 -13 -8 -13 -10 2 -10 9 0 20 5 23 10 3 6 12 10 18 10 7 0 6 -4 -3
-10 -12 -8 -9 -10 13 -10 19 0 26 4 21 12 -5 7 -2 9 8 6 12 -5 15 1 13 30 -1
21 -3 38 -4 40 0 2 -17 -9 -36 -24 -29 -22 -38 -24 -50 -14 -8 7 -15 9 -15 4
0 -5 -4 -4 -8 1 -4 6 -14 15 -22 22 -13 10 -15 5 -16 -31z m121 -6 c-3 -5 -12
-10 -18 -10 -7 0 -6 4 3 10 19 12 23 12 15 0z"/>
<path d="M865 781 c-62 -28 -115 -104 -115 -166 0 -62 53 -138 115 -166 38
-17 82 -19 730 -19 648 0 692 2 730 19 120 54 148 210 53 298 -58 54 -42 53
-785 53 -646 0 -690 -2 -728 -19z m475 -156 l-23 -25 23 -25 c33 -36 16 -44
-20 -10 l-30 29 32 33 c17 18 34 31 37 28 2 -3 -6 -16 -19 -30z m136 -20 c1
-48 1 -49 -13 -27 -9 12 -19 22 -24 22 -4 0 -10 -10 -12 -22 -2 -13 -5 1 -6
30 -1 53 -1 53 26 50 26 -3 28 -6 29 -53z m70 14 c4 -8 9 -8 17 0 6 6 21 11
34 11 20 0 23 -5 23 -38 0 -21 -5 -43 -12 -50 -14 -14 -48 -16 -48 -3 0 5 9 7
20 4 11 -3 20 0 20 6 0 6 -7 11 -15 11 -8 0 -20 9 -27 20 -14 22 -63 28 -55 8
2 -7 12 -12 22 -11 11 1 14 -2 8 -8 -15 -15 -43 1 -43 25 0 13 3 26 7 29 10
11 41 8 49 -4z m192 -6 c2 -8 -5 -13 -18 -13 -13 0 -20 -5 -17 -12 2 -7 12
-12 22 -11 11 1 14 -2 7 -9 -18 -18 -52 1 -52 29 0 34 -23 25 -31 -13 -6 -28
-7 -27 -8 8 l-1 37 47 -2 c26 -1 48 -7 51 -14z m49 8 c-16 -6 -17 -9 -4 -19
11 -10 20 -9 42 2 23 12 24 15 8 19 -15 4 -14 5 5 6 18 1 22 -4 22 -29 0 -33
-22 -49 -43 -32 -8 7 -18 7 -27 2 -20 -13 -40 -13 -40 0 0 5 7 7 15 4 20 -8
19 13 -1 24 -22 12 -9 32 19 31 20 0 20 -1 4 -8z m126 2 c-7 -2 -13 -16 -13
-29 0 -13 -4 -24 -10 -24 -5 0 -10 14 -10 30 0 25 4 30 23 29 12 0 16 -3 10
-6z"/>
<path d="M1437 643 c-12 -11 -8 -23 8 -23 8 0 15 7 15 15 0 16 -12 20 -23 8z"/>
<path d="M1574 605 c-7 -17 4 -37 17 -30 12 8 12 45 -1 45 -6 0 -13 -7 -16
-15z"/>
<path d="M1825 591 c-6 -11 9 -23 19 -14 9 9 7 23 -3 23 -6 0 -12 -4 -16 -9z"/>
<path d="M2727 785 c-156 -55 -164 -267 -12 -336 38 -17 82 -19 720 -19 438 0
693 4 717 10 165 46 180 270 23 341 -38 17 -82 19 -725 18 -554 0 -692 -2
-723 -14z m591 -132 c-10 -2 -18 -11 -18 -19 0 -8 8 -15 18 -15 16 -1 16 -2 0
-6 -10 -2 -18 -13 -18 -23 0 -10 8 -21 18 -23 10 -3 6 -5 -10 -6 -27 -1 -28 1
-28 49 0 48 1 50 28 49 16 -1 20 -3 10 -6z m86 -39 c9 -24 7 -44 -4 -44 -5 0
-10 12 -10 26 0 32 -24 27 -28 -6 -3 -16 -6 -19 -12 -11 -4 7 -5 22 -3 32 6
23 48 26 57 3z m37 -12 c0 -13 3 -12 11 6 15 31 30 28 17 -4 -16 -45 -21 -48
-35 -23 -16 29 -18 53 -4 44 6 -3 10 -14 11 -23z m56 -24 c-2 -13 -4 -5 -4 17
-1 22 1 32 4 23 2 -10 2 -28 0 -40z m73 19 c0 -25 -4 -33 -19 -34 -11 -1 -25
4 -31 12 -8 10 -6 17 10 28 20 14 21 15 3 20 -12 3 -9 5 10 6 24 1 27 -2 27
-32z m48 21 c-9 -7 -19 -24 -21 -38 -3 -18 -5 -14 -6 13 -1 32 2 37 21 37 19
0 20 -1 6 -12z"/>
<path d="M3536 591 c-4 -7 -5 -15 -2 -18 9 -9 19 4 14 18 -4 11 -6 11 -12 0z"/>
</g>
</svg>
