<?xml version="1.0" standalone="no"?>
<!DOCTYPE svg PUBLIC "-//W3C//DTD SVG 20010904//EN"
 "http://www.w3.org/TR/2001/REC-SVG-20010904/DTD/svg10.dtd">
<svg version="1.0" xmlns="http://www.w3.org/2000/svg"
 width="1280.000000pt" height="382.000000pt" viewBox="0 0 1280.000000 382.000000"
 preserveAspectRatio="xMidYMid meet">

<g transform="translate(0.000000,382.000000) scale(0.100000,-0.100000)"
fill="#000000" stroke="none">
<path d="M80 3395 l0 -335 6310 0 6310 0 0 335 0 335 -6310 0 -6310 0 0 -335z
m7130 100 c-13 -14 -32 -25 -42 -25 -15 0 -16 3 -6 25 8 19 19 25 41 25 l30 0
-23 -25z m-2920 -15 l0 -30 60 0 c33 0 60 -2 60 -4 0 -16 -14 -36 -26 -36 -10
0 -14 -15 -14 -60 0 -57 -1 -60 -25 -60 -24 0 -25 3 -25 60 0 47 -3 60 -15 60
-12 0 -15 -13 -15 -60 0 -57 -1 -60 -25 -60 -24 0 -25 3 -25 55 0 30 -6 65
-12 76 -10 17 -10 23 0 26 6 3 12 18 12 34 0 24 4 29 25 29 21 0 25 -5 25 -30z
m1150 0 c0 -16 5 -30 10 -30 6 0 10 -9 10 -20 0 -11 -4 -20 -10 -20 -6 0 -10
-27 -10 -60 0 -57 -1 -60 -25 -60 -24 0 -25 3 -25 60 0 33 -4 60 -10 60 -5 0
-10 9 -10 20 0 11 5 20 10 20 6 0 10 14 10 30 0 25 4 30 25 30 21 0 25 -5 25
-30z m1200 -80 c0 -103 -1 -110 -20 -110 -19 0 -20 7 -20 110 0 103 1 110 20
110 19 0 20 -7 20 -110z m228 87 c9 -7 12 -24 9 -49 -3 -25 0 -41 9 -49 18
-15 18 -49 -2 -77 -12 -18 -25 -22 -70 -22 l-54 0 0 103 c0 57 3 106 6 109 9
9 87 -2 102 -15z m102 3 c0 -15 -7 -20 -25 -20 -18 0 -25 5 -25 20 0 15 7 20
25 20 18 0 25 -5 25 -20z m80 -10 c0 -16 5 -30 10 -30 6 0 10 -9 10 -20 0 -11
-4 -20 -10 -20 -6 0 -10 -27 -10 -60 0 -57 -1 -60 -25 -60 -24 0 -25 3 -25 60
0 33 -4 60 -10 60 -5 0 -10 9 -10 20 0 11 5 20 10 20 6 0 10 14 10 30 0 25 4
30 25 30 21 0 25 -5 25 -30z m1073 21 c17 -2 5 -31 -13 -31 -19 0 -20 -7 -20
-90 0 -89 0 -90 -25 -90 -25 0 -25 1 -25 90 0 83 -1 90 -20 90 -22 0 -28 26
-7 33 10 3 82 2 110 -2z m213 -22 c13 -11 13 -14 1 -27 -13 -12 -19 -12 -47 3
-39 20 -81 7 -98 -31 -29 -63 47 -120 108 -82 16 10 23 10 36 -4 15 -15 14
-17 -14 -32 -17 -9 -52 -16 -77 -16 -38 0 -52 5 -76 29 -38 39 -41 106 -6 147
37 42 130 49 173 13z m86 -62 c3 -80 4 -82 28 -82 24 0 25 2 28 80 3 78 12 98
39 88 9 -4 13 -27 13 -83 0 -97 -20 -130 -79 -130 -58 0 -73 24 -79 121 -3 60
-1 83 8 89 29 18 39 -1 42 -83z m378 3 c0 -97 -20 -130 -79 -130 -56 0 -69 21
-77 123 l-6 87 26 0 c25 0 25 -1 28 -82 3 -81 4 -83 28 -83 24 0 25 2 28 80 3
78 12 98 39 88 9 -4 13 -27 13 -83z m128 66 c2 -9 -3 -16 -12 -16 -13 0 -16
-15 -16 -90 0 -89 0 -90 -25 -90 -25 0 -25 1 -25 90 0 83 -1 90 -20 90 -22 0
-28 26 -8 32 7 3 33 4 58 3 33 -2 46 -7 48 -19z m75 10 c7 -8 29 -38 48 -68
l34 -53 5 63 c3 34 8 62 13 62 4 0 12 0 17 0 6 0 10 -42 10 -105 0 -102 -1
-105 -22 -105 -17 0 -33 15 -58 55 -19 30 -38 55 -42 55 -5 0 -8 -25 -8 -55 0
-52 -1 -55 -25 -55 l-25 0 0 104 c0 100 3 112 32 115 4 1 13 -5 21 -13z
m-5178 -8 c26 -12 33 -32 14 -43 -5 -4 -26 1 -46 10 -28 13 -41 15 -59 6 -53
-24 -56 -102 -5 -128 20 -9 32 -8 63 4 31 12 42 13 51 4 21 -22 -28 -51 -85
-51 -44 0 -54 4 -84 34 -26 26 -34 42 -34 71 0 29 8 45 34 71 29 29 41 34 80
34 25 0 57 -5 71 -12z m1235 -3 c-8 -15 -112 -13 -118 3 -3 10 11 12 59 10 39
-2 62 -7 59 -13z m-1046 -56 c34 -27 36 -82 4 -116 -30 -32 -90 -32 -123 2
-75 74 35 180 119 114z m181 5 c10 -11 15 -36 15 -80 0 -61 -1 -64 -24 -64
-21 0 -25 5 -24 28 3 58 -3 83 -18 89 -23 8 -34 -14 -34 -69 0 -44 -2 -48 -25
-48 -25 0 -25 1 -25 79 l0 79 60 1 c40 0 65 -5 75 -15z m395 -65 l0 -79 -65 0
c-79 0 -105 19 -105 77 0 60 29 82 106 82 l64 -1 0 -79z m111 70 c29 -15 6
-41 -29 -32 -17 4 -23 2 -18 -6 4 -6 12 -11 18 -11 36 0 62 -62 36 -88 -14
-14 -67 -16 -87 -3 -24 15 -5 42 24 35 34 -8 31 7 -5 28 -71 40 -10 116 61 77z
m184 -14 c14 -13 25 -36 25 -50 0 -24 -2 -25 -62 -25 -56 -1 -61 -2 -44 -15
12 -9 25 -11 41 -5 15 6 29 4 41 -4 17 -13 16 -14 -4 -25 -35 -19 -93 -13
-119 11 -33 31 -32 90 3 117 37 29 89 27 119 -4z m180 9 c10 -11 15 -36 15
-80 0 -62 -1 -64 -25 -64 -24 0 -25 3 -25 55 0 42 -4 57 -16 62 -23 8 -34 -14
-34 -69 0 -44 -2 -48 -25 -48 -25 0 -25 1 -25 79 l0 79 60 1 c40 0 65 -5 75
-15z m205 -65 l0 -79 -60 0 c-51 0 -65 4 -85 25 -33 32 -33 78 -1 110 20 20
33 24 85 23 l61 -1 0 -78z m337 59 c11 -13 23 -35 27 -50 l6 -28 -65 0 c-42 0
-64 -4 -60 -10 3 -6 26 -9 51 -8 51 1 62 -5 44 -27 -8 -9 -29 -15 -57 -15 -91
0 -125 93 -54 147 27 21 85 16 108 -9z m178 11 c4 -5 14 -5 26 2 32 17 72 7
86 -21 7 -14 13 -49 13 -77 0 -50 -1 -53 -25 -53 -24 0 -25 3 -25 55 0 41 -4
57 -16 62 -24 9 -35 -10 -37 -66 -1 -46 -3 -51 -24 -51 -21 0 -23 5 -23 44 0
54 -8 76 -26 76 -20 0 -34 -33 -34 -79 0 -36 -3 -41 -22 -41 -22 0 -23 4 -23
79 l0 80 62 0 c35 0 65 -4 68 -10z m294 -10 c15 -14 21 -32 21 -59 0 -53 -27
-80 -80 -80 -38 0 -40 -2 -40 -30 0 -25 -4 -30 -25 -30 l-25 0 0 109 0 109 64
1 c50 0 68 -4 85 -20z m186 -4 c32 -31 33 -80 3 -112 -49 -52 -148 -14 -148
57 0 71 94 107 145 55z m125 12 c0 -7 -9 -20 -20 -30 -15 -13 -20 -29 -20 -67
0 -47 -2 -50 -25 -50 -25 0 -25 1 -25 80 l0 80 45 0 c30 0 45 -4 45 -13z m180
-68 l0 -79 -64 0 c-58 0 -67 3 -85 26 -28 36 -27 79 3 109 20 20 33 24 85 23
l61 -1 0 -78z m400 1 c0 -79 0 -80 -25 -80 -25 0 -25 1 -25 80 0 79 0 80 25
80 25 0 25 -1 25 -80z m280 -1 l0 -79 -65 0 c-80 0 -105 19 -105 80 0 59 27
79 106 79 l64 -1 0 -79z m165 68 c28 -21 10 -38 -34 -31 -43 7 -65 -11 -59
-48 3 -20 9 -23 50 -23 53 0 66 -8 48 -30 -21 -25 -96 -20 -125 10 -53 52 -15
135 63 135 21 0 46 -6 57 -13z m169 2 c50 -23 57 -103 13 -134 -31 -22 -93
-19 -117 5 -33 33 -30 85 6 118 28 24 60 28 98 11z m146 -4 c0 -8 -9 -19 -20
-25 -16 -9 -20 -21 -20 -65 0 -52 -1 -55 -25 -55 -25 0 -25 1 -25 79 l0 79 45
0 c32 0 45 -4 45 -13z m180 -66 l0 -79 -62 0 c-76 0 -108 23 -108 79 0 58 30
80 106 80 l64 -1 0 -79z"/>
<path d="M6810 3445 c0 -15 4 -24 10 -20 6 3 10 12 10 20 0 8 -4 17 -10 20 -6
4 -10 -5 -10 -20z"/>
<path d="M6810 3355 c0 -33 2 -35 20 -25 11 6 20 17 20 25 0 8 -9 19 -20 25
-18 10 -20 8 -20 -25z"/>
<path d="M3932 3398 c-32 -32 6 -93 40 -65 21 16 27 39 16 60 -10 20 -39 22
-56 5z"/>
<path d="M4470 3390 c-12 -22 0 -55 22 -63 24 -8 48 13 48 42 0 43 -50 58 -70
21z"/>
<path d="M4795 3400 c-4 -6 8 -10 30 -10 22 0 34 4 30 10 -3 6 -17 10 -30 10
-13 0 -27 -4 -30 -10z"/>
<path d="M5161 3396 c-8 -10 -11 -26 -7 -42 5 -20 12 -25 33 -22 14 2 31 11
37 21 23 36 -36 76 -63 43z"/>
<path d="M5525 3400 c-4 -6 7 -10 25 -10 18 0 29 4 25 10 -3 6 -15 10 -25 10
-10 0 -22 -4 -25 -10z"/>
<path d="M5990 3396 c-6 -8 -10 -25 -8 -38 4 -32 52 -38 68 -9 22 43 -29 83
-60 47z"/>
<path d="M6182 3398 c-33 -33 5 -92 42 -65 25 18 18 71 -9 75 -11 1 -26 -3
-33 -10z"/>
<path d="M6461 3396 c-7 -8 -11 -25 -9 -38 2 -18 9 -23 32 -23 36 0 56 27 40
53 -14 22 -48 27 -63 8z"/>
<path d="M7128 3384 c-11 -23 -10 -29 11 -45 28 -23 61 -10 61 24 0 49 -53 64
-72 21z"/>
<path d="M7509 3386 c-9 -20 -9 -29 1 -41 28 -34 87 5 64 43 -18 28 -52 27
-65 -2z"/>
<path d="M7794 3396 c-3 -8 -4 -25 -2 -38 2 -18 9 -23 33 -23 28 0 30 3 30 35
0 31 -3 35 -28 38 -17 2 -29 -2 -33 -12z"/>
<path d="M333 2633 c9 -2 25 -2 35 0 9 3 1 5 -18 5 -19 0 -27 -2 -17 -5z"/>
<path d="M459 2624 c-3 -10 -2 -37 1 -59 l6 -40 5 42 c5 48 -4 92 -12 57z"/>
<path d="M531 2570 l1 -35 7 30 c5 22 12 30 28 29 12 0 20 3 17 8 -3 4 -16 7
-29 6 -22 -2 -25 -7 -24 -38z"/>
<path d="M610 2606 c0 -2 7 -7 16 -10 8 -3 12 -2 9 4 -6 10 -25 14 -25 6z"/>
<path d="M698 2603 c7 -3 16 -2 19 1 4 3 -2 6 -13 5 -11 0 -14 -3 -6 -6z"/>
<path d="M798 2603 c7 -3 16 -2 19 1 4 3 -2 6 -13 5 -11 0 -14 -3 -6 -6z"/>
<path d="M898 2603 c7 -3 16 -2 19 1 4 3 -2 6 -13 5 -11 0 -14 -3 -6 -6z"/>
<path d="M1048 2603 c7 -3 16 -2 19 1 4 3 -2 6 -13 5 -11 0 -14 -3 -6 -6z"/>
<path d="M725 2550 c-4 -7 -16 -10 -26 -7 -11 3 -17 1 -13 -4 3 -5 11 -9 17
-9 18 0 42 18 35 25 -3 4 -9 1 -13 -5z"/>
<path d="M810 2543 c-14 -7 -18 -13 -10 -13 17 0 47 17 40 23 -3 2 -16 -2 -30
-10z"/>
<path d="M887 2538 c2 -5 10 -8 18 -8 8 0 16 3 18 8 3 4 -5 7 -18 7 -13 0 -21
-3 -18 -7z"/>
<path d="M1038 2538 c5 -5 16 -8 23 -6 8 3 3 7 -10 11 -17 4 -21 3 -13 -5z"/>
<path d="M333 2533 c9 -2 23 -2 30 0 6 3 -1 5 -18 5 -16 0 -22 -2 -12 -5z"/>
<path d="M320 2266 c0 -2 13 -6 29 -8 17 -2 28 -1 25 4 -5 8 -54 12 -54 4z"/>
<path d="M590 2240 c0 -5 5 -10 11 -10 5 0 7 5 4 10 -3 6 -8 10 -11 10 -2 0
-4 -4 -4 -10z"/>
<path d="M1795 2240 c-3 -5 1 -10 10 -10 9 0 13 5 10 10 -3 6 -8 10 -10 10 -2
0 -7 -4 -10 -10z"/>
<path d="M420 2236 c0 -2 11 -6 25 -8 13 -3 22 -1 19 3 -5 9 -44 13 -44 5z"/>
<path d="M500 2229 c0 -5 5 -7 10 -4 6 3 10 8 10 11 0 2 -4 4 -10 4 -5 0 -10
-5 -10 -11z"/>
<path d="M826 2231 c-4 -5 3 -7 14 -4 23 6 26 13 6 13 -8 0 -17 -4 -20 -9z"/>
<path d="M910 2225 c0 -8 2 -15 4 -15 2 0 6 7 10 15 3 8 1 15 -4 15 -6 0 -10
-7 -10 -15z"/>
<path d="M990 2206 c0 -20 2 -36 4 -36 8 0 12 61 4 66 -4 3 -8 -11 -8 -30z"/>
<path d="M1096 2231 c-4 -5 3 -7 14 -4 23 6 26 13 6 13 -8 0 -17 -4 -20 -9z"/>
<path d="M1330 2236 c0 -2 11 -6 25 -8 13 -3 22 -1 19 3 -5 9 -44 13 -44 5z"/>
<path d="M1578 2233 c7 -3 16 -2 19 1 4 3 -2 6 -13 5 -11 0 -14 -3 -6 -6z"/>
<path d="M1678 2233 c7 -3 16 -2 19 1 4 3 -2 6 -13 5 -11 0 -14 -3 -6 -6z"/>
<path d="M1711 2224 c0 -11 3 -14 6 -6 3 7 2 16 -1 19 -3 4 -6 -2 -5 -13z"/>
<path d="M1750 2229 c0 -5 5 -7 10 -4 6 3 10 8 10 11 0 2 -4 4 -10 4 -5 0 -10
-5 -10 -11z"/>
<path d="M2486 2231 c-4 -5 3 -7 14 -4 23 6 26 13 6 13 -8 0 -17 -4 -20 -9z"/>
<path d="M2688 2233 c7 -3 16 -2 19 1 4 3 -2 6 -13 5 -11 0 -14 -3 -6 -6z"/>
<path d="M2900 2230 c-18 -12 -2 -12 25 0 13 6 15 9 5 9 -8 0 -22 -4 -30 -9z"/>
<path d="M3018 2233 c7 -3 16 -2 19 1 4 3 -2 6 -13 5 -11 0 -14 -3 -6 -6z"/>
<path d="M3090 2229 c0 -5 5 -7 10 -4 6 3 10 8 10 11 0 2 -4 4 -10 4 -5 0 -10
-5 -10 -11z"/>
<path d="M3428 2233 c7 -3 16 -2 19 1 4 3 -2 6 -13 5 -11 0 -14 -3 -6 -6z"/>
<path d="M3490 2206 c0 -20 2 -36 4 -36 8 0 12 61 4 66 -4 3 -8 -11 -8 -30z"/>
<path d="M3738 2233 c7 -3 16 -2 19 1 4 3 -2 6 -13 5 -11 0 -14 -3 -6 -6z"/>
<path d="M3838 2233 c7 -3 16 -2 19 1 4 3 -2 6 -13 5 -11 0 -14 -3 -6 -6z"/>
<path d="M3950 2225 c-15 -18 -10 -45 12 -59 12 -7 21 -7 28 0 8 8 4 10 -11
10 -12 -1 -24 5 -26 12 -3 8 7 12 29 13 l33 2 -35 7 -35 7 25 11 c16 7 19 11
9 11 -9 1 -22 -6 -29 -14z"/>
<path d="M4080 2231 c0 -5 9 -7 20 -4 11 3 20 7 20 9 0 2 -9 4 -20 4 -11 0
-20 -4 -20 -9z"/>
<path d="M4275 2231 c-3 -5 -1 -12 5 -16 5 -3 10 1 10 9 0 18 -6 21 -15 7z"/>
<path d="M1463 2195 c0 -22 2 -30 4 -17 2 12 2 30 0 40 -3 9 -5 -1 -4 -23z"/>
<path d="M3620 2219 c0 -5 5 -7 10 -4 6 3 10 8 10 11 0 2 -4 4 -10 4 -5 0 -10
-5 -10 -11z"/>
<path d="M3875 2220 c3 -5 8 -10 11 -10 2 0 4 5 4 10 0 6 -5 10 -11 10 -5 0
-7 -4 -4 -10z"/>
<path d="M4132 2200 c0 -19 2 -27 5 -17 2 9 2 25 0 35 -3 9 -5 1 -5 -18z"/>
<path d="M2662 2197 c4 -26 34 -45 48 -31 8 8 4 10 -11 10 -37 -2 -34 22 3 26
l33 3 -38 6 c-33 4 -38 3 -35 -14z"/>
<path d="M2470 2202 c0 -4 16 -6 35 -4 19 2 35 6 35 8 0 2 -16 4 -35 4 -19 0
-35 -4 -35 -8z"/>
<path d="M1650 2193 c0 -19 28 -35 50 -28 11 3 20 11 20 16 0 5 -9 4 -21 -3
-17 -11 -22 -10 -35 6 -8 11 -14 15 -14 9z"/>
<path d="M4274 2183 c-10 -16 -15 -16 -35 -4 -23 12 -23 12 -8 -4 19 -20 59
-12 59 11 0 18 -3 18 -16 -3z"/>
<path d="M1550 2182 c0 -16 40 -26 54 -12 8 8 7 10 -7 4 -9 -3 -24 -1 -32 6
-9 8 -15 8 -15 2z"/>
<path d="M2010 2182 c0 -6 -8 -13 -17 -15 -16 -4 -16 -5 -1 -6 18 -1 34 16 24
26 -3 4 -6 1 -6 -5z"/>
<path d="M2890 2180 c0 -5 5 -10 11 -10 5 0 7 5 4 10 -3 6 -8 10 -11 10 -2 0
-4 -4 -4 -10z"/>
<path d="M3185 2180 c-4 -7 -16 -10 -26 -7 -11 3 -17 1 -13 -4 3 -5 11 -9 17
-9 18 0 42 18 35 25 -3 4 -9 1 -13 -5z"/>
<path d="M3409 2178 c15 -20 36 -23 46 -8 3 6 -1 7 -10 4 -8 -4 -23 0 -33 7
-15 13 -16 12 -3 -3z"/>
<path d="M3875 2180 c-3 -5 -1 -10 4 -10 6 0 11 5 11 10 0 6 -2 10 -4 10 -3 0
-8 -4 -11 -10z"/>
<path d="M647 2168 c2 -5 13 -8 23 -8 10 0 21 3 23 8 3 4 -8 7 -23 7 -15 0
-26 -3 -23 -7z"/>
<path d="M828 2168 c5 -5 16 -8 23 -6 8 3 3 7 -10 11 -17 4 -21 3 -13 -5z"/>
<path d="M1098 2168 c5 -5 16 -8 23 -6 8 3 3 7 -10 11 -17 4 -21 3 -13 -5z"/>
<path d="M1238 2168 c5 -5 16 -8 23 -6 8 3 3 7 -10 11 -17 4 -21 3 -13 -5z"/>
<path d="M2075 2170 c-16 -7 -17 -9 -3 -9 9 -1 20 4 23 9 7 11 7 11 -20 0z"/>
<path d="M2188 2168 c5 -5 16 -8 23 -6 8 3 3 7 -10 11 -17 4 -21 3 -13 -5z"/>
<path d="M2488 2168 c5 -5 16 -8 23 -6 8 3 3 7 -10 11 -17 4 -21 3 -13 -5z"/>
<path d="M2935 2170 c-16 -7 -17 -9 -3 -9 9 -1 20 4 23 9 7 11 7 11 -20 0z"/>
<path d="M3007 2168 c2 -5 10 -8 18 -8 8 0 16 3 18 8 3 4 -5 7 -18 7 -13 0
-21 -3 -18 -7z"/>
<path d="M3318 2168 c5 -5 16 -8 23 -6 8 3 3 7 -10 11 -17 4 -21 3 -13 -5z"/>
<path d="M3728 2168 c5 -5 16 -8 23 -6 8 3 3 7 -10 11 -17 4 -21 3 -13 -5z"/>
<path d="M3828 2168 c5 -5 16 -8 23 -6 8 3 3 7 -10 11 -17 4 -21 3 -13 -5z"/>
<path d="M4317 2169 c7 -7 15 -10 18 -7 3 3 -2 9 -12 12 -14 6 -15 5 -6 -5z"/>
<path d="M1977 1903 c-4 -3 -7 -26 -7 -49 0 -51 20 -71 21 -22 0 18 2 43 5 56
4 21 -6 29 -19 15z"/>
<path d="M2142 1868 c-2 -38 -6 -48 -19 -48 -13 0 -14 -3 -5 -12 20 -20 34 5
29 58 l-3 49 -2 -47z"/>
<path d="M2180 1900 c0 -5 9 -10 20 -10 23 0 24 -6 5 -40 -8 -14 -14 -32 -14
-40 0 -17 48 69 49 88 0 7 -12 12 -30 12 -16 0 -30 -4 -30 -10z"/>
<path d="M2270 1895 c-10 -13 -10 -19 5 -34 11 -13 15 -28 10 -43 -6 -23 -6
-23 10 -3 31 39 32 95 2 95 -8 0 -20 -7 -27 -15z m38 -16 c-2 -6 -8 -10 -13
-10 -5 0 -11 4 -13 10 -2 6 4 11 13 11 9 0 15 -5 13 -11z"/>
<path d="M1904 1865 c-17 -32 -17 -36 -2 -51 9 -9 24 -14 32 -11 21 8 20 44
-1 56 -14 8 -15 12 -4 25 7 9 9 16 4 16 -6 0 -18 -16 -29 -35z m34 -33 c2 -7
-3 -12 -12 -12 -9 0 -16 7 -16 16 0 17 22 14 28 -4z"/>
<path d="M428 1869 c31 -12 27 -54 -5 -53 -12 0 -20 -3 -17 -8 3 -4 16 -7 29
-6 22 2 25 7 25 38 0 32 -3 36 -27 37 -27 2 -27 2 -5 -8z"/>
<path d="M558 1873 c7 -3 16 -2 19 1 4 3 -2 6 -13 5 -11 0 -14 -3 -6 -6z"/>
<path d="M678 1873 c7 -3 16 -2 19 1 4 3 -2 6 -13 5 -11 0 -14 -3 -6 -6z"/>
<path d="M846 1871 c-4 -5 3 -7 14 -4 23 6 26 13 6 13 -8 0 -17 -4 -20 -9z"/>
<path d="M1113 1845 c0 -22 2 -30 4 -17 2 12 2 30 0 40 -3 9 -5 -1 -4 -23z"/>
<path d="M1142 1874 c9 -3 19 -13 22 -22 3 -12 4 -12 3 3 -1 12 -10 21 -22 22
-15 1 -15 0 -3 -3z"/>
<path d="M1278 1873 c7 -3 16 -2 19 1 4 3 -2 6 -13 5 -11 0 -14 -3 -6 -6z"/>
<path d="M1378 1873 c7 -3 16 -2 19 1 4 3 -2 6 -13 5 -11 0 -14 -3 -6 -6z"/>
<path d="M1445 1869 c-11 -17 1 -21 15 -4 8 9 8 15 2 15 -6 0 -14 -5 -17 -11z"/>
<path d="M1518 1873 c7 -3 16 -2 19 1 4 3 -2 6 -13 5 -11 0 -14 -3 -6 -6z"/>
<path d="M1672 1868 c-22 -22 -13 -34 23 -30 19 2 35 7 35 11 0 4 -13 6 -30 3
-35 -5 -40 5 -7 18 13 5 16 9 7 9 -9 1 -21 -4 -28 -11z"/>
<path d="M2020 1861 c-5 -11 -7 -26 -4 -35 8 -20 43 -31 57 -17 8 8 5 11 -10
11 -12 0 -25 5 -28 10 -4 6 7 10 24 10 33 0 39 8 19 28 -18 18 -46 14 -58 -7z
m40 -1 c0 -5 -4 -10 -10 -10 -5 0 -10 5 -10 10 0 6 5 10 10 10 6 0 10 -4 10
-10z"/>
<path d="M2340 1879 c0 -12 31 -81 35 -77 12 12 34 78 26 78 -5 0 -13 -10 -17
-22 l-6 -21 -19 24 c-10 13 -19 21 -19 18z"/>
<path d="M2425 1871 c-3 -6 5 -19 17 -30 l22 -21 -23 0 c-12 0 -19 -4 -16 -10
10 -16 35 -12 42 6 4 11 -1 22 -12 30 -17 13 -17 14 -1 14 9 0 14 5 11 10 -8
13 -32 13 -40 1z"/>
<path d="M1020 1848 c0 -4 16 -8 35 -8 19 0 35 2 35 4 0 2 -16 6 -35 8 -19 2
-35 0 -35 -4z"/>
<path d="M830 1842 c0 -4 16 -6 35 -4 19 2 35 6 35 8 0 2 -16 4 -35 4 -19 0
-35 -4 -35 -8z"/>
<path d="M705 1820 c-4 -7 -16 -10 -26 -7 -11 3 -17 1 -13 -4 3 -5 11 -9 17
-9 18 0 42 18 35 25 -3 4 -9 1 -13 -5z"/>
<path d="M1250 1820 c0 -9 39 -25 45 -18 2 2 -7 8 -21 15 -13 6 -24 7 -24 3z"/>
<path d="M1545 1820 c-4 -7 -16 -10 -26 -7 -11 3 -17 1 -13 -4 3 -5 11 -9 17
-9 18 0 42 18 35 25 -3 4 -9 1 -13 -5z"/>
<path d="M547 1808 c2 -5 10 -8 18 -8 8 0 16 3 18 8 3 4 -5 7 -18 7 -13 0 -21
-3 -18 -7z"/>
<path d="M847 1808 c2 -5 10 -8 18 -8 8 0 16 3 18 8 3 4 -5 7 -18 7 -13 0 -21
-3 -18 -7z"/>
<path d="M1055 1810 c-16 -7 -17 -9 -3 -9 9 -1 20 4 23 9 7 11 7 11 -20 0z"/>
<path d="M1367 1808 c2 -5 10 -8 18 -8 8 0 16 3 18 8 3 4 -5 7 -18 7 -13 0
-21 -3 -18 -7z"/>
<path d="M1677 1808 c2 -5 10 -8 18 -8 8 0 16 3 18 8 3 4 -5 7 -18 7 -13 0
-21 -3 -18 -7z"/>
<path d="M333 1803 c9 -2 23 -2 30 0 6 3 -1 5 -18 5 -16 0 -22 -2 -12 -5z"/>
<path d="M320 1536 c0 -2 13 -6 29 -8 17 -2 28 -1 25 4 -5 8 -54 12 -54 4z"/>
<path d="M1372 1510 c0 -19 2 -27 5 -17 2 9 2 25 0 35 -3 9 -5 1 -5 -18z"/>
<path d="M1832 1497 c-2 -39 -6 -49 -24 -57 -13 -5 -16 -9 -8 -9 32 -1 41 15
37 65 l-3 49 -2 -48z"/>
<path d="M590 1510 c0 -5 5 -10 11 -10 5 0 7 5 4 10 -3 6 -8 10 -11 10 -2 0
-4 -4 -4 -10z"/>
<path d="M420 1506 c0 -2 11 -6 25 -8 13 -3 22 -1 19 3 -5 9 -44 13 -44 5z"/>
<path d="M660 1506 c0 -2 9 -6 20 -9 11 -3 20 -1 20 4 0 5 -9 9 -20 9 -11 0
-20 -2 -20 -4z"/>
<path d="M826 1501 c-4 -5 3 -7 14 -4 23 6 26 13 6 13 -8 0 -17 -4 -20 -9z"/>
<path d="M910 1495 c0 -8 2 -15 4 -15 2 0 6 7 10 15 3 8 1 15 -4 15 -6 0 -10
-7 -10 -15z"/>
<path d="M1538 1500 c13 -6 22 -18 22 -30 0 -12 -9 -24 -22 -30 -13 -5 -18 -9
-11 -9 29 -2 43 13 43 43 0 27 -4 32 -27 33 -26 2 -27 1 -5 -7z"/>
<path d="M2021 1494 c0 -11 3 -14 6 -6 3 7 2 16 -1 19 -3 4 -6 -2 -5 -13z"/>
<path d="M2305 1500 c-8 -13 3 -30 18 -30 8 0 7 3 -2 9 -7 5 -10 14 -7 20 4 6
5 11 2 11 -3 0 -8 -4 -11 -10z"/>
<path d="M2528 1503 c7 -3 16 -2 19 1 4 3 -2 6 -13 5 -11 0 -14 -3 -6 -6z"/>
<path d="M2810 1506 c0 -2 9 -6 20 -9 11 -3 18 -1 14 4 -5 9 -34 13 -34 5z"/>
<path d="M3010 1499 c0 -5 5 -7 10 -4 6 3 10 8 10 11 0 2 -4 4 -10 4 -5 0 -10
-5 -10 -11z"/>
<path d="M3095 1499 c-11 -16 -1 -19 13 -3 7 8 8 14 3 14 -5 0 -13 -5 -16 -11z"/>
<path d="M3303 1475 c0 -22 2 -30 4 -17 2 12 2 30 0 40 -3 9 -5 -1 -4 -23z"/>
<path d="M3350 1506 c0 -2 11 -6 25 -8 13 -3 22 -1 19 3 -5 9 -44 13 -44 5z"/>
<path d="M1283 1465 c0 -22 2 -30 4 -17 2 12 2 30 0 40 -3 9 -5 -1 -4 -23z"/>
<path d="M1900 1480 l-35 -7 38 -2 c20 0 37 4 37 9 0 6 -1 9 -2 9 -2 -1 -19
-5 -38 -9z"/>
<path d="M2210 1478 c0 -4 16 -8 35 -8 19 0 35 2 35 4 0 2 -16 6 -35 8 -19 2
-35 0 -35 -4z"/>
<path d="M2530 1480 l-35 -7 38 -2 c20 0 37 4 37 9 0 6 -1 9 -2 9 -2 -1 -19
-5 -38 -9z"/>
<path d="M3180 1480 l-35 -7 38 -2 c20 0 37 4 37 9 0 6 -1 9 -2 9 -2 -1 -19
-5 -38 -9z"/>
<path d="M3116 1466 c4 -11 2 -21 -7 -27 -10 -6 -11 -9 -1 -9 18 0 27 29 13
43 -9 9 -11 8 -5 -7z"/>
<path d="M1370 1458 c0 -17 36 -35 47 -24 4 3 -1 6 -10 6 -9 0 -21 8 -26 18
-9 15 -10 16 -11 0z"/>
<path d="M1094 1449 c-3 -6 -15 -9 -25 -6 -11 3 -17 1 -13 -4 8 -14 30 -11 44
6 7 8 10 15 7 15 -3 0 -9 -5 -13 -11z"/>
<path d="M1170 1443 c-14 -7 -18 -13 -10 -13 17 0 47 17 40 23 -3 2 -16 -2
-30 -10z"/>
<path d="M1670 1443 c-14 -7 -18 -13 -10 -13 17 0 47 17 40 23 -3 2 -16 -2
-30 -10z"/>
<path d="M2020 1451 c0 -20 42 -23 59 -5 15 17 15 17 -2 4 -15 -11 -23 -11
-38 -2 -10 7 -19 8 -19 3z"/>
<path d="M2219 1448 c15 -20 36 -23 46 -8 3 6 -1 7 -10 4 -8 -4 -23 0 -33 7
-15 13 -16 12 -3 -3z"/>
<path d="M2455 1450 c-4 -7 -16 -10 -26 -7 -11 3 -17 1 -13 -4 3 -5 11 -9 17
-9 18 0 42 18 35 25 -3 4 -9 1 -13 -5z"/>
<path d="M2554 1449 c-3 -6 -15 -9 -25 -6 -11 3 -17 1 -13 -4 8 -14 30 -11 44
6 7 8 10 15 7 15 -3 0 -9 -5 -13 -11z"/>
<path d="M2921 1445 c18 -18 59 -13 59 7 0 6 -6 5 -16 -3 -13 -10 -19 -10 -37
0 -21 12 -21 12 -6 -4z"/>
<path d="M3190 1444 c-17 -9 -20 -14 -9 -14 9 0 22 7 29 15 15 18 13 18 -20
-1z"/>
<path d="M3384 1449 c-3 -6 -15 -9 -25 -6 -11 3 -17 1 -13 -4 8 -14 30 -11 44
6 7 8 10 15 7 15 -3 0 -9 -5 -13 -11z"/>
<path d="M828 1438 c5 -5 16 -8 23 -6 8 3 3 7 -10 11 -17 4 -21 3 -13 -5z"/>
<path d="M1905 1440 c-16 -7 -17 -9 -3 -9 9 -1 20 4 23 9 7 11 7 11 -20 0z"/>
<path d="M2825 1440 c-16 -7 -17 -9 -3 -9 9 -1 20 4 23 9 7 11 7 11 -20 0z"/>
<path d="M2308 1433 c7 -3 16 -2 19 1 4 3 -2 6 -13 5 -11 0 -14 -3 -6 -6z"/>
<path d="M80 410 l0 -360 6310 0 6310 0 0 360 0 360 -6310 0 -6310 0 0 -360z
m4832 15 c11 -52 5 -65 -32 -65 -30 0 -30 0 -30 56 0 54 0 55 27 52 23 -2 29
-9 35 -43z m38 35 c0 -5 -4 -10 -10 -10 -5 0 -10 5 -10 10 0 6 5 10 10 10 6 0
10 -4 10 -10z m42 -7 c5 -27 -3 -93 -12 -93 -9 0 -17 66 -12 93 2 9 7 17 12
17 5 0 10 -8 12 -17z m83 7 c-3 -5 -13 -10 -21 -10 -8 0 -12 5 -9 10 3 6 13
10 21 10 8 0 12 -4 9 -10z m458 3 c-8 -3 -13 -24 -13 -54 0 -27 -4 -49 -10
-49 -5 0 -10 22 -10 49 0 30 -5 51 -12 54 -7 3 3 5 22 5 19 0 29 -2 23 -5z
m101 1 c9 -3 16 -10 16 -15 0 -5 -11 -4 -25 3 -32 14 -57 -5 -53 -40 4 -34 32
-51 58 -34 11 7 20 8 20 3 0 -24 -62 -28 -84 -5 -44 44 8 111 68 88z m58 -41
c2 -35 7 -48 18 -48 11 0 16 13 18 48 2 26 8 47 13 47 18 0 6 -92 -13 -104
-30 -19 -53 4 -56 58 -2 26 1 46 7 46 5 0 11 -21 13 -47z m282 31 c19 -18 21
-65 4 -82 -7 -7 -27 -12 -45 -12 l-33 0 0 55 c0 54 0 55 29 55 16 0 37 -7 45
-16z m376 2 c0 -9 12 -16 28 -18 23 -3 27 -8 30 -40 2 -22 -1 -38 -7 -38 -6 0
-11 16 -11 36 0 28 -3 35 -17 32 -12 -2 -19 -14 -21 -36 -5 -53 -22 -36 -22
23 0 30 5 55 10 55 6 0 10 -6 10 -14z m338 -14 c2 -13 -3 -24 -12 -28 -14 -5
-14 -8 1 -30 19 -30 1 -32 -20 -1 l-16 22 0 -22 c-1 -13 -5 -23 -11 -23 -5 0
-10 25 -10 56 l0 55 33 -3 c24 -2 33 -8 35 -26z m572 -27 c0 -54 -1 -55 -28
-55 -34 0 -52 16 -52 46 0 22 17 34 51 34 10 0 19 7 19 15 0 8 2 15 5 15 3 0
5 -25 5 -55z m300 35 c24 -24 25 -38 4 -68 -29 -42 -104 -20 -104 30 0 52 63
75 100 38z m128 -8 c2 -14 -5 -33 -18 -47 l-22 -23 24 -5 c14 -3 9 -5 -16 -6
l-40 -1 27 28 c27 29 35 56 18 67 -6 3 -14 -3 -20 -12 -5 -10 -13 -15 -17 -11
-12 12 18 39 40 36 13 -2 22 -12 24 -26z m81 -2 c13 -38 -1 -80 -27 -80 -27 0
-42 20 -42 55 0 59 50 77 69 25z m81 11 c8 -16 5 -26 -15 -50 l-26 -30 28 -4
c20 -3 15 -4 -16 -6 l-43 -1 31 35 c17 20 31 40 31 45 0 19 -24 22 -36 5 -8
-10 -17 -16 -20 -12 -11 10 16 37 37 37 10 0 23 -9 29 -19z m80 -42 c0 -48
-12 -65 -24 -33 -4 11 -13 14 -27 11 -19 -5 -19 -4 -6 16 8 12 20 32 27 44 20
31 30 19 30 -38z m-2980 -9 c0 -22 -4 -40 -10 -40 -5 0 -10 18 -10 40 0 22 5
40 10 40 6 0 10 -18 10 -40z m150 0 c0 -39 -1 -40 -33 -40 -36 0 -57 15 -57
40 0 25 21 40 57 40 32 0 33 -1 33 -40z m88 20 c5 -13 3 -13 -11 -1 -22 17
-47 7 -47 -19 0 -26 25 -36 47 -19 14 12 16 12 11 -1 -2 -8 -17 -16 -31 -18
-34 -4 -58 37 -37 63 16 19 62 16 68 -5z m90 8 c30 -30 0 -75 -43 -64 -19 5
-25 13 -25 35 0 15 3 31 7 34 11 11 48 8 61 -5z m54 0 c-7 -7 -12 -25 -12 -40
0 -15 -4 -28 -10 -28 -5 0 -10 18 -10 40 0 35 3 40 22 40 17 0 19 -3 10 -12z
m98 -28 c0 -37 -2 -40 -28 -40 -31 0 -52 16 -52 40 0 24 21 40 52 40 26 0 28
-3 28 -40z m650 20 c9 -17 8 -20 -10 -21 -32 -2 -38 -4 -46 -11 -13 -14 26
-20 43 -7 14 12 16 12 11 -1 -6 -21 -52 -24 -68 -5 -10 12 -10 21 -2 40 14 31
56 34 72 5z m52 8 c-7 -7 -12 -25 -12 -40 0 -15 -4 -28 -10 -28 -5 0 -10 18
-10 40 0 35 3 40 22 40 17 0 19 -3 10 -12z m88 -8 c9 -17 8 -20 -12 -20 -13 0
-30 -4 -38 -10 -12 -8 -12 -10 3 -16 9 -3 25 0 34 7 14 12 16 12 11 -1 -8 -24
-55 -25 -68 -1 -15 29 3 61 35 61 14 0 29 -8 35 -20z m95 9 c4 -6 4 -13 0 -17
-3 -3 -10 0 -15 7 -11 19 -40 6 -40 -18 0 -25 18 -37 33 -22 14 14 27 14 27 1
0 -16 -49 -23 -65 -10 -18 15 -19 42 -3 58 15 15 55 16 63 1z m185 -9 c15 -28
-4 -60 -35 -60 -14 0 -29 8 -35 20 -15 28 4 60 35 60 14 0 29 -8 35 -20z m60
9 c0 -5 -4 -7 -10 -4 -15 10 -12 -6 6 -26 9 -10 13 -23 9 -28 -8 -14 -45 -14
-45 -1 0 5 7 7 15 4 8 -4 15 -1 15 5 0 7 -7 14 -15 17 -23 9 -19 44 5 44 11 0
20 -5 20 -11z m218 -6 c15 -28 -3 -63 -32 -63 -32 0 -51 32 -36 60 13 25 56
26 68 3z m68 5 c5 -8 2 -9 -9 -5 -21 8 -22 -1 -1 -24 9 -10 13 -23 9 -28 -8
-14 -45 -14 -45 -1 0 5 7 7 15 4 20 -8 19 5 -1 27 -17 19 -12 39 11 39 8 0 17
-5 21 -12z m82 0 c19 -19 14 -28 -18 -28 -30 0 -40 -13 -20 -25 6 -4 17 -1 25
5 10 8 15 9 15 2 0 -17 -19 -24 -46 -18 -18 5 -24 13 -24 35 0 15 3 31 7 34
11 11 48 8 61 -5z m91 -15 l13 -28 15 28 c8 16 17 27 19 24 6 -6 -25 -77 -34
-77 -4 0 -14 16 -21 36 -15 42 -35 40 -39 -4 -5 -46 -22 -39 -22 8 0 37 2 40
28 40 22 0 32 -7 41 -27z m141 -13 c0 -37 -2 -40 -28 -40 -31 0 -52 16 -52 40
0 24 21 40 52 40 26 0 28 -3 28 -40z m198 3 c3 -28 -1 -33 -23 -39 -29 -7 -55
10 -55 35 0 25 22 42 50 39 20 -2 26 -9 28 -35z m62 26 c0 -6 -7 -9 -15 -5
-20 7 -19 -4 2 -19 21 -16 10 -45 -17 -45 -11 0 -20 5 -20 11 0 6 7 9 15 5 19
-7 19 3 -1 25 -9 10 -13 23 -9 28 8 14 45 14 45 0z m-1583 -25 c-3 -3 -12 -4
-19 -1 -8 3 -5 6 6 6 11 1 17 -2 13 -5z"/>
<path d="M4870 445 c0 -9 5 -15 11 -13 6 2 11 8 11 13 0 5 -5 11 -11 13 -6 2
-11 -4 -11 -13z"/>
<path d="M4870 390 c0 -11 7 -20 15 -20 8 0 15 9 15 20 0 11 -7 20 -15 20 -8
0 -15 -9 -15 -20z"/>
<path d="M5920 415 c0 -45 5 -50 34 -39 19 7 21 55 4 72 -25 25 -38 13 -38
-33z"/>
<path d="M6640 439 c0 -24 23 -21 28 4 2 10 -3 17 -12 17 -10 0 -16 -9 -16
-21z"/>
<path d="M7200 415 c-11 -13 -11 -19 3 -33 20 -19 41 -5 35 24 -4 24 -22 28
-38 9z"/>
<path d="M7484 435 c-16 -24 -16 -27 2 -46 36 -40 89 -4 66 45 -15 33 -47 34
-68 1z m61 -5 c3 -5 -2 -9 -12 -7 -10 1 -19 -2 -20 -8 -1 -5 7 -9 18 -8 11 2
17 -1 14 -7 -3 -6 -17 -10 -31 -10 -19 0 -24 5 -24 25 0 20 5 25 24 25 14 0
28 -4 31 -10z"/>
<path d="M7727 453 c-11 -11 -8 -71 4 -79 14 -8 29 14 29 42 0 23 -23 48 -33
37z"/>
<path d="M5034 416 c-9 -24 4 -48 23 -44 12 2 18 12 18 28 0 29 -32 41 -41 16z"/>
<path d="M5234 416 c-8 -22 3 -49 19 -43 6 2 12 14 12 27 0 27 -22 39 -31 16z"/>
<path d="M5371 417 c-8 -10 -7 -19 4 -33 15 -19 15 -19 30 0 11 14 12 23 4 33
-6 7 -15 13 -19 13 -4 0 -13 -6 -19 -13z"/>
<path d="M6025 420 c-4 -6 5 -10 20 -10 15 0 24 4 20 10 -3 6 -12 10 -20 10
-8 0 -17 -4 -20 -10z"/>
<path d="M6170 420 c0 -5 9 -10 21 -10 11 0 17 5 14 10 -3 6 -13 10 -21 10 -8
0 -14 -4 -14 -10z"/>
<path d="M6444 415 c-8 -21 2 -45 20 -45 17 0 28 24 20 45 -4 8 -13 15 -20 15
-8 0 -17 -7 -20 -15z"/>
<path d="M6730 420 c0 -5 9 -10 21 -10 11 0 17 5 14 10 -3 6 -13 10 -21 10 -8
0 -14 -4 -14 -10z"/>
<path d="M6725 390 c-8 -12 20 -24 35 -15 5 3 10 10 10 16 0 12 -37 12 -45 -1z"/>
<path d="M6885 420 c-3 -5 3 -10 15 -10 12 0 18 5 15 10 -3 6 -10 10 -15 10
-5 0 -12 -4 -15 -10z"/>
<path d="M7107 423 c-11 -10 -8 -41 4 -49 6 -3 18 1 27 9 13 13 13 19 2 31
-14 17 -23 20 -33 9z"/>
<path d="M7304 416 c-8 -22 3 -49 19 -43 6 2 12 14 12 27 0 27 -22 39 -31 16z"/>
</g>
</svg>
