<?xml version="1.0" standalone="no"?>
<!DOCTYPE svg PUBLIC "-//W3C//DTD SVG 20010904//EN"
 "http://www.w3.org/TR/2001/REC-SVG-20010904/DTD/svg10.dtd">
<svg version="1.0" xmlns="http://www.w3.org/2000/svg"
 width="1280.000000pt" height="577.000000pt" viewBox="0 0 1280.000000 577.000000"
 preserveAspectRatio="xMidYMid meet">

<g transform="translate(0.000000,577.000000) scale(0.100000,-0.100000)"
fill="#000000" stroke="none">
<path d="M0 5479 l0 -290 5913 4 c3251 3 5927 8 5945 12 l32 7 0 279 0 279
-5945 0 -5945 0 0 -291z m1164 196 c4 -16 11 -22 21 -19 8 4 15 1 15 -5 0 -6
-8 -12 -17 -12 -17 -1 -17 -2 0 -6 16 -4 16 -7 -4 -34 -15 -21 -25 -27 -33
-20 -8 7 -10 0 -8 -29 10 -104 -147 -140 -193 -45 -9 20 -15 60 -15 99 l0 66
30 0 30 0 0 -69 c0 -60 3 -72 21 -85 14 -9 29 -12 43 -7 18 7 21 17 24 75 2
46 7 69 17 72 8 3 11 13 8 21 -5 13 -2 15 15 11 12 -4 22 -2 22 3 0 19 18 8
24 -16z m-784 -20 c0 -11 -12 -15 -50 -15 l-50 0 0 -90 c0 -53 -4 -90 -10 -90
-6 0 -10 37 -10 90 l0 90 -50 0 c-38 0 -50 4 -50 15 0 12 19 15 110 15 91 0
110 -3 110 -15z m350 -16 c0 -26 -3 -30 -22 -27 -22 3 -23 0 -26 -79 l-3 -83
-29 0 -30 0 0 80 c0 79 0 80 -25 80 -21 0 -25 5 -25 30 l0 30 80 0 80 0 0 -31z
m165 19 c14 -6 25 -14 25 -18 0 -18 -35 -34 -69 -31 -44 3 -64 -15 -59 -56 4
-34 41 -55 74 -43 17 7 26 4 40 -11 17 -18 17 -20 -2 -34 -10 -8 -38 -15 -61
-15 -33 0 -50 6 -75 29 -29 26 -33 35 -33 81 0 46 4 55 33 81 35 32 81 38 127
17z m-461 -54 c12 -16 13 -130 2 -141 -12 -12 -17 5 -20 67 -3 60 -13 79 -43
80 -28 0 -43 -32 -43 -92 0 -43 -3 -59 -12 -56 -9 3 -14 31 -16 83 -3 72 -2
77 16 73 11 -3 26 -1 33 3 19 13 69 2 83 -17z m-302 -51 c3 -62 5 -68 26 -71
39 -6 52 15 52 79 0 47 3 59 15 59 13 0 15 -13 13 -77 l-3 -77 -52 -3 c-44 -3
-54 0 -67 19 -21 30 -22 138 -1 138 11 0 15 -16 17 -67z m148 -128 c0 -6 -26
-10 -59 -10 -38 0 -56 4 -51 10 5 6 31 10 59 10 28 0 51 -4 51 -10z m110 -1
c0 -10 -14 -13 -50 -11 -65 3 -65 22 0 23 35 1 50 -3 50 -12z m286 -25 c46 0
53 -3 44 -14 -8 -10 -18 -11 -35 -5 -13 5 -37 7 -54 5 -23 -3 -31 0 -31 11 0
8 5 12 10 9 6 -4 35 -6 66 -6z m124 -3 c0 -3 -4 -8 -10 -11 -5 -3 -10 -1 -10
4 0 6 5 11 10 11 6 0 10 -2 10 -4z m50 -5 c0 -5 -9 -7 -20 -4 -11 3 -20 7 -20
9 0 2 9 4 20 4 11 0 20 -4 20 -9z m60 -3 c0 -11 -12 -10 -30 2 -12 7 -10 9 8
7 12 0 22 -5 22 -9z m90 2 c0 -5 -7 -10 -15 -10 -8 0 -15 5 -15 10 0 6 7 10
15 10 8 0 15 -4 15 -10z m146 3 c-10 -10 -136 -11 -130 -1 3 5 35 8 71 8 37 0
63 -3 59 -7z m34 3 c0 -3 -4 -8 -10 -11 -5 -3 -10 -1 -10 4 0 6 5 11 10 11 6
0 10 -2 10 -4z m-1016 -18 c-3 -4 -12 -8 -20 -8 -8 0 -13 4 -10 8 3 5 12 9 20
9 8 0 13 -4 10 -9z m91 2 c3 -5 1 -10 -4 -10 -6 0 -11 5 -11 10 0 6 2 10 4 10
3 0 8 -4 11 -10z m79 -2 c-3 -4 -18 -8 -35 -8 -16 0 -29 4 -29 8 0 4 15 8 34
8 19 0 32 -4 30 -8z m106 1 c0 -4 -21 -7 -47 -7 -25 0 -41 3 -35 7 6 4 27 7
47 7 19 0 35 -3 35 -7z"/>
<path d="M9360 3274 c0 -1007 4 -1713 9 -1710 5 3 11 -1 14 -8 7 -18 329 -21
2112 -21 l1230 0 2 1728 3 1727 -1685 0 -1685 0 0 -1716z m2873 1679 l457 -6
0 -1687 0 -1687 -1627 -6 c-896 -3 -1639 -8 -1651 -11 -19 -4 -22 -2 -18 10 3
9 6 776 6 1705 l0 1689 1188 0 c653 0 1393 -3 1645 -7z"/>
<path d="M11722 4407 c-12 -13 -19 -27 -15 -30 7 -8 53 31 53 45 0 15 -16 8
-38 -15z"/>
<path d="M10180 4400 c0 -5 11 -10 25 -10 24 0 25 -2 25 -74 0 -65 -2 -74 -20
-79 -41 -11 -20 -27 35 -27 42 0 55 3 55 15 0 9 -9 15 -25 15 -24 0 -25 2 -25
75 l0 75 30 0 c17 0 30 5 30 10 0 6 -28 10 -65 10 -37 0 -65 -4 -65 -10z"/>
<path d="M10490 4395 c0 -9 5 -15 11 -13 6 2 11 8 11 13 0 5 -5 11 -11 13 -6
2 -11 -4 -11 -13z"/>
<path d="M10706 4401 c-4 -5 -2 -12 3 -15 5 -4 12 -2 15 3 4 5 2 12 -3 15 -5
4 -12 2 -15 -3z"/>
<path d="M11152 4387 c-37 -39 -23 -77 28 -77 61 0 81 -56 27 -75 -22 -7 -35
-6 -57 7 -34 19 -47 12 -23 -14 25 -27 88 -24 118 7 14 13 25 30 25 37 0 27
-31 58 -58 58 -41 0 -60 15 -46 37 8 12 24 18 48 18 49 0 50 19 1 23 -32 2
-45 -2 -63 -21z"/>
<path d="M11596 4401 c-4 -5 -2 -12 3 -15 5 -4 12 -2 15 3 4 5 2 12 -3 15 -5
4 -12 2 -15 -3z"/>
<path d="M11490 4347 c-51 -18 -54 -52 -5 -73 46 -19 41 -40 -9 -37 -26 2 -36
-1 -33 -10 2 -7 22 -12 48 -12 43 0 44 0 44 34 0 30 -4 36 -34 46 -29 9 -31
12 -17 24 10 8 26 11 42 7 21 -6 25 -4 22 10 -4 23 -16 25 -58 11z"/>
<path d="M10340 4280 c0 -40 4 -70 10 -70 6 0 10 15 10 33 0 36 24 77 45 77
10 0 15 -16 17 -52 2 -30 8 -53 16 -56 9 -3 11 10 6 55 -8 71 -22 90 -55 73
-17 -10 -24 -10 -27 -1 -2 6 -8 11 -13 11 -5 0 -9 -31 -9 -70z"/>
<path d="M10485 4295 c-8 -58 -2 -90 15 -80 13 8 13 122 1 130 -5 3 -13 -19
-16 -50z"/>
<path d="M10592 4343 c-16 -6 -42 -56 -42 -81 0 -38 50 -63 94 -46 29 11 17
23 -20 21 -49 -3 -65 20 -40 58 15 22 23 26 47 21 36 -7 39 11 3 24 -14 6 -26
10 -27 9 -1 0 -8 -3 -15 -6z"/>
<path d="M10707 4343 c-11 -10 -8 -123 3 -123 6 0 10 28 10 65 0 65 -1 71 -13
58z"/>
<path d="M10786 4329 c-20 -16 -26 -29 -26 -59 0 -48 15 -60 71 -58 l45 2 -4
56 c-6 78 -35 99 -86 59z m54 -26 c0 -10 3 -28 6 -40 4 -16 0 -23 -16 -28 -42
-13 -67 37 -34 69 21 21 44 20 44 -1z"/>
<path d="M10905 4307 c-8 -55 -4 -89 13 -95 8 -2 12 10 12 42 0 35 5 48 19 56
26 13 31 13 31 -5 0 -8 5 -15 10 -15 13 0 13 47 0 55 -5 3 -19 1 -30 -5 -16
-8 -25 -8 -35 0 -11 9 -15 3 -20 -33z"/>
<path d="M11320 4330 c-29 -29 -30 -86 -2 -107 22 -18 77 -16 92 2 16 19 5 34
-12 17 -16 -16 -53 -15 -67 1 -9 11 -3 17 29 30 47 18 61 44 35 63 -26 19 -52
17 -75 -6z m65 -21 c-8 -13 -56 -32 -63 -25 -3 3 1 12 8 21 14 17 65 21 55 4z"/>
<path d="M11590 4285 c0 -37 4 -65 10 -65 6 0 10 28 10 65 0 37 -4 65 -10 65
-6 0 -10 -28 -10 -65z"/>
<path d="M11675 4325 c-29 -28 -32 -61 -9 -93 18 -27 55 -29 77 -4 23 25 22
85 -1 105 -25 23 -39 21 -67 -8z m63 -38 c6 -50 -37 -77 -58 -38 -16 30 4 73
33 69 16 -2 23 -11 25 -31z"/>
<path d="M11800 4280 c0 -40 4 -70 10 -70 6 0 10 15 10 33 0 37 24 77 46 77
10 0 14 -12 14 -39 0 -45 8 -71 22 -71 13 0 -1 112 -17 128 -10 11 -17 12 -36
2 -17 -10 -24 -10 -27 -1 -2 6 -8 11 -13 11 -5 0 -9 -31 -9 -70z"/>
<path d="M10169 3694 c-9 -11 -6 -13 20 -10 17 2 33 0 36 -4 2 -4 -6 -7 -18
-7 -47 -1 -48 -1 -35 -23 10 -16 19 -19 38 -15 32 8 41 23 29 49 -12 24 -53
30 -70 10z"/>
<path d="M11093 3615 c0 -27 2 -38 4 -22 2 15 2 37 0 50 -2 12 -4 0 -4 -28z"/>
<path d="M10144 3584 c3 -8 0 -13 -6 -11 -7 1 -13 -8 -14 -20 -1 -12 2 -20 7
-18 4 3 10 1 14 -5 4 -6 12 -7 18 -3 19 12 107 11 100 -1 -4 -6 0 -5 9 2 17
13 14 47 -5 59 -7 4 -38 8 -70 9 -45 1 -57 -2 -53 -12z m33 -30 c-3 -3 -12 -4
-19 -1 -8 3 -5 6 6 6 11 1 17 -2 13 -5z m77 -6 c-3 -4 -11 -5 -19 -1 -21 7
-19 12 4 10 11 0 18 -5 15 -9z"/>
<path d="M11821 3100 c-32 -30 -33 -32 -16 -50 21 -23 44 -27 25 -5 -10 12
-10 18 0 30 7 8 9 15 5 15 -5 0 0 9 10 20 27 30 14 24 -24 -10z"/>
<path d="M10161 3108 c-1 -10 -6 -18 -12 -18 -5 0 -7 -4 -4 -10 3 -5 3 -10 -2
-10 -4 0 -8 -17 -8 -37 0 -37 1 -37 42 -41 22 -2 44 1 48 7 3 6 12 11 18 11 7
0 6 -4 -3 -11 -12 -8 -11 -10 5 -7 17 3 20 11 20 53 0 46 -2 50 -25 51 -14 0
-33 -3 -43 -8 -13 -7 -19 -4 -27 14 -6 17 -9 19 -9 6z m53 -32 c-6 -15 12 -16
35 -2 10 7 12 3 6 -15 -10 -31 -5 -28 -54 -32 -30 -3 -45 1 -48 11 -7 17 15
32 35 24 9 -3 13 -1 9 5 -6 9 -1 14 20 22 1 1 0 -5 -3 -13z"/>
<path d="M11935 3104 c4 -11 7 -31 6 -47 -1 -26 -1 -27 19 -10 24 21 26 27 4
19 -13 -5 -14 -4 -6 7 9 10 6 18 -10 31 -20 18 -21 18 -13 0z"/>
<path d="M10708 3103 c7 -3 16 -2 19 1 4 3 -2 6 -13 5 -11 0 -14 -3 -6 -6z"/>
<path d="M10808 3083 c7 -3 16 -2 19 1 4 3 -2 6 -13 5 -11 0 -14 -3 -6 -6z"/>
<path d="M11876 3075 c-2 -7 2 -19 10 -25 8 -7 14 -11 15 -9 6 31 5 38 -6 43
-7 2 -16 -1 -19 -9z"/>
<path d="M10223 2600 c0 -30 2 -43 4 -27 2 15 2 39 0 55 -2 15 -4 2 -4 -28z"/>
<path d="M10412 2620 c0 -19 2 -27 5 -17 2 9 2 25 0 35 -3 9 -5 1 -5 -18z"/>
<path d="M11518 2643 c7 -3 16 -2 19 1 4 3 -2 6 -13 5 -11 0 -14 -3 -6 -6z"/>
<path d="M11005 2620 c3 -5 8 -10 11 -10 2 0 4 5 4 10 0 6 -5 10 -11 10 -5 0
-7 -4 -4 -10z"/>
<path d="M11521 2611 c-23 -18 -22 -41 2 -41 8 0 7 4 -2 9 -12 8 -11 13 10 30
30 25 23 27 -10 2z"/>
<path d="M10323 2585 c0 -22 2 -30 4 -17 2 12 2 30 0 40 -3 9 -5 -1 -4 -23z"/>
<path d="M10354 2605 c-3 -8 -4 -20 -2 -27 3 -7 7 -1 10 15 6 29 1 36 -8 12z"/>
<path d="M10622 2600 c0 -14 2 -19 5 -12 2 6 2 18 0 25 -3 6 -5 1 -5 -13z"/>
<path d="M10744 2605 c-3 -8 -4 -20 -2 -27 3 -7 7 -1 10 15 6 29 1 36 -8 12z"/>
<path d="M10969 2582 c5 -34 6 -35 9 -8 2 16 0 32 -5 37 -5 5 -7 -7 -4 -29z"/>
<path d="M11040 2596 c0 -31 6 -34 13 -6 3 11 1 23 -4 26 -5 3 -9 -6 -9 -20z"/>
<path d="M11135 2610 c3 -5 8 -10 11 -10 2 0 4 5 4 10 0 6 -5 10 -11 10 -5 0
-7 -4 -4 -10z"/>
<path d="M11237 2613 c-16 -15 -5 -23 31 -21 37 1 37 1 4 5 -18 2 -30 9 -27
14 7 10 1 12 -8 2z"/>
<path d="M11320 2585 c0 -19 2 -35 4 -35 2 0 6 16 8 35 2 19 0 35 -4 35 -4 0
-8 -16 -8 -35z"/>
<path d="M11458 2595 c3 -19 -1 -27 -19 -34 -24 -10 -24 -10 4 -8 24 1 27 5
27 34 0 18 -4 33 -9 33 -4 0 -6 -11 -3 -25z"/>
<path d="M11185 2590 c10 -11 20 -20 23 -20 3 0 -3 9 -13 20 -10 11 -20 20
-23 20 -3 0 3 -9 13 -20z"/>
<path d="M10577 2589 c7 -7 15 -10 18 -7 3 3 -2 9 -12 12 -14 6 -15 5 -6 -5z"/>
<path d="M10891 2587 c-1 -10 -11 -22 -23 -27 -16 -6 -18 -9 -7 -9 21 -1 43
24 36 41 -3 8 -6 6 -6 -5z"/>
<path d="M10267 2575 c3 -8 9 -12 14 -9 12 7 11 11 -5 17 -10 4 -13 1 -9 -8z"/>
<path d="M11372 2570 c0 -14 2 -19 5 -12 2 6 2 18 0 25 -3 6 -5 1 -5 -13z"/>
<path d="M10044 2564 c-18 -14 -18 -15 4 -4 12 6 22 13 22 15 0 8 -5 6 -26
-11z"/>
<path d="M10411 2564 c0 -11 3 -14 6 -6 3 7 2 16 -1 19 -3 4 -6 -2 -5 -13z"/>
<path d="M10452 2564 c9 -9 21 -15 27 -13 6 2 -2 10 -17 17 -25 11 -25 11 -10
-4z"/>
<path d="M11092 2564 c9 -9 21 -15 27 -13 6 2 -2 10 -17 17 -25 11 -25 11 -10
-4z"/>
<path d="M10655 2560 c-16 -7 -17 -9 -3 -9 9 -1 20 4 23 9 7 11 7 11 -20 0z"/>
<path d="M11265 2560 c-16 -7 -17 -9 -3 -9 9 -1 20 4 23 9 7 11 7 11 -20 0z"/>
<path d="M10148 2553 c7 -3 16 -2 19 1 4 3 -2 6 -13 5 -11 0 -14 -3 -6 -6z"/>
<path d="M10378 2553 c7 -3 16 -2 19 1 4 3 -2 6 -13 5 -11 0 -14 -3 -6 -6z"/>
<path d="M10768 2553 c7 -3 16 -2 19 1 4 3 -2 6 -13 5 -11 0 -14 -3 -6 -6z"/>
<path d="M10037 2528 c2 -5 10 -8 18 -8 8 0 16 3 18 8 3 4 -5 7 -18 7 -13 0
-21 -3 -18 -7z"/>
<path d="M3360 4660 c0 -67 4 -110 10 -110 6 0 10 43 10 110 0 67 -4 110 -10
110 -6 0 -10 -43 -10 -110z"/>
<path d="M4590 4662 l0 -109 40 -1 c51 -2 80 24 80 73 0 42 -35 71 -75 61 -24
-6 -25 -4 -25 39 0 25 -4 45 -10 45 -6 0 -10 -43 -10 -108z m96 -17 c4 -8 3
-26 0 -40 -5 -21 -12 -25 -41 -25 -33 0 -35 2 -35 33 0 19 3 37 7 40 12 13 64
7 69 -8z"/>
<path d="M6156 4748 c-9 -36 -7 -198 3 -198 14 0 21 40 21 133 0 83 -11 113
-24 65z"/>
<path d="M1453 4753 c-9 -3 -13 -34 -13 -104 0 -110 -1 -109 72 -89 50 14 69
47 40 70 -14 12 -17 21 -11 31 5 8 9 26 9 41 0 38 -56 68 -97 51z m68 -39 c18
-21 0 -48 -35 -52 -24 -3 -26 0 -26 32 0 31 3 36 24 36 13 0 29 -7 37 -16z m8
-93 c22 -14 -5 -41 -40 -41 -24 0 -29 4 -29 25 0 21 5 25 28 25 15 0 33 -4 41
-9z"/>
<path d="M2570 4743 c0 -28 53 -193 62 -193 14 0 95 197 85 207 -12 11 -25
-10 -52 -82 -15 -41 -28 -75 -30 -75 -4 0 -17 42 -35 113 -12 46 -30 64 -30
30z"/>
<path d="M4130 4751 c0 -11 25 -21 50 -21 15 0 19 -12 25 -85 4 -48 11 -85 17
-85 7 0 9 29 6 85 l-6 85 39 0 c40 0 52 13 23 24 -25 9 -154 7 -154 -3z"/>
<path d="M5273 4745 c-88 -61 -80 -209 10 -191 32 6 65 31 56 41 -3 2 -20 -1
-37 -7 -66 -25 -90 24 -47 97 19 34 32 45 50 45 14 0 25 -4 25 -10 0 -5 5 -10
10 -10 6 0 10 11 10 25 0 21 -5 25 -28 25 -15 0 -37 -7 -49 -15z"/>
<path d="M6304 4745 c-4 -9 -4 -46 -1 -83 4 -56 9 -70 32 -89 34 -30 66 -29
95 2 19 21 24 38 28 106 6 98 -13 103 -20 6 -7 -82 -20 -107 -58 -107 -39 0
-50 23 -50 104 0 63 -14 94 -26 61z"/>
<path d="M1610 4740 c0 -5 7 -10 16 -10 8 0 12 5 9 10 -3 6 -10 10 -16 10 -5
0 -9 -4 -9 -10z"/>
<path d="M2755 4740 c-3 -5 1 -10 9 -10 9 0 16 5 16 10 0 6 -4 10 -9 10 -6 0
-13 -4 -16 -10z"/>
<path d="M6650 4740 c0 -5 7 -10 16 -10 8 0 12 5 9 10 -3 6 -10 10 -16 10 -5
0 -9 -4 -9 -10z"/>
<path d="M7265 4740 c-3 -5 1 -10 9 -10 9 0 16 5 16 10 0 6 -4 10 -9 10 -6 0
-13 -4 -16 -10z"/>
<path d="M7735 4740 c-3 -5 1 -10 9 -10 9 0 16 5 16 10 0 6 -4 10 -9 10 -6 0
-13 -4 -16 -10z"/>
<path d="M1706 4733 c-3 -3 -6 -15 -6 -25 0 -10 -7 -18 -15 -18 -22 0 -18 -17
5 -23 17 -4 20 -14 20 -61 0 -31 5 -56 10 -56 6 0 10 27 10 60 0 53 2 60 20
60 11 0 20 5 20 10 0 6 -9 10 -20 10 -13 0 -20 7 -20 19 0 21 -13 34 -24 24z"/>
<path d="M2980 4716 c0 -19 -5 -26 -20 -26 -11 0 -20 -4 -20 -9 0 -5 9 -11 20
-14 17 -4 20 -14 20 -61 0 -31 5 -56 10 -56 6 0 10 25 10 56 0 47 3 57 20 61
11 3 20 9 20 14 0 5 -9 9 -20 9 -13 0 -20 7 -20 19 0 11 -4 23 -10 26 -6 4
-10 -5 -10 -19z"/>
<path d="M4910 4730 c0 -5 7 -10 15 -10 8 0 15 5 15 10 0 6 -7 10 -15 10 -8 0
-15 -4 -15 -10z"/>
<path d="M7360 4715 c0 -18 -5 -25 -20 -25 -26 0 -26 -16 -1 -23 16 -4 20 -15
23 -56 4 -68 22 -66 26 4 3 47 6 55 22 55 11 0 20 5 20 10 0 6 -11 10 -25 10
-20 0 -25 5 -25 25 0 14 -4 25 -10 25 -5 0 -10 -11 -10 -25z"/>
<path d="M3506 4692 c-9 -14 6 -212 15 -206 5 3 9 18 9 35 0 24 4 29 24 29 49
0 78 58 54 107 -10 21 -21 28 -43 28 -17 0 -35 4 -42 8 -6 4 -14 3 -17 -1z
m82 -69 c-3 -33 -7 -38 -30 -41 -26 -3 -28 -1 -28 31 0 40 6 47 37 47 22 0 24
-4 21 -37z"/>
<path d="M5520 4625 c0 -43 4 -75 10 -75 6 0 10 17 10 38 0 34 22 72 42 72 3
0 8 -27 12 -60 5 -39 11 -58 18 -54 6 4 8 25 4 55 -6 42 -4 48 15 54 26 9 29
6 35 -41 8 -56 13 -69 23 -58 5 5 5 34 -1 67 -11 61 -27 78 -57 60 -11 -7 -21
-7 -33 1 -13 8 -22 6 -37 -8 -21 -19 -21 -19 -21 2 0 12 -4 22 -10 22 -6 0
-10 -32 -10 -75z"/>
<path d="M7152 4685 c-45 -20 -42 -55 6 -67 19 -5 32 -15 32 -25 0 -13 -8 -15
-40 -10 -29 4 -40 1 -40 -8 0 -30 93 -28 105 2 8 22 -21 63 -45 63 -27 0 -25
16 2 31 16 9 23 9 26 0 6 -19 22 -12 22 9 0 24 -21 25 -68 5z"/>
<path d="M1605 4636 c-4 -30 -4 -59 0 -65 16 -26 25 -6 25 54 0 79 -16 86 -25
11z"/>
<path d="M1815 4665 c-29 -28 -33 -76 -8 -96 9 -8 35 -14 58 -14 l43 0 -6 60
c-3 33 -10 63 -16 67 -21 14 -47 8 -71 -17z m65 -45 c0 -38 -2 -40 -29 -40
-21 0 -32 6 -36 20 -9 29 12 60 40 60 22 0 25 -4 25 -40z"/>
<path d="M1961 4669 c-30 -33 -32 -68 -5 -96 26 -26 32 -27 70 -13 34 13 24
23 -24 24 -31 1 -38 5 -40 24 -5 33 17 54 50 50 30 -5 40 15 12 26 -27 10 -43
7 -63 -15z"/>
<path d="M2091 4664 c-26 -34 -27 -68 -1 -94 24 -24 38 -25 68 -4 30 21 32 98
3 114 -31 16 -48 12 -70 -16z m67 -41 c-3 -33 -7 -38 -29 -41 -30 -3 -41 19
-28 56 6 15 17 22 34 22 24 0 26 -3 23 -37z"/>
<path d="M2220 4620 c0 -40 4 -70 10 -70 6 0 10 19 10 43 0 24 5 48 12 55 17
17 48 15 48 -4 0 -8 5 -12 10 -9 15 9 12 45 -4 51 -8 3 -25 0 -37 -7 -17 -9
-24 -9 -27 0 -2 6 -8 11 -13 11 -5 0 -9 -31 -9 -70z"/>
<path d="M2366 4669 c-18 -14 -26 -30 -26 -52 0 -50 13 -62 68 -63 l48 -1 -4
61 c-6 80 -32 97 -86 55z m60 -46 c-1 -35 -3 -38 -31 -38 -24 0 -31 5 -33 23
-4 29 14 52 43 52 19 0 22 -5 21 -37z"/>
<path d="M2750 4625 c0 -37 4 -65 10 -65 6 0 10 28 10 65 0 37 -4 65 -10 65
-6 0 -10 -28 -10 -65z"/>
<path d="M2820 4621 c0 -79 17 -98 22 -25 4 56 30 81 53 51 16 -22 29 -6 20
23 -7 21 -30 26 -55 10 -9 -5 -19 -5 -27 2 -10 8 -13 -4 -13 -61z"/>
<path d="M3076 4683 c-9 -10 -7 -96 4 -113 5 -9 27 -15 55 -16 l45 -2 0 69 c0
81 -18 94 -22 17 -3 -49 -5 -53 -30 -56 -22 -3 -29 2 -34 22 -3 14 -3 37 0 50
6 24 -5 42 -18 29z"/>
<path d="M3231 4673 c-28 -24 -37 -72 -18 -98 11 -14 27 -20 60 -20 l45 0 -4
59 c-1 35 -8 62 -16 67 -21 14 -44 10 -67 -8z m59 -53 c0 -38 -2 -40 -30 -40
-26 0 -30 4 -30 28 0 32 16 52 42 52 14 0 18 -8 18 -40z"/>
<path d="M3666 4669 c-18 -14 -26 -30 -26 -52 0 -50 13 -62 68 -62 l50 0 -6
60 c-7 80 -33 96 -86 54z m64 -49 c0 -38 -2 -40 -30 -40 -36 0 -48 21 -32 56
8 16 20 24 37 24 23 0 25 -4 25 -40z"/>
<path d="M3790 4620 c0 -40 4 -70 10 -70 6 0 10 19 10 43 0 24 5 48 12 55 17
17 48 15 48 -4 0 -8 5 -12 10 -9 15 9 12 45 -4 51 -8 3 -25 0 -37 -7 -17 -9
-24 -9 -27 0 -2 6 -8 11 -13 11 -5 0 -9 -31 -9 -70z"/>
<path d="M3930 4670 c-23 -23 -28 -94 -7 -107 6 -4 33 -8 60 -9 44 -1 47 1 40
20 -4 12 -7 39 -6 61 1 22 -4 43 -10 47 -22 14 -57 8 -77 -12z m60 -40 c0 -16
0 -33 0 -37 0 -5 -12 -8 -27 -8 -22 0 -29 5 -31 23 -4 28 14 52 39 52 14 0 19
-7 19 -30z"/>
<path d="M4320 4620 c0 -40 4 -70 10 -70 6 0 10 19 10 43 0 24 5 48 12 55 17
17 48 15 48 -4 0 -8 5 -12 10 -9 15 9 12 45 -3 51 -8 3 -26 0 -40 -5 -17 -7
-27 -7 -27 -1 0 6 -4 10 -10 10 -6 0 -10 -30 -10 -70z"/>
<path d="M4475 4678 c-29 -16 -35 -28 -35 -70 0 -44 11 -52 71 -54 l45 -1 -4
61 c-6 75 -27 93 -77 64z m50 -56 c0 -34 -2 -37 -30 -37 -24 0 -31 5 -33 23
-4 29 14 52 42 52 18 0 21 -6 21 -38z"/>
<path d="M4759 4671 c-30 -24 -32 -87 -4 -107 24 -18 102 -11 95 8 -2 7 -4 33
-5 58 0 25 -4 48 -10 52 -18 13 -52 8 -76 -11z m61 -52 c0 -38 -1 -40 -27 -37
-48 5 -40 78 8 78 16 0 19 -8 19 -41z"/>
<path d="M4920 4595 c0 -91 -8 -114 -28 -79 -5 9 -14 15 -21 13 -18 -6 17 -49
39 -49 33 0 42 33 34 125 -4 47 -11 85 -15 85 -5 0 -9 -43 -9 -95z"/>
<path d="M5008 4673 c-49 -56 -13 -139 50 -118 20 6 42 45 42 73 0 51 -61 80
-92 45z m65 -35 c8 -29 -9 -58 -34 -58 -24 0 -33 21 -25 55 8 33 51 35 59 3z"/>
<path d="M5396 4674 c-57 -56 -5 -152 59 -110 20 13 25 25 25 56 0 61 -47 91
-84 54z m59 -54 c0 -30 -3 -35 -27 -38 -19 -2 -28 2 -33 17 -9 30 12 63 38 59
18 -2 22 -10 22 -38z"/>
<path d="M5725 4670 c-3 -11 -3 -40 1 -65 7 -48 14 -52 77 -53 27 0 27 0 27
69 0 39 -4 69 -10 69 -5 0 -10 -25 -10 -55 0 -54 0 -55 -30 -55 -30 0 -30 1
-30 55 0 55 -13 73 -25 35z"/>
<path d="M5868 4636 c-4 -62 0 -86 13 -86 5 0 9 17 9 38 1 41 19 72 44 72 13
0 16 -10 16 -49 0 -28 4 -52 9 -56 15 -9 18 5 13 67 -4 62 -22 79 -62 58 -13
-7 -20 -7 -20 0 0 5 -4 10 -9 10 -5 0 -11 -24 -13 -54z"/>
<path d="M6035 4678 c-29 -16 -35 -28 -35 -70 0 -44 11 -52 71 -54 l45 -1 -4
61 c-6 75 -27 93 -77 64z m47 -43 c0 -14 1 -31 2 -37 1 -8 -11 -13 -29 -13
-24 0 -31 5 -33 23 -4 28 14 52 39 52 13 0 19 -8 21 -25z"/>
<path d="M6500 4620 c0 -40 4 -70 10 -70 6 0 10 15 10 33 0 37 24 77 46 77 10
0 14 -12 14 -42 0 -42 13 -78 24 -67 4 3 3 34 0 68 -8 68 -22 83 -57 61 -15
-9 -22 -10 -25 -1 -2 6 -8 11 -13 11 -5 0 -9 -31 -9 -70z"/>
<path d="M6650 4625 c0 -37 4 -65 10 -65 6 0 10 28 10 65 0 37 -4 65 -10 65
-6 0 -10 -28 -10 -65z"/>
<path d="M6710 4678 c0 -19 35 -107 47 -119 7 -7 18 9 36 51 29 66 32 80 18
80 -5 0 -17 -20 -26 -45 -10 -24 -21 -43 -25 -40 -3 2 -12 22 -20 44 -13 39
-30 55 -30 29z"/>
<path d="M6860 4668 c-42 -45 -14 -118 45 -118 27 0 67 28 59 42 -4 6 -10 6
-17 -1 -13 -13 -73 -15 -81 -3 -3 5 15 18 39 30 30 14 45 28 45 41 0 36 -59
42 -90 9z m70 -13 c0 -8 -62 -37 -67 -31 -11 11 20 36 43 36 13 0 24 -2 24 -5z"/>
<path d="M6995 4678 c-9 -24 -1 -123 10 -123 6 0 11 20 13 45 2 24 9 48 15 52
19 12 37 9 37 -7 0 -8 5 -15 10 -15 16 0 12 50 -4 56 -8 3 -23 1 -34 -5 -13
-7 -22 -7 -30 1 -8 8 -13 7 -17 -4z"/>
<path d="M7260 4625 c0 -37 4 -65 10 -65 6 0 10 28 10 65 0 37 -4 65 -10 65
-6 0 -10 -28 -10 -65z"/>
<path d="M7482 4683 c-21 -8 -43 -61 -36 -88 8 -33 32 -45 80 -40 27 2 38 8
35 17 -3 7 -5 33 -5 58 0 25 -5 48 -11 52 -11 9 -43 9 -63 1z m48 -53 c0 -16
0 -33 0 -37 0 -5 -12 -8 -27 -8 -22 0 -29 5 -31 23 -4 28 14 52 39 52 14 0 19
-7 19 -30z"/>
<path d="M7595 4668 c-9 -35 -2 -113 10 -113 6 0 11 18 13 40 2 22 8 45 14 52
14 18 38 16 38 -2 0 -8 5 -15 10 -15 16 0 12 50 -4 56 -8 3 -23 1 -34 -5 -13
-7 -22 -7 -30 1 -8 8 -13 4 -17 -14z"/>
<path d="M7730 4625 c0 -37 4 -65 10 -65 6 0 10 28 10 65 0 37 -4 65 -10 65
-6 0 -10 -28 -10 -65z"/>
<path d="M7811 4664 c-26 -34 -27 -68 -1 -94 41 -41 95 -8 93 56 -2 66 -54 87
-92 38z m67 -41 c-3 -33 -7 -38 -29 -41 -30 -3 -41 19 -28 56 6 15 17 22 34
22 24 0 26 -3 23 -37z"/>
<path d="M2500 4396 c4 -4 16 -4 26 2 16 9 14 10 -8 9 -15 -1 -23 -6 -18 -11z"/>
<path d="M2550 4398 c0 -10 4277 -10 4283 0 3 4 -960 7 -2139 7 -1179 0 -2144
-3 -2144 -7z"/>
<path d="M2549 4158 c-3 -7 -2 -31 1 -53 l6 -40 5 43 c5 42 -4 77 -12 50z"/>
<path d="M3403 4120 c0 -30 2 -43 4 -27 2 15 2 39 0 55 -2 15 -4 2 -4 -28z"/>
<path d="M3729 4153 c-1 -10 0 -28 1 -41 1 -15 -6 -25 -22 -31 -22 -10 -22
-10 5 -8 25 1 27 4 27 49 0 45 -9 69 -11 31z"/>
<path d="M4560 4120 c0 -29 2 -51 4 -49 8 8 10 88 3 95 -4 4 -7 -17 -7 -46z"/>
<path d="M5659 4153 c-1 -10 0 -28 1 -41 1 -15 -6 -25 -22 -31 -22 -10 -22
-10 5 -8 25 1 27 4 27 49 0 45 -9 69 -11 31z"/>
<path d="M5910 4120 c0 -29 2 -51 4 -49 8 8 10 88 3 95 -4 4 -7 -17 -7 -46z"/>
<path d="M6742 4145 c0 -16 2 -22 5 -12 2 9 2 23 0 30 -3 6 -5 -1 -5 -18z"/>
<path d="M6950 4120 c0 -29 2 -51 4 -49 8 8 10 88 3 95 -4 4 -7 -17 -7 -46z"/>
<path d="M2307 4153 c-2 -5 -1 -19 4 -33 7 -23 7 -23 8 8 1 31 -3 40 -12 25z"/>
<path d="M2370 4146 c0 -2 7 -7 16 -10 8 -3 12 -2 9 4 -6 10 -25 14 -25 6z"/>
<path d="M2460 4146 c0 -2 7 -7 16 -10 8 -3 12 -2 9 4 -6 10 -25 14 -25 6z"/>
<path d="M2599 4133 c-13 -17 -13 -17 6 -3 11 8 22 16 24 17 2 2 0 3 -6 3 -6
0 -17 -8 -24 -17z"/>
<path d="M3017 4139 c7 -7 15 -10 18 -7 3 3 -2 9 -12 12 -14 6 -15 5 -6 -5z"/>
<path d="M3069 4133 c-13 -17 -13 -17 6 -3 11 8 22 16 24 17 2 2 0 3 -6 3 -6
0 -17 -8 -24 -17z"/>
<path d="M3163 4143 c-7 -2 -13 -9 -13 -15 0 -6 6 -6 15 2 20 17 35 4 36 -33
2 -31 2 -31 6 -4 3 16 -1 35 -8 43 -12 15 -16 16 -36 7z"/>
<path d="M3341 4147 c2 -1 13 -9 24 -17 19 -14 19 -14 6 3 -7 9 -18 17 -24 17
-6 0 -8 -1 -6 -3z"/>
<path d="M3440 4135 c-19 -22 -8 -25 13 -3 9 10 13 18 8 18 -5 0 -14 -7 -21
-15z"/>
<path d="M3679 4133 c-13 -17 -13 -17 6 -3 11 8 22 16 24 17 2 2 0 3 -6 3 -6
0 -17 -8 -24 -17z"/>
<path d="M3770 4135 c-19 -22 -8 -25 13 -3 9 10 13 18 8 18 -5 0 -14 -7 -21
-15z"/>
<path d="M3950 4135 c-15 -18 -10 -45 12 -59 14 -8 21 -7 35 9 16 17 17 18 1
6 -19 -14 -48 -9 -48 9 0 5 14 10 30 10 32 0 37 9 18 28 -16 16 -33 15 -48 -3z
m45 -5 c4 -6 -5 -10 -20 -10 -15 0 -24 4 -20 10 3 6 12 10 20 10 8 0 17 -4 20
-10z"/>
<path d="M4039 4133 c-13 -17 -13 -17 6 -3 11 8 22 16 24 17 2 2 0 3 -6 3 -6
0 -17 -8 -24 -17z"/>
<path d="M4243 4143 c-8 -3 -12 -20 -12 -41 l2 -37 6 34 c7 41 28 51 39 20 l9
-23 5 22 c4 12 2 20 -2 17 -5 -3 -11 -1 -15 5 -7 11 -13 11 -32 3z"/>
<path d="M4410 4146 c0 -2 7 -7 16 -10 8 -3 12 -2 9 4 -6 10 -25 14 -25 6z"/>
<path d="M4609 4133 c-13 -17 -13 -17 6 -3 11 8 22 16 24 17 2 2 0 3 -6 3 -6
0 -17 -8 -24 -17z"/>
<path d="M4732 4138 c-24 -24 -6 -69 28 -67 9 0 6 4 -7 9 -27 11 -30 45 -5 59
9 6 12 11 7 11 -6 0 -16 -5 -23 -12z"/>
<path d="M4889 4133 c-13 -17 -13 -17 6 -3 11 8 22 16 24 17 2 2 0 3 -6 3 -6
0 -17 -8 -24 -17z"/>
<path d="M4973 4135 c-3 -9 -3 -18 -1 -21 3 -3 8 4 11 16 6 23 -1 27 -10 5z"/>
<path d="M5245 4140 c3 -5 8 -10 11 -10 2 0 4 5 4 10 0 6 -5 10 -11 10 -5 0
-7 -4 -4 -10z"/>
<path d="M5456 4136 c10 -8 21 -12 24 -10 5 6 -21 24 -34 24 -6 0 -1 -6 10
-14z"/>
<path d="M5515 4130 c-26 -28 -15 -31 12 -3 12 13 19 23 14 23 -4 0 -16 -9
-26 -20z"/>
<path d="M5609 4133 c-13 -17 -13 -17 6 -3 11 8 22 16 24 17 2 2 0 3 -6 3 -6
0 -17 -8 -24 -17z"/>
<path d="M5739 4138 c12 -16 11 -18 -13 -18 -19 0 -25 4 -20 13 5 9 4 9 -5 1
-17 -15 -11 -44 11 -58 14 -8 21 -7 35 9 16 17 17 18 1 6 -19 -14 -48 -9 -48
9 0 5 14 10 30 10 34 0 38 11 13 31 -16 13 -17 12 -4 -3z"/>
<path d="M5993 4139 c21 -12 22 -48 2 -55 -8 -4 -23 0 -33 7 -15 13 -16 12 -3
-3 7 -10 24 -17 37 -16 20 2 24 8 24 34 0 20 -6 34 -16 38 -24 9 -31 7 -11 -5z"/>
<path d="M6053 4143 c-8 -3 -12 -20 -12 -41 2 -34 2 -35 6 -7 3 17 9 36 15 43
11 13 10 13 -9 5z"/>
<path d="M6126 4135 c18 -14 18 -14 -9 -15 -20 0 -26 4 -21 13 5 9 4 9 -5 1
-17 -15 -11 -44 11 -58 14 -8 21 -7 35 9 16 17 17 18 1 6 -19 -14 -48 -9 -48
9 0 5 14 10 30 10 17 0 30 4 30 8 0 11 -22 32 -34 32 -5 0 -1 -7 10 -15z"/>
<path d="M6180 4135 c-6 -8 -10 -22 -7 -32 4 -14 5 -14 6 4 0 12 9 27 19 32 9
6 12 11 6 11 -6 0 -17 -7 -24 -15z"/>
<path d="M6490 4146 c0 -2 7 -7 16 -10 8 -3 12 -2 9 4 -6 10 -25 14 -25 6z"/>
<path d="M6630 4146 c0 -2 8 -10 18 -17 15 -13 16 -12 3 4 -13 16 -21 21 -21
13z"/>
<path d="M6692 4138 c-16 -16 -15 -43 1 -56 18 -15 57 -11 57 6 0 12 -3 12
-15 2 -8 -7 -22 -10 -30 -6 -20 7 -19 43 3 55 9 6 12 11 7 11 -6 0 -16 -5 -23
-12z"/>
<path d="M6869 4133 c-13 -16 -12 -17 4 -4 16 13 21 21 13 21 -2 0 -10 -8 -17
-17z"/>
<path d="M6999 4133 c-13 -17 -13 -17 6 -3 11 8 22 16 24 17 2 2 0 3 -6 3 -6
0 -17 -8 -24 -17z"/>
<path d="M2430 4103 c0 -43 5 -41 13 5 4 18 2 32 -3 32 -6 0 -10 -16 -10 -37z"/>
<path d="M2803 4124 c-8 -22 9 -48 33 -51 14 -2 12 0 -5 7 -18 8 -22 16 -19
35 6 28 1 33 -9 9z"/>
<path d="M2973 4124 c-8 -22 9 -48 33 -51 14 -2 12 0 -5 7 -18 8 -22 16 -19
35 6 28 1 33 -9 9z"/>
<path d="M3273 4105 c0 -22 2 -30 4 -17 2 12 2 30 0 40 -3 9 -5 -1 -4 -23z"/>
<path d="M3486 4125 c4 -8 8 -15 10 -15 2 0 4 7 4 15 0 8 -4 15 -10 15 -5 0
-7 -7 -4 -15z"/>
<path d="M3818 4115 c5 -30 -20 -44 -46 -24 -15 13 -16 12 -3 -3 7 -10 24 -17
37 -16 20 2 24 8 24 35 0 18 -4 33 -9 33 -4 0 -6 -11 -3 -25z"/>
<path d="M4085 4130 c3 -5 8 -10 11 -10 2 0 4 5 4 10 0 6 -5 10 -11 10 -5 0
-7 -4 -4 -10z"/>
<path d="M4122 4115 c0 -16 2 -22 5 -12 2 9 2 23 0 30 -3 6 -5 -1 -5 -18z"/>
<path d="M4203 4105 c0 -22 2 -30 4 -17 2 12 2 30 0 40 -3 9 -5 -1 -4 -23z"/>
<path d="M4470 4105 c0 -19 2 -35 4 -35 2 0 6 16 8 35 2 19 0 35 -4 35 -4 0
-8 -16 -8 -35z"/>
<path d="M4775 4130 c3 -5 8 -10 11 -10 2 0 4 5 4 10 0 6 -5 10 -11 10 -5 0
-7 -4 -4 -10z"/>
<path d="M4938 4115 c3 -19 -1 -27 -19 -34 -24 -10 -24 -10 4 -8 24 1 27 5 27
34 0 18 -4 33 -9 33 -4 0 -6 -11 -3 -25z"/>
<path d="M5065 4129 c-4 -6 -5 -12 -2 -15 2 -3 7 2 10 11 7 17 1 20 -8 4z"/>
<path d="M5116 4125 c4 -8 8 -15 10 -15 2 0 4 7 4 15 0 8 -4 15 -10 15 -5 0
-7 -7 -4 -15z"/>
<path d="M5568 4115 c3 -19 -1 -27 -19 -34 -24 -10 -24 -10 4 -8 24 1 27 5 27
34 0 18 -4 33 -9 33 -4 0 -6 -11 -3 -25z"/>
<path d="M5955 4129 c-4 -6 -5 -12 -2 -15 2 -3 7 2 10 11 7 17 1 20 -8 4z"/>
<path d="M6228 4115 c3 -19 -1 -27 -19 -34 -24 -10 -24 -10 4 -8 24 1 27 5 27
34 0 18 -4 33 -9 33 -4 0 -6 -11 -3 -25z"/>
<path d="M6260 4127 c0 -8 7 -17 15 -21 20 -7 19 -24 -2 -29 -16 -4 -16 -5 -1
-6 27 -2 31 17 9 45 -14 18 -21 22 -21 11z"/>
<path d="M6460 4098 c0 -23 3 -39 6 -35 9 9 11 77 2 77 -5 0 -8 -19 -8 -42z"/>
<path d="M6553 4105 c0 -22 2 -30 4 -17 2 12 2 30 0 40 -3 9 -5 -1 -4 -23z"/>
<path d="M6832 4120 c0 -14 2 -19 5 -12 2 6 2 18 0 25 -3 6 -5 1 -5 -13z"/>
<path d="M2222 4110 c0 -14 2 -19 5 -12 2 6 2 18 0 25 -3 6 -5 1 -5 -13z"/>
<path d="M2733 4113 c9 -2 25 -2 35 0 9 3 1 5 -18 5 -19 0 -27 -2 -17 -5z"/>
<path d="M3121 4107 c-1 -10 -11 -22 -23 -27 -16 -6 -18 -9 -7 -9 21 -1 43 24
36 41 -3 8 -6 6 -6 -5z"/>
<path d="M4332 4095 c0 -16 2 -22 5 -12 2 9 2 23 0 30 -3 6 -5 -1 -5 -18z"/>
<path d="M4382 4104 c2 -9 11 -22 20 -28 14 -8 21 -7 35 9 16 17 17 18 1 6
-18 -14 -48 -9 -48 8 0 5 15 12 33 14 31 4 31 4 -6 5 -31 2 -38 -1 -35 -14z"/>
<path d="M4661 4107 c-1 -10 -11 -22 -23 -27 -16 -6 -18 -9 -7 -9 21 -1 43 24
36 41 -3 8 -6 6 -6 -5z"/>
<path d="M5151 4110 c-2 -31 48 -55 63 -31 3 4 -6 6 -19 3 -19 -3 -27 1 -34
19 -6 14 -10 18 -10 9z"/>
<path d="M6591 4109 c-1 -21 24 -43 41 -36 8 3 6 6 -5 6 -10 1 -22 11 -27 24
-6 15 -9 17 -9 6z"/>
<path d="M7051 4107 c-1 -10 -11 -22 -23 -27 -16 -6 -18 -9 -7 -9 21 -1 43 24
36 41 -3 8 -6 6 -6 -5z"/>
<path d="M3310 4104 c0 -17 27 -37 42 -31 8 4 7 6 -4 6 -9 1 -22 9 -27 19 -6
9 -11 12 -11 6z"/>
<path d="M3578 4087 c4 -14 7 -16 13 -5 12 19 11 25 -5 25 -8 0 -11 -8 -8 -20z"/>
<path d="M2260 4091 c0 -5 5 -13 10 -16 6 -3 10 -2 10 4 0 5 -4 13 -10 16 -5
3 -10 2 -10 -4z"/>
<path d="M3470 4084 l-25 -14 28 2 c15 1 27 8 27 15 0 7 -1 13 -2 12 -2 -1
-14 -7 -28 -15z"/>
<path d="M4070 4083 c-14 -7 -18 -13 -10 -13 17 0 47 17 40 23 -3 2 -16 -2
-30 -10z"/>
<path d="M5072 4084 c9 -9 21 -15 27 -13 6 2 -2 10 -17 17 -25 11 -25 11 -10
-4z"/>
<path d="M5335 4090 c-3 -5 -1 -10 4 -10 6 0 11 5 11 10 0 6 -2 10 -4 10 -3 0
-8 -4 -11 -10z"/>
<path d="M6368 4075 c-3 -13 -2 -22 2 -20 11 7 20 45 10 45 -4 0 -10 -11 -12
-25z"/>
<path d="M2358 4078 c5 -5 16 -8 23 -6 8 3 3 7 -10 11 -17 4 -21 3 -13 -5z"/>
<path d="M2625 4080 c-16 -7 -17 -9 -3 -9 9 -1 20 4 23 9 7 11 7 11 -20 0z"/>
<path d="M2728 4078 c5 -5 16 -8 23 -6 8 3 3 7 -10 11 -17 4 -21 3 -13 -5z"/>
<path d="M3900 4080 c-9 -6 -10 -10 -3 -10 6 0 15 5 18 10 8 12 4 12 -15 0z"/>
<path d="M6787 4078 c2 -5 10 -8 18 -8 8 0 16 3 18 8 3 4 -5 7 -18 7 -13 0
-21 -3 -18 -7z"/>
<path d="M6895 4080 c-16 -7 -17 -9 -3 -9 9 -1 20 4 23 9 7 11 7 11 -20 0z"/>
<path d="M7090 4080 c-9 -6 -10 -10 -3 -10 6 0 15 5 18 10 8 12 4 12 -15 0z"/>
<path d="M4978 4073 c7 -3 16 -2 19 1 4 3 -2 6 -13 5 -11 0 -14 -3 -6 -6z"/>
<path d="M2230 3930 c0 -33 -4 -42 -22 -50 -22 -8 -21 -9 5 -7 25 1 27 4 27
49 0 26 -2 48 -5 48 -3 0 -5 -18 -5 -40z"/>
<path d="M2743 3920 c0 -30 2 -43 4 -27 2 15 2 39 0 55 -2 15 -4 2 -4 -28z"/>
<path d="M3163 3920 c0 -30 2 -43 4 -27 2 15 2 39 0 55 -2 15 -4 2 -4 -28z"/>
<path d="M4283 3920 c0 -30 2 -43 4 -27 2 15 2 39 0 55 -2 15 -4 2 -4 -28z"/>
<path d="M5843 3920 c0 -30 2 -43 4 -27 2 15 2 39 0 55 -2 15 -4 2 -4 -28z"/>
<path d="M6123 3920 c0 -30 2 -43 4 -27 2 15 2 39 0 55 -2 15 -4 2 -4 -28z"/>
<path d="M6298 3953 c-2 -10 -1 -34 3 -53 6 -31 6 -30 8 18 1 52 -3 67 -11 35z"/>
<path d="M7023 3920 c0 -30 2 -43 4 -27 2 15 2 39 0 55 -2 15 -4 2 -4 -28z"/>
<path d="M4883 3925 c0 -22 2 -30 4 -17 2 12 2 30 0 40 -3 9 -5 -1 -4 -23z"/>
<path d="M2267 3933 c-16 -15 -5 -23 31 -21 37 1 37 1 4 5 -18 2 -30 9 -27 14
7 10 1 12 -8 2z"/>
<path d="M2414 3925 c-3 -8 -4 -20 -2 -27 3 -7 7 -1 10 15 6 29 1 36 -8 12z"/>
<path d="M2468 3913 c5 -21 7 -23 10 -9 2 10 0 22 -6 28 -6 6 -7 0 -4 -19z"/>
<path d="M2597 3933 c-16 -15 -5 -23 31 -21 37 1 37 1 4 5 -18 2 -30 9 -27 14
7 10 1 12 -8 2z"/>
<path d="M2831 3917 c-1 -19 -8 -31 -23 -37 -16 -6 -18 -9 -7 -9 24 -1 41 24
36 51 -4 20 -4 20 -6 -5z"/>
<path d="M2952 3920 c0 -14 2 -19 5 -12 2 6 2 18 0 25 -3 6 -5 1 -5 -13z"/>
<path d="M3035 3930 c-3 -5 -1 -10 4 -10 6 0 11 5 11 10 0 6 -2 10 -4 10 -3 0
-8 -4 -11 -10z"/>
<path d="M3073 3905 c0 -22 2 -30 4 -17 2 12 2 30 0 40 -3 9 -5 -1 -4 -23z"/>
<path d="M3463 3905 c0 -22 2 -30 4 -17 2 12 2 30 0 40 -3 9 -5 -1 -4 -23z"/>
<path d="M3632 3915 c0 -16 2 -22 5 -12 2 9 2 23 0 30 -3 6 -5 -1 -5 -18z"/>
<path d="M3890 3906 c0 -20 2 -36 4 -36 8 0 12 61 4 66 -4 3 -8 -11 -8 -30z"/>
<path d="M4065 3921 c-3 -12 -11 -21 -16 -21 -5 0 -9 -4 -9 -10 0 -5 4 -10 8
-10 10 0 35 50 28 57 -2 2 -7 -5 -11 -16z"/>
<path d="M4107 3933 c-15 -15 -5 -23 26 -22 30 2 30 2 4 6 -15 2 -25 9 -22 14
7 10 1 12 -8 2z"/>
<path d="M5055 3930 c3 -5 8 -10 11 -10 2 0 4 5 4 10 0 6 -5 10 -11 10 -5 0
-7 -4 -4 -10z"/>
<path d="M5220 3905 c0 -19 2 -35 4 -35 2 0 6 16 8 35 2 19 0 35 -4 35 -4 0
-8 -16 -8 -35z"/>
<path d="M5319 3902 c5 -34 6 -35 9 -8 2 16 0 32 -5 37 -5 5 -7 -7 -4 -29z"/>
<path d="M5411 3924 c0 -11 3 -14 6 -6 3 7 2 16 -1 19 -3 4 -6 -2 -5 -13z"/>
<path d="M5443 3905 c0 -22 2 -30 4 -17 2 12 2 30 0 40 -3 9 -5 -1 -4 -23z"/>
<path d="M5527 3933 c-16 -15 -5 -23 31 -21 37 1 37 1 4 5 -18 2 -30 9 -27 14
7 10 1 12 -8 2z"/>
<path d="M5609 3923 c-13 -16 -12 -17 4 -4 9 7 17 15 17 17 0 8 -8 3 -21 -13z"/>
<path d="M5708 3905 c2 -19 6 -35 8 -35 2 0 4 16 4 35 0 19 -4 35 -8 35 -4 0
-6 -16 -4 -35z"/>
<path d="M5877 3933 c-16 -15 -5 -23 31 -21 37 1 37 1 4 5 -18 2 -30 9 -27 14
7 10 1 12 -8 2z"/>
<path d="M6155 3929 c-4 -6 -5 -12 -2 -15 2 -3 7 2 10 11 7 17 1 20 -8 4z"/>
<path d="M6206 3925 c4 -8 8 -15 10 -15 2 0 4 7 4 15 0 8 -4 15 -10 15 -5 0
-7 -7 -4 -15z"/>
<path d="M6245 3929 c-4 -6 -5 -12 -2 -15 2 -3 7 2 10 11 7 17 1 20 -8 4z"/>
<path d="M6624 3932 c5 -8 -3 -12 -23 -12 -19 0 -31 -5 -31 -13 0 -18 21 -37
40 -36 9 0 6 4 -7 9 -33 13 -28 30 7 30 30 0 40 13 18 26 -7 4 -8 3 -4 -4z"/>
<path d="M6703 3905 c0 -22 2 -30 4 -17 2 12 2 30 0 40 -3 9 -5 -1 -4 -23z"/>
<path d="M6894 3932 c5 -8 -3 -12 -23 -12 -19 0 -31 -5 -31 -13 0 -18 21 -37
40 -36 9 0 6 4 -7 9 -33 13 -28 30 7 30 30 0 40 13 18 26 -7 4 -8 3 -4 -4z"/>
<path d="M6930 3905 c0 -19 2 -35 4 -35 2 0 6 16 8 35 2 19 0 35 -4 35 -4 0
-8 -16 -8 -35z"/>
<path d="M7067 3933 c-16 -15 -5 -23 31 -21 37 1 37 1 4 5 -18 2 -30 9 -27 14
7 10 1 12 -8 2z"/>
<path d="M3193 3917 c-7 -12 -2 -13 42 -7 l40 6 -38 5 c-21 3 -41 1 -44 -4z"/>
<path d="M3280 3921 c0 -5 7 -12 16 -15 14 -5 15 -4 4 9 -14 17 -20 19 -20 6z"/>
<path d="M3710 3926 c0 -2 8 -10 18 -17 15 -13 16 -12 3 4 -13 16 -21 21 -21
13z"/>
<path d="M3934 3915 c-8 -19 13 -45 35 -44 10 0 8 4 -8 10 -17 7 -22 15 -18
29 6 23 -1 27 -9 5z"/>
<path d="M5272 3900 c0 -19 2 -27 5 -17 2 9 2 25 0 35 -3 9 -5 1 -5 -18z"/>
<path d="M2507 3909 c7 -7 15 -10 18 -7 3 3 -2 9 -12 12 -14 6 -15 5 -6 -5z"/>
<path d="M2690 3907 c12 -16 12 -20 -1 -28 -9 -5 -10 -9 -2 -9 22 0 26 22 7
38 -17 16 -17 16 -4 -1z"/>
<path d="M3388 3913 c12 -2 30 -2 40 0 9 3 -1 5 -23 4 -22 0 -30 -2 -17 -4z"/>
<path d="M3587 3909 c7 -7 15 -10 18 -7 3 3 -2 9 -12 12 -14 6 -15 5 -6 -5z"/>
<path d="M4181 3910 c-2 -31 48 -55 63 -31 3 4 -6 6 -19 3 -19 -3 -27 1 -34
19 -6 14 -10 18 -10 9z"/>
<path d="M4420 3908 c14 -17 12 -26 -7 -31 -16 -4 -16 -5 -1 -6 25 -2 33 19
14 35 -9 8 -11 9 -6 2z"/>
<path d="M4491 3909 c-1 -21 24 -43 41 -36 8 3 6 6 -5 6 -10 1 -22 11 -27 24
-6 15 -9 17 -9 6z"/>
<path d="M4603 3913 c9 -2 25 -2 35 0 9 3 1 5 -18 5 -19 0 -27 -2 -17 -5z"/>
<path d="M5001 3909 c-1 -21 24 -43 41 -36 8 3 6 6 -5 6 -10 1 -22 11 -27 24
-6 15 -9 17 -9 6z"/>
<path d="M5096 3912 c-2 -4 13 -6 35 -4 21 2 39 6 39 8 0 7 -69 4 -74 -4z"/>
<path d="M6001 3909 c-1 -21 24 -43 41 -36 8 3 6 6 -5 6 -10 1 -22 11 -27 24
-6 15 -9 17 -9 6z"/>
<path d="M6331 3909 c-1 -21 24 -43 41 -36 8 3 6 6 -5 6 -10 1 -22 11 -27 24
-6 15 -9 17 -9 6z"/>
<path d="M6470 3913 c0 -15 19 -37 26 -31 3 4 -1 14 -10 23 -9 9 -16 13 -16 8z"/>
<path d="M3122 3890 c0 -14 2 -19 5 -12 2 6 2 18 0 25 -3 6 -5 1 -5 -13z"/>
<path d="M5492 3890 c0 -14 2 -19 5 -12 2 6 2 18 0 25 -3 6 -5 1 -5 -13z"/>
<path d="M2915 3890 c-3 -5 -1 -10 4 -10 6 0 11 5 11 10 0 6 -2 10 -4 10 -3 0
-8 -4 -11 -10z"/>
<path d="M5390 3884 l-25 -14 28 2 c15 1 27 8 27 15 0 7 -1 13 -2 12 -2 -1
-14 -7 -28 -15z"/>
<path d="M6211 3884 c0 -11 3 -14 6 -6 3 7 2 16 -1 19 -3 4 -6 -2 -5 -13z"/>
<path d="M6981 3884 c0 -11 3 -14 6 -6 3 7 2 16 -1 19 -3 4 -6 -2 -5 -13z"/>
<path d="M2295 3880 c-16 -7 -17 -9 -3 -9 9 -1 20 4 23 9 7 11 7 11 -20 0z"/>
<path d="M2625 3880 c-16 -7 -17 -9 -3 -9 9 -1 20 4 23 9 7 11 7 11 -20 0z"/>
<path d="M2988 3878 c5 -5 16 -8 23 -6 8 3 3 7 -10 11 -17 4 -21 3 -13 -5z"/>
<path d="M3035 3880 c3 -5 8 -10 11 -10 2 0 4 5 4 10 0 6 -5 10 -11 10 -5 0
-7 -4 -4 -10z"/>
<path d="M3207 3878 c2 -5 13 -8 23 -8 10 0 21 3 23 8 3 4 -8 7 -23 7 -15 0
-26 -3 -23 -7z"/>
<path d="M3665 3880 c-16 -7 -17 -9 -3 -9 9 -1 20 4 23 9 7 11 7 11 -20 0z"/>
<path d="M3845 3880 c-16 -7 -17 -9 -3 -9 9 -1 20 4 23 9 7 11 7 11 -20 0z"/>
<path d="M4108 3878 c5 -5 16 -8 23 -6 8 3 3 7 -10 11 -17 4 -21 3 -13 -5z"/>
<path d="M4915 3880 c-16 -7 -17 -9 -3 -9 9 -1 20 4 23 9 7 11 7 11 -20 0z"/>
<path d="M5107 3878 c2 -5 13 -8 23 -8 10 0 21 3 23 8 3 4 -8 7 -23 7 -15 0
-26 -3 -23 -7z"/>
<path d="M7095 3880 c-16 -7 -17 -9 -3 -9 9 -1 20 4 23 9 7 11 7 11 -20 0z"/>
<path d="M2438 3873 c7 -3 16 -2 19 1 4 3 -2 6 -13 5 -11 0 -14 -3 -6 -6z"/>
<path d="M3288 3873 c7 -3 16 -2 19 1 4 3 -2 6 -13 5 -11 0 -14 -3 -6 -6z"/>
<path d="M3398 3873 c7 -3 16 -2 19 1 4 3 -2 6 -13 5 -11 0 -14 -3 -6 -6z"/>
<path d="M3718 3873 c7 -3 16 -2 19 1 4 3 -2 6 -13 5 -11 0 -14 -3 -6 -6z"/>
<path d="M4808 3873 c6 -2 18 -2 25 0 6 3 1 5 -13 5 -14 0 -19 -2 -12 -5z"/>
<path d="M5548 3873 c7 -3 16 -2 19 1 4 3 -2 6 -13 5 -11 0 -14 -3 -6 -6z"/>
<path d="M5678 3873 c7 -3 16 -2 19 1 4 3 -2 6 -13 5 -11 0 -14 -3 -6 -6z"/>
<path d="M5808 3873 c7 -3 16 -2 19 1 4 3 -2 6 -13 5 -11 0 -14 -3 -6 -6z"/>
<path d="M5898 3873 c7 -3 16 -2 19 1 4 3 -2 6 -13 5 -11 0 -14 -3 -6 -6z"/>
<path d="M6178 3873 c7 -3 16 -2 19 1 4 3 -2 6 -13 5 -11 0 -14 -3 -6 -6z"/>
<path d="M6268 3873 c7 -3 16 -2 19 1 4 3 -2 6 -13 5 -11 0 -14 -3 -6 -6z"/>
<path d="M6758 3873 c7 -3 16 -2 19 1 4 3 -2 6 -13 5 -11 0 -14 -3 -6 -6z"/>
<path d="M2339 3621 l-29 -29 0 -294 c0 -215 3 -297 12 -306 9 -9 9 -12 0 -12
-9 0 -12 -58 -12 -230 l0 -231 183 4 c185 3 243 9 260 26 12 12 0 32 -17 29
-6 -2 -13 0 -14 5 -5 18 -1 26 13 21 9 -4 15 0 15 10 0 22 20 20 21 -1 0 -13
3 -12 10 6 7 18 14 22 34 17 19 -5 25 -2 26 11 0 14 2 13 9 -4 10 -25 26 -30
33 -10 3 8 7 6 12 -7 5 -11 3 -27 -3 -37 -16 -26 -15 -59 2 -59 18 0 26 22 26
71 0 43 13 50 40 19 l18 -20 5 20 c6 23 37 27 37 5 0 -19 10 -19 24 1 15 20
70 21 89 2 8 -8 17 -26 20 -39 4 -23 4 -23 6 -1 0 12 8 22 16 22 21 0 19 -22
-5 -48 -11 -12 -20 -31 -20 -44 0 -13 -20 -77 -44 -143 l-43 -120 34 -18 c38
-20 43 -49 14 -84 -13 -16 -30 -23 -55 -23 -39 0 -57 -18 -32 -32 9 -5 16 -13
16 -19 0 -12 -73 -8 -81 4 -4 6 -13 6 -20 1 -8 -5 -22 -7 -33 -5 -10 1 -22 -3
-27 -10 -4 -8 -35 -13 -81 -15 -40 -1 -84 -7 -98 -12 -14 -5 -54 -10 -90 -11
-36 0 -84 -4 -108 -7 -36 -5 -42 -9 -37 -25 8 -25 -2 -26 -107 -14 l-48 5 0
-111 c0 -114 12 -160 45 -173 9 -3 109 -6 221 -6 l204 0 0 23 c1 12 2 76 3
142 l2 120 180 0 180 0 3 -142 3 -143 1027 0 c832 1 1032 3 1051 14 l24 13
-27 7 c-14 3 -26 11 -26 16 0 14 66 23 97 13 16 -6 70 -8 120 -5 l93 4 6 33
c3 18 4 43 2 55 -3 22 -7 23 -83 23 -58 -1 -69 1 -40 6 l40 6 -34 13 c-19 6
-50 12 -69 12 -20 0 -32 3 -28 7 4 4 53 8 109 8 95 0 102 1 102 20 0 19 -6 20
-85 17 -46 -2 -93 1 -104 7 -12 6 -46 17 -76 24 -55 14 -54 14 67 11 67 -1
137 -6 156 -9 29 -6 36 -4 41 13 4 10 4 26 0 35 -8 23 -70 33 -100 17 -19 -11
-31 -11 -61 -1 -46 15 -189 2 -186 -16 2 -7 -13 -15 -32 -19 -48 -9 -67 1 -25
14 29 8 17 10 -75 10 -60 0 -117 1 -125 2 -8 2 -72 0 -141 -4 l-127 -8 -6 29
c-14 68 -26 237 -17 246 5 5 4 22 -4 41 -7 17 -15 51 -18 75 l-6 44 177 -6
c97 -3 214 -11 258 -18 97 -14 134 -8 134 22 0 20 4 21 50 17 29 -3 50 -1 50
5 0 5 12 6 26 3 21 -6 25 -4 21 8 -4 10 0 14 14 13 10 -1 19 -5 19 -10 0 -4 4
-6 9 -3 5 4 11 1 13 -4 2 -7 14 -7 38 1 43 14 65 33 56 48 -11 16 -39 14 -33
-3 3 -8 -1 -17 -9 -20 -10 -4 -13 2 -10 26 3 32 28 54 47 42 8 -4 9 1 4 15 -3
12 -2 21 4 21 6 0 10 -41 10 -99 1 -113 -8 -131 -65 -131 -38 0 -46 -15 -11
-24 34 -9 115 -7 122 3 3 5 7 76 10 158 l5 148 135 3 c79 1 135 7 135 12 0 6
7 10 16 10 9 0 12 5 8 13 -5 8 -3 8 9 -2 9 -7 15 -17 12 -21 -3 -4 2 -11 11
-14 25 -9 27 -7 9 10 -19 19 -4 44 27 44 11 0 18 5 15 13 -2 7 -21 12 -45 11
-23 0 -39 3 -37 7 6 9 -20 19 -50 19 -13 0 -27 5 -30 11 -4 6 -13 8 -21 5 -7
-3 -16 -1 -19 4 -4 6 -17 10 -30 10 -28 0 -94 40 -95 58 0 6 -5 12 -11 12 -5
0 -7 5 -4 10 4 6 11 7 17 4 6 -4 8 -2 4 4 -3 6 -1 14 4 17 6 4 15 18 20 31 5
13 18 24 28 24 10 0 23 5 29 11 14 14 5 42 -9 33 -22 -14 -37 46 -19 75 13 21
52 -20 39 -43 -7 -13 -4 -16 17 -16 17 0 25 -5 25 -17 1 -17 1 -17 11 0 13 23
29 22 29 -3 0 -15 7 -20 25 -20 15 0 25 6 25 14 0 19 32 30 41 14 7 -10 12
-10 26 -1 10 6 17 16 16 21 -1 5 11 12 27 16 17 3 30 10 30 16 0 6 -4 9 -9 5
-5 -3 -13 4 -16 15 -5 15 -10 18 -19 11 -12 -10 -68 -7 -86 4 -6 3 -10 12 -10
18 0 15 35 47 51 47 10 0 9 14 -4 65 -1 6 -6 15 -10 22 -10 15 1 21 38 19 32
-1 70 24 47 32 -7 2 -10 8 -6 13 3 5 -1 12 -10 15 -22 8 -8 36 15 29 11 -4 19
-2 19 4 0 6 -4 11 -9 11 -5 0 -12 13 -16 30 -4 16 -7 33 -8 36 -1 4 8 9 21 11
14 2 21 -1 17 -7 -3 -6 1 -7 10 -4 21 8 55 -23 55 -51 0 -25 26 -41 34 -22 3
7 3 0 0 -15 -6 -28 12 -41 18 -14 2 12 8 10 27 -5 21 -17 23 -22 10 -31 -11
-8 -10 -9 5 -4 11 4 22 2 26 -4 4 -6 17 -13 31 -15 13 -3 32 -14 42 -26 9 -12
17 -17 17 -13 1 5 11 -4 24 -20 17 -21 35 -30 62 -32 l39 -3 -43 25 c-23 14
-42 30 -42 35 0 6 -4 7 -10 4 -5 -3 -10 1 -10 9 0 9 5 16 11 16 6 0 9 6 6 14
-3 8 -1 17 6 19 8 3 7 10 -5 24 -20 22 -24 53 -7 53 6 0 8 -7 5 -16 -4 -11 -1
-14 12 -12 15 3 53 -26 117 -89 12 -13 28 -23 35 -23 7 0 10 -8 7 -20 -3 -11
-1 -23 4 -26 5 -3 9 0 9 5 0 19 26 12 46 -12 45 -53 81 -137 52 -122 -7 4 -4
-1 6 -9 11 -9 23 -16 28 -16 4 0 8 -10 8 -22 0 -23 1 -23 13 2 11 21 11 26 -2
32 -9 4 -12 7 -7 7 5 1 2 9 -6 19 -14 15 -48 86 -48 99 0 2 6 1 13 -2 6 -4 1
3 -13 14 -14 11 -28 21 -32 21 -5 0 -8 7 -8 16 0 8 -4 13 -9 10 -13 -8 -21 62
-11 90 9 22 6 28 -12 26 -7 -1 -38 61 -38 77 0 6 7 11 15 11 8 0 15 4 15 9 0
6 9 9 19 8 11 0 19 -4 19 -7 -4 -22 17 -60 33 -60 10 0 19 5 19 10 0 6 4 10
10 10 5 0 6 -7 3 -17 -4 -10 -2 -14 4 -10 16 10 41 -24 48 -68 10 -52 26 -83
20 -35 l-5 35 20 -44 c16 -34 19 -56 15 -95 -7 -63 -7 -67 1 -138 6 -50 4 -58
-10 -58 -13 0 -14 -3 -4 -19 9 -15 9 -25 -2 -48 l-14 -28 -4 25 c-2 14 -7 29
-12 34 -5 5 -5 -8 0 -27 5 -25 3 -44 -6 -63 -12 -23 -12 -30 1 -50 8 -13 15
-34 15 -48 0 -14 5 -28 10 -31 6 -3 10 -17 10 -31 0 -14 -4 -22 -10 -19 -15 9
-12 -12 5 -45 9 -17 15 -31 14 -32 -1 -2 3 -27 10 -55 l13 -53 84 0 c49 0 84
-4 84 -10 0 -14 37 -12 43 3 4 10 6 10 6 0 1 -7 10 -13 22 -13 16 0 19 4 14
18 -16 39 -17 54 -4 63 8 5 9 9 3 9 -7 0 -14 9 -17 21 -4 16 -3 18 9 8 9 -7
14 -8 14 -1 0 6 -4 14 -10 17 -5 3 -10 14 -10 24 0 28 -26 46 -45 31 -8 -6
-20 -8 -27 -4 -7 4 -10 4 -6 -1 8 -9 -9 -45 -21 -45 -5 0 -7 15 -6 33 2 26 6
31 24 29 17 -3 21 2 21 24 0 15 -8 33 -17 40 -11 8 -13 13 -5 14 7 0 12 14 12
36 0 19 5 45 12 57 7 12 11 31 10 43 -2 11 7 31 20 45 13 14 32 44 43 67 11
23 25 40 32 38 6 -3 19 1 29 9 17 12 16 13 -8 8 l-28 -5 16 45 c8 25 22 51 30
58 16 13 20 84 4 74 -6 -3 -10 -1 -10 4 0 6 5 11 10 11 16 0 12 22 -7 36 -17
12 -17 13 0 19 15 6 17 23 17 140 0 73 -3 141 -6 150 -18 47 94 45 -2354 45
l-2292 0 -29 -29z m307 -90 c128 -58 136 -234 14 -298 -78 -41 -148 -27 -208
41 -72 83 -41 210 62 257 52 23 80 23 132 0z m1724 -61 c18 -11 22 -42 7 -52
-9 -5 -9 -10 1 -20 20 -20 14 -36 -15 -41 -26 -4 -26 -4 5 -6 29 -1 32 2 32
27 0 21 5 28 20 29 11 1 20 -2 20 -8 0 -5 -4 -9 -9 -9 -5 0 -9 -14 -9 -30 1
-21 -6 -36 -20 -46 -24 -17 -30 -36 -8 -28 8 3 17 1 21 -5 9 -15 21 -14 39 5
14 14 18 14 31 0 20 -20 19 -36 -2 -36 -15 0 -16 -2 -3 -10 13 -8 12 -11 -5
-24 -17 -13 -18 -15 -3 -16 9 0 24 10 34 23 10 13 14 15 11 5 -3 -9 1 -19 9
-22 22 -9 24 -8 18 9 -4 8 -1 15 5 15 6 0 11 -7 11 -16 0 -8 4 -13 9 -9 6 3
13 0 18 -8 4 -7 20 -18 36 -24 15 -7 27 -16 27 -20 0 -16 -19 -37 -27 -30 -4
5 -1 12 6 16 9 6 4 11 -18 19 -24 9 -34 8 -45 -4 -13 -12 -17 -12 -29 6 -7 11
-16 17 -20 14 -9 -9 15 -54 25 -48 5 3 18 -4 29 -17 23 -27 24 -30 2 -22 -16
6 -16 5 -4 -10 11 -14 11 -23 3 -40 -13 -26 -13 -77 -1 -77 10 0 -9 -48 -29
-72 -9 -10 -20 -18 -26 -18 -6 0 -5 4 3 9 19 12 5 30 -18 24 -12 -3 -17 -11
-14 -19 3 -10 -5 -16 -26 -20 -18 -4 -38 -16 -46 -27 -15 -21 -45 -17 -45 7 0
10 -7 12 -21 9 -13 -4 -26 0 -33 9 -6 8 -19 17 -28 21 -10 3 -20 19 -23 34
-11 48 -24 73 -40 73 -17 0 -19 18 -6 39 5 8 5 21 1 30 -30 57 -40 89 -35 116
5 30 5 30 -7 5 l-12 -25 -4 28 c-2 16 1 34 6 40 11 13 -18 90 -38 102 -6 3
-11 27 -12 53 l-1 47 -4 -43 c-3 -34 -9 -45 -28 -54 -38 -17 -55 4 -54 66 1
30 4 39 6 21 7 -61 13 -75 32 -75 16 0 20 9 23 58 2 31 0 62 -4 69 -11 14 259
17 282 3z m-400 -86 c0 -41 -4 -63 -10 -59 -18 11 -12 125 7 125 2 0 3 -30 3
-66z m1160 1 c0 -68 -7 -79 -28 -44 -8 12 -9 18 -3 14 7 -4 11 11 11 44 0 28
5 51 10 51 6 0 10 -28 10 -65z m-2222 48 c-14 -4 -18 -15 -18 -59 0 -30 -4
-54 -10 -54 -5 0 -10 24 -10 54 0 44 -4 55 -17 59 -10 3 2 5 27 5 25 0 37 -2
28 -5z m167 -16 c0 -6 11 -14 25 -17 48 -11 34 -82 -16 -78 -22 2 -24 6 -24
62 0 33 3 56 8 52 4 -4 7 -13 7 -19z m392 6 c4 -9 1 -19 -5 -21 -7 -2 -12 -12
-12 -22 0 -10 -5 -22 -10 -25 -6 -4 -10 5 -8 24 1 16 6 27 10 25 4 -3 8 0 8 5
0 12 -39 15 -41 4 -6 -37 -4 -55 8 -64 10 -9 17 -9 25 -1 14 14 28 16 28 5 -1
-5 -10 -19 -20 -32 -24 -28 -43 -18 -60 35 -10 29 -9 39 4 59 19 29 63 34 73
8z m1078 7 c3 -5 1 -10 -4 -10 -6 0 -11 5 -11 10 0 6 2 10 4 10 3 0 8 -4 11
-10z m220 0 c3 -5 1 -10 -4 -10 -6 0 -11 5 -11 10 0 6 2 10 4 10 3 0 8 -4 11
-10z m60 0 c-3 -5 -12 -10 -18 -10 -7 0 -6 4 3 10 19 12 23 12 15 0z m155 -50
l0 -60 -30 0 c-22 0 -33 6 -41 24 -14 30 3 66 31 66 11 0 20 7 20 15 0 8 5 15
10 15 6 0 10 -27 10 -60z m312 13 c2 -36 7 -49 21 -51 14 -3 17 4 17 47 0 29
5 51 11 51 6 0 9 -20 7 -51 -2 -39 -8 -55 -23 -63 -11 -6 -31 -19 -44 -28 -35
-27 -50 -21 -17 6 18 15 24 26 17 30 -13 9 -15 106 -2 106 6 0 11 -21 13 -47z
m158 38 c0 -5 -9 -11 -20 -14 -16 -4 -20 -14 -20 -51 0 -25 -4 -46 -10 -46 -5
0 -10 22 -10 50 0 36 -5 52 -17 59 -14 8 -8 10 30 11 26 0 47 -4 47 -9z m51
-28 l24 -38 3 38 c4 43 19 50 24 10 5 -41 -3 -93 -13 -93 -6 0 -20 17 -32 38
l-22 37 -3 -29 c-2 -16 2 -32 9 -37 18 -11 6 -21 -15 -13 -12 5 -16 20 -16 65
0 32 4 59 9 59 5 0 20 -17 32 -37z m903 21 c5 -14 4 -15 -9 -4 -17 14 -19 20
-6 20 5 0 12 -7 15 -16z m346 -4 c0 -4 -9 -10 -20 -13 -21 -5 -35 7 -26 22 7
10 46 3 46 -9z m-2157 -46 c-6 -34 9 -48 21 -19 3 8 15 15 26 15 11 0 20 5 20
11 0 7 -10 9 -27 4 -24 -6 -25 -4 -13 10 7 9 23 15 34 13 17 -2 22 -11 24 -45
3 -35 0 -43 -13 -43 -11 0 -15 -5 -12 -14 3 -8 0 -17 -8 -20 -9 -3 -15 3 -17
17 -2 16 -10 22 -28 22 -21 0 -26 5 -28 33 -4 40 -22 43 -22 3 0 -17 -4 -33
-10 -36 -6 -4 -10 11 -10 39 0 36 3 44 15 40 8 -4 17 1 21 10 12 30 33 -1 27
-40z m1494 37 c-1 -16 -4 -17 -15 -9 -10 9 -11 13 0 19 17 11 17 12 15 -10z
m-3063 -7 c11 -4 16 -19 16 -43 0 -31 -4 -37 -22 -38 -12 -1 -28 3 -34 8 -17
14 -6 39 17 39 10 0 19 5 19 11 0 6 -9 9 -20 6 -22 -6 -28 8 -7 16 6 3 13 6
14 6 1 1 8 -2 17 -5z m174 -6 c7 -7 12 -26 12 -43 0 -26 -4 -31 -25 -30 -46 0
-60 45 -14 45 10 0 19 5 19 11 0 6 -9 9 -20 6 -22 -6 -28 8 -7 16 19 8 22 8
35 -5z m116 6 c25 -10 21 -71 -4 -79 -43 -14 -71 52 -32 74 21 13 17 12 36 5z
m230 -10 c9 -8 16 -22 16 -29 0 -13 -26 -45 -36 -45 -39 0 -59 60 -26 79 23
14 28 14 46 -5z m139 7 c11 -2 8 -81 -3 -81 -5 0 -10 16 -10 36 0 45 -24 42
-28 -4 -4 -43 -22 -41 -22 3 0 24 -5 35 -15 35 -11 0 -15 -11 -15 -36 0 -21
-4 -33 -10 -29 -5 3 -10 21 -10 40 0 24 5 35 18 37 14 3 68 3 95 -1z m53 -61
c9 0 14 10 14 29 0 17 5 33 10 36 6 4 10 -12 10 -39 0 -41 -2 -46 -23 -46 -30
0 -47 18 -47 50 0 42 15 46 18 6 2 -23 8 -36 18 -36z m111 20 c1 -40 0 -41 -5
-11 -9 45 -32 54 -32 12 0 -16 -4 -33 -10 -36 -6 -4 -10 11 -10 38 0 42 2 44
28 43 25 -1 27 -4 29 -46z m82 36 c7 -8 11 -27 9 -43 -3 -24 -8 -28 -33 -28
-23 0 -30 4 -30 20 0 13 8 21 23 23 12 2 22 8 22 14 0 6 -11 8 -27 4 -27 -6
-27 -6 -9 9 24 19 30 19 45 1z m579 -5 c3 -10 -2 -11 -18 -6 -15 5 -20 4 -16
-4 4 -6 14 -11 22 -11 10 0 14 -8 12 -22 -2 -17 -10 -23 -27 -23 -13 0 -26 6
-29 13 -3 9 3 11 22 6 33 -8 34 3 1 16 -24 9 -32 29 -18 44 11 11 46 2 51 -13z
m232 9 c0 -5 -5 -10 -11 -10 -7 0 -9 -10 -4 -27 4 -16 9 -35 11 -43 2 -8 6
-26 10 -39 5 -17 4 -22 -4 -17 -7 4 -12 3 -12 -3 0 -6 10 -15 22 -22 18 -10
20 -9 14 6 -4 12 -2 16 6 12 45 -16 58 -18 59 -5 1 7 2 20 3 28 0 8 -12 27
-27 41 -32 28 -34 65 -4 83 39 25 76 -43 42 -77 -14 -15 -14 -17 4 -27 28 -15
33 -13 21 9 -7 13 -7 22 0 26 18 11 27 -3 23 -37 -3 -27 -1 -29 6 -13 8 17 10
15 10 -12 1 -32 -11 -43 -24 -23 -3 6 -10 10 -16 10 -5 0 -9 -4 -9 -10 0 -5 6
-10 14 -10 8 0 18 -9 21 -20 4 -11 15 -20 26 -20 11 0 18 -4 15 -8 -2 -4 4
-19 15 -32 10 -14 19 -19 19 -12 0 6 5 12 11 12 6 0 9 -7 5 -15 -3 -8 -1 -15
5 -15 6 0 7 -5 4 -10 -5 -8 -12 -7 -23 2 -9 7 -13 9 -10 3 11 -20 -10 -54 -34
-52 -24 1 -58 31 -58 51 0 6 -4 5 -9 -3 -5 -7 -14 -11 -20 -7 -6 4 -9 1 -5 -7
3 -8 16 -19 30 -25 13 -7 24 -18 24 -27 0 -8 5 -15 12 -15 6 0 3 -9 -8 -21
-10 -11 -14 -19 -9 -18 6 1 18 -2 29 -6 26 -12 52 7 48 36 -2 19 -1 21 7 9 17
-24 14 -63 -4 -56 -13 5 -18 -4 -14 -30 0 -4 -5 -11 -13 -15 -9 -6 -7 -9 8 -9
13 0 24 -8 27 -20 3 -11 1 -18 -4 -14 -15 9 -10 -13 6 -26 13 -11 20 -11 40 0
31 17 31 24 0 38 -29 13 -32 27 -9 36 28 11 46 7 40 -9 -3 -10 1 -15 11 -15 9
0 13 -3 10 -7 -4 -3 5 -15 20 -25 16 -10 22 -18 16 -18 -7 0 -13 -7 -13 -16 0
-12 6 -15 25 -10 25 6 30 0 26 -33 -2 -7 2 -10 8 -7 5 4 13 1 16 -5 4 -6 -2
-13 -14 -16 -12 -3 -21 -13 -21 -24 0 -22 -10 -24 -29 -6 -11 10 -13 6 -8 -20
8 -40 -4 -49 -74 -57 l-56 -6 -7 71 c-3 39 -11 79 -16 89 -13 24 -96 49 -143
43 -32 -4 -36 -3 -31 11 4 9 9 15 11 12 3 -3 12 1 20 9 8 8 23 15 34 15 11 0
23 10 28 22 6 18 4 25 -12 33 -11 5 -22 16 -25 24 -3 8 0 11 7 7 6 -4 11 -3
11 2 0 20 -28 20 -33 1 -7 -25 -27 -24 -27 2 0 11 5 17 10 14 6 -3 10 1 10 9
0 8 -8 20 -17 26 -13 8 -14 13 -5 16 6 3 12 12 12 20 0 8 5 14 11 14 8 0 8 4
-1 15 -10 13 -14 12 -30 -7 -15 -19 -20 -20 -34 -9 -22 18 -20 34 3 28 21 -5
82 45 95 78 7 19 6 19 -10 3 -13 -13 -21 -14 -41 -5 -17 8 -27 7 -35 -1 -17
-17 -33 -15 -18 3 10 12 9 16 -4 21 -9 3 -16 13 -16 21 0 13 -3 13 -15 3 -9
-8 -15 -8 -15 -2 0 6 -3 19 -6 29 -6 15 -4 16 7 6 20 -19 39 -16 39 7 0 11 -7
20 -15 20 -11 0 -15 11 -15 38 0 21 3 42 7 45 10 11 43 8 43 -3z m32 -36 c3
-44 -2 -61 -16 -47 -9 10 -7 93 3 93 5 0 11 -21 13 -46z m288 24 l21 -23 -38
-5 c-25 -3 -34 -8 -25 -13 7 -5 20 -6 28 -3 10 4 14 1 12 -6 -6 -18 -36 -22
-53 -8 -28 23 -12 80 22 80 7 0 22 -10 33 -22z m150 -8 c10 -36 -1 -56 -30
-55 -18 0 -26 6 -28 23 -3 18 1 22 23 22 16 0 24 4 20 10 -4 6 -15 8 -26 5
-10 -4 -19 -2 -19 3 0 33 51 26 60 -8z m-2252 8 c-9 -7 -19 -26 -21 -43 -3
-24 -4 -21 -6 13 -1 37 2 42 21 42 19 0 20 -1 6 -12z m282 -43 c0 -45 -3 -55
-17 -55 -13 0 -14 3 -5 12 7 7 12 31 12 55 0 24 2 43 5 43 3 0 5 -25 5 -55z
m2449 38 c0 -11 -3 -13 -6 -5 -2 6 -10 9 -15 6 -7 -4 -8 -2 -4 4 11 18 26 14
25 -5z m549 -23 c6 -22 12 -47 12 -56 0 -23 -30 -13 -49 16 -9 13 -11 21 -4
17 6 -4 14 -3 17 2 3 5 -1 11 -9 15 -20 7 -19 26 1 26 8 0 12 5 9 10 -3 6 -3
10 2 10 4 0 14 -18 21 -40z m-425 9 c5 -3 1 -9 -8 -12 -9 -4 -13 -3 -10 3 3 6
1 10 -5 10 -6 0 -8 5 -5 11 4 6 10 7 14 2 3 -4 10 -11 14 -14z m-371 -31 c-6
-6 -7 0 -4 19 5 21 7 23 10 9 2 -10 0 -22 -6 -28z m1286 31 c-2 -6 -8 -10 -13
-10 -5 0 -11 4 -13 10 -2 6 4 11 13 11 9 0 15 -5 13 -11z m-1084 -21 c-5 -7
-8 -22 -9 -32 0 -11 -6 -21 -14 -24 -9 -3 -11 0 -6 9 5 8 -2 5 -16 -6 -13 -11
-26 -22 -29 -24 -3 -2 12 -1 33 2 l39 6 -27 -24 c-14 -14 -31 -25 -38 -25 -7
0 -6 4 3 10 13 9 13 10 0 11 -8 1 -19 1 -24 0 -10 -2 -26 19 -26 34 0 6 5 3
10 -5 7 -10 10 -11 10 -2 0 7 14 21 31 31 17 10 29 21 27 24 -3 7 35 37 40 32
2 -2 0 -10 -4 -17z m774 -19 c13 -16 22 -34 20 -40 -5 -14 -68 47 -68 66 0 20
21 9 48 -26z m-253 11 c3 -5 2 -10 -4 -10 -5 0 -13 5 -16 10 -3 6 -2 10 4 10
5 0 13 -4 16 -10z m590 0 c4 -6 11 -7 17 -4 7 5 9 2 5 -8 -3 -10 1 -18 12 -21
19 -5 35 -66 24 -93 -10 -26 -28 -8 -25 23 2 21 -2 32 -13 37 -9 3 -13 10 -10
16 3 5 -2 11 -12 11 -43 3 -48 5 -48 19 0 8 6 14 13 13 6 -2 12 2 12 7 0 13
17 13 25 0z m-1646 -24 c17 -18 19 -25 8 -29 -17 -6 -44 9 -34 19 4 4 2 13 -4
21 -20 23 7 14 30 -11z m565 9 c-4 -8 -11 -15 -16 -15 -6 0 -5 6 2 15 7 8 14
15 16 15 2 0 1 -7 -2 -15z m-294 -12 c0 5 10 1 21 -7 15 -10 28 -12 45 -6 25
10 32 2 13 -17 -7 -7 -21 -8 -42 -2 -24 7 -33 5 -40 -6 -10 -19 -37 -19 -37 0
0 8 5 15 10 15 6 0 9 3 9 8 -1 4 -1 14 0 22 1 13 2 13 11 0 5 -8 10 -11 10 -7z
m1080 -8 c0 -8 -2 -15 -4 -15 -2 0 -6 7 -10 15 -3 8 -1 15 4 15 6 0 10 -7 10
-15z m-1405 -5 c3 -5 -1 -10 -10 -10 -9 0 -13 5 -10 10 3 6 8 10 10 10 2 0 7
-4 10 -10z m-235 -19 c0 -12 -20 -25 -27 -18 -7 7 6 27 18 27 5 0 9 -4 9 -9z
m1919 -38 c1 -7 -3 -13 -9 -13 -5 0 -10 15 -9 33 0 27 2 29 9 12 5 -11 9 -26
9 -32z m-2132 1 c11 4 13 2 10 -9 -4 -8 1 -21 9 -30 9 -8 11 -15 5 -15 -13 0
-51 55 -50 72 1 7 3 5 6 -5 3 -12 10 -16 20 -13z m493 16 c0 -5 -4 -10 -10
-10 -5 0 -10 5 -10 10 0 6 5 10 10 10 6 0 10 -4 10 -10z m183 -24 c9 3 17 1
17 -5 0 -6 -6 -11 -12 -11 -7 0 -24 -3 -37 -7 -18 -4 -22 -3 -17 6 5 8 0 14
-13 18 -11 3 -18 9 -16 13 3 5 18 2 33 -6 15 -7 35 -11 45 -8z m1487 9 c0 -8
-2 -15 -4 -15 -2 0 -6 7 -10 15 -3 8 -1 15 4 15 6 0 10 -7 10 -15z m-2106 -19
c-3 -9 -12 -16 -20 -16 -11 0 -10 4 3 20 19 22 26 21 17 -4z m2266 14 c0 -5
-4 -10 -10 -10 -5 0 -10 5 -10 10 0 6 5 10 10 10 6 0 10 -4 10 -10z m33 -7
c-4 -11 -3 -14 5 -9 7 4 12 2 12 -3 0 -6 -4 -11 -9 -11 -14 0 -23 18 -16 30
10 16 15 12 8 -7z m-2249 -25 c17 -33 20 -46 9 -35 -3 4 -12 2 -19 -4 -8 -6
-20 -9 -28 -6 -12 5 -12 12 -4 41 14 44 22 45 42 4z m2176 12 c0 -10 -9 -24
-20 -30 -23 -12 -27 -1 -10 31 14 25 30 24 30 -1z m-1250 -25 c0 -5 -5 -3 -10
5 -5 8 -10 20 -10 25 0 6 5 3 10 -5 5 -8 10 -19 10 -25z m-305 5 c3 -5 2 -10
-3 -10 -5 0 -7 -11 -4 -25 5 -28 -14 -33 -49 -15 -26 15 -24 26 9 43 34 19 39
19 47 7z m1384 -42 c1 -5 -3 -8 -9 -8 -5 0 -10 12 -9 28 0 24 1 25 9 7 5 -11
9 -23 9 -27z m180 11 c-19 -12 -42 -11 -34 1 4 6 10 8 15 5 4 -3 11 3 15 13 6
13 9 14 12 3 3 -7 -1 -17 -8 -22z m-4354 11 c3 -5 1 -10 -4 -10 -6 0 -11 5
-11 10 0 6 2 10 4 10 3 0 8 -4 11 -10z m4245 0 c0 -5 -7 -10 -16 -10 -8 0 -12
5 -9 10 3 6 10 10 16 10 5 0 9 -4 9 -10z m183 -11 c-6 -6 -19 -9 -29 -6 -17 3
-16 5 6 14 28 12 39 8 23 -8z m-3963 1 c0 -5 -7 -10 -15 -10 -8 0 -15 5 -15
10 0 6 7 10 15 10 8 0 15 -4 15 -10z m2360 -15 c0 -8 -4 -15 -10 -15 -5 0 -10
7 -10 15 0 8 5 15 10 15 6 0 10 -7 10 -15z m-1962 -44 c4 -26 -24 -39 -43 -20
-8 8 -11 25 -8 42 5 26 7 27 27 14 11 -8 22 -24 24 -36z m2299 2 c-3 -3 -15
-2 -27 2 l-21 7 23 20 23 20 3 -22 c2 -12 1 -24 -1 -27z m1082 26 c-11 -11
-24 -17 -27 -13 -4 3 -1 9 6 11 6 3 10 9 6 14 -3 5 4 9 15 9 l21 0 -21 -21z
m-4171 -9 c7 -11 21 -20 33 -20 11 0 18 -4 14 -9 -3 -5 9 -21 26 -34 32 -25
32 -25 52 -6 12 10 25 19 29 19 5 0 6 5 3 10 -3 6 -1 10 4 10 15 0 14 -16 -2
-32 -7 -7 -13 -17 -13 -23 1 -5 -8 -11 -19 -13 -35 -7 -55 -32 -43 -52 9 -13
14 -15 24 -6 6 6 10 14 8 18 -2 4 0 9 5 12 12 8 18 -12 17 -54 -1 -19 4 -41
11 -48 7 -7 13 -22 13 -32 0 -10 6 -21 13 -23 6 -3 -7 -4 -31 -4 -32 1 -42 5
-40 17 4 25 -31 69 -53 65 -38 -7 -43 -17 -18 -36 13 -10 20 -21 15 -26 -4 -4
-16 2 -26 15 -15 18 -17 29 -10 48 13 32 13 31 -5 31 -11 0 -13 -6 -9 -20 5
-17 4 -18 -9 -6 -8 8 -12 20 -10 26 3 7 0 13 -7 13 -7 0 -10 8 -7 20 3 14 0
20 -10 20 -13 0 -13 3 -3 15 10 12 10 21 2 41 -10 20 -9 26 2 30 8 3 17 12 20
20 4 11 0 13 -19 8 -19 -5 -25 -2 -25 10 0 24 52 21 68 -4z m1972 -1 c0 -5 -4
-9 -8 -9 -5 0 -9 7 -9 15 0 8 4 12 9 9 4 -3 8 -9 8 -15z m658 6 c2 -2 1 -13
-3 -25 -7 -21 -32 -22 -27 -1 1 6 -5 11 -13 11 -9 0 -12 6 -9 15 6 13 37 13
52 0z m1717 -4 c-3 -6 -10 -9 -14 -6 -5 2 -6 -6 -4 -19 3 -13 -3 -36 -12 -50
-31 -46 -36 -31 -19 52 2 13 15 27 27 31 25 10 32 7 22 -8z m-235 -23 c0 -18
7 -71 15 -118 17 -97 19 -156 6 -164 -5 -3 -7 -15 -4 -26 6 -21 -20 -29 -32
-10 -3 5 -9 86 -12 180 -5 154 -4 170 10 170 12 0 17 -9 17 -32z m159 -8 c0
-10 -3 -8 -9 5 -12 27 -12 43 0 25 5 -8 9 -22 9 -30z m-2207 16 c6 4 8 -3 6
-17 -1 -12 -9 -24 -16 -27 -7 -2 -10 2 -6 12 7 19 0 20 -26 6 -16 -8 -18 -8
-14 5 4 8 12 15 20 15 8 0 14 6 15 13 0 9 2 9 6 -1 2 -6 9 -9 15 -6z m1062 -2
c23 -23 19 -40 -4 -19 -11 10 -20 22 -20 27 0 12 7 10 24 -8z m-1132 -16 c-7
-7 -12 -8 -12 -2 0 6 3 14 7 17 3 4 9 5 12 2 2 -3 -1 -11 -7 -17z m708 -16
c-6 -2 -8 -8 -4 -13 3 -5 -4 -9 -15 -9 -23 0 -24 19 -1 37 11 8 17 9 22 0 4
-7 3 -14 -2 -15z m1554 -5 c12 -34 -28 -169 -58 -195 -19 -15 -19 -15 -8 0 8
9 11 26 7 37 -3 11 -1 46 5 78 12 56 17 89 19 106 2 18 26 -1 35 -26z m-4014
13 c0 -5 -2 -10 -4 -10 -3 0 -8 5 -11 10 -3 6 -1 10 4 10 6 0 11 -4 11 -10z
m2344 -20 c-6 -6 -10 -2 -11 12 -2 16 1 18 10 9 7 -7 8 -14 1 -21z m671 11
c-3 -6 -14 -11 -23 -11 -15 1 -15 2 2 15 21 16 32 13 21 -4z m-2877 -21 c0
-16 -3 -30 -8 -30 -12 0 -18 49 -6 54 6 2 11 5 12 5 1 1 1 -12 2 -29z m2606 6
c-6 -16 -24 -23 -24 -8 0 10 22 33 27 28 2 -2 1 -11 -3 -20z m119 9 c4 -8 2
-17 -3 -20 -6 -4 -10 3 -10 14 0 25 6 27 13 6z m1050 2 c3 -8 1 -20 -4 -28 -6
-10 -9 -7 -9 14 0 29 5 35 13 14z m24 -19 c-3 -8 -6 -5 -6 6 -1 11 2 17 5 13
3 -3 4 -12 1 -19z m-2042 2 c-3 -5 -1 -10 6 -10 10 0 10 -3 1 -12 -9 -9 -15
-9 -23 -1 -12 12 -4 33 12 33 6 0 7 -4 4 -10z m1040 0 c-3 -5 -11 -10 -16 -10
-6 0 -7 5 -4 10 3 6 11 10 16 10 6 0 7 -4 4 -10z m-2415 -27 c0 -14 -3 -23 -7
-19 -10 10 -11 46 -1 46 4 0 8 -12 8 -27z m1310 17 c0 -5 -7 -10 -15 -10 -9 0
-12 -6 -9 -15 4 -8 1 -15 -5 -15 -12 0 -14 11 -5 34 7 17 34 22 34 6z m-1740
-10 c0 -5 -4 -10 -10 -10 -5 0 -10 5 -10 10 0 6 5 10 10 10 6 0 10 -4 10 -10z
m1670 0 c0 -5 -5 -10 -11 -10 -5 0 -7 5 -4 10 3 6 8 10 11 10 2 0 4 -4 4 -10z
m-1270 -21 c0 -6 -4 -7 -10 -4 -5 3 -10 11 -10 16 0 6 5 7 10 4 6 -3 10 -11
10 -16z m1590 11 c0 -5 -2 -10 -4 -10 -3 0 -8 5 -11 10 -3 6 -1 10 4 10 6 0
11 -4 11 -10z m1860 -7 c0 -10 -5 -25 -10 -33 -7 -11 -10 -7 -10 18 0 17 5 32
10 32 6 0 10 -8 10 -17z m-2050 -12 c0 -5 -9 -11 -20 -14 -20 -5 -26 3 -13 16
9 10 33 8 33 -2z m2154 -15 c-3 -9 -10 -16 -15 -16 -6 0 -5 9 1 21 13 24 24
20 14 -5z m-1444 10 c0 -3 -4 -8 -10 -11 -5 -3 -10 -1 -10 4 0 6 5 11 10 11 6
0 10 -2 10 -4z m-2080 -26 c33 0 33 -21 1 -33 -17 -6 -30 -16 -30 -22 4 -33
-2 -40 -17 -20 -13 17 -16 18 -24 5 -15 -23 -12 -30 10 -30 11 0 19 -6 18 -12
-2 -8 6 -12 22 -10 15 2 20 0 13 -5 -9 -7 -9 -14 0 -33 12 -24 10 -26 -35 -48
-52 -25 -72 -22 -63 9 4 11 2 19 -4 19 -6 0 -11 -14 -11 -31 0 -20 -4 -28 -12
-23 -7 4 -8 3 -4 -5 13 -21 -4 -52 -27 -49 -33 5 -36 54 -5 64 21 6 22 7 4 14
-26 9 -29 37 -4 43 11 3 17 10 14 15 -9 14 20 22 54 15 25 -4 28 -8 19 -20 -7
-7 -10 -15 -8 -17 2 -2 12 7 22 20 10 14 15 24 10 23 -21 -4 -32 2 -27 15 3 7
-2 16 -10 19 -9 4 -12 14 -9 26 3 11 10 18 17 15 10 -4 56 37 56 51 0 25 2 29
7 18 2 -7 13 -13 23 -13z m2230 0 c0 -5 -7 -10 -16 -10 -8 0 -12 5 -9 10 3 6
10 10 16 10 5 0 9 -4 9 -10z m-3060 -16 c0 -8 -4 -12 -10 -9 -5 3 -10 10 -10
16 0 5 5 9 10 9 6 0 10 -7 10 -16z m2290 -26 c0 -6 -7 -5 -15 2 -8 7 -15 17
-15 22 0 6 7 5 15 -2 8 -7 15 -17 15 -22z m-1560 12 c0 -5 -4 -10 -10 -10 -5
0 -10 5 -10 10 0 6 5 10 10 10 6 0 10 -4 10 -10z m1404 -16 c3 -8 2 -12 -4 -9
-6 3 -10 10 -10 16 0 14 7 11 14 -7z m-2084 -14 c0 -5 -2 -10 -4 -10 -3 0 -8
5 -11 10 -3 6 -1 10 4 10 6 0 11 -4 11 -10z m2774 -13 c13 -20 10 -22 -30 -30
-27 -5 -31 -3 -30 14 1 20 24 41 40 36 5 -2 14 -11 20 -20z m1304 -42 c-1 -30
-5 -55 -10 -55 -4 0 -8 9 -8 21 0 11 -4 28 -9 37 -10 20 4 66 19 57 5 -3 9
-30 8 -60z m-1128 30 c0 -14 -4 -25 -10 -25 -5 0 -10 11 -10 25 0 14 5 25 10
25 6 0 10 -11 10 -25z m-3080 -9 c0 -11 -19 -15 -25 -6 -3 5 1 10 9 10 9 0 16
-2 16 -4z m-109 -59 c-10 -9 -11 -8 -5 6 3 10 9 15 12 12 3 -3 0 -11 -7 -18z
m339 13 c0 -5 -2 -10 -4 -10 -3 0 -8 5 -11 10 -3 6 -1 10 4 10 6 0 11 -4 11
-10z m424 -4 c-8 -21 -31 -27 -38 -10 -3 8 -2 13 2 10 4 -2 14 -1 22 5 20 12
20 11 14 -5z m3683 -18 c-3 -8 -6 -5 -6 6 -1 11 2 17 5 13 3 -3 4 -12 1 -19z
m-2116 -105 c38 -21 69 -40 69 -43 0 -5 -135 -80 -145 -80 -3 0 -5 36 -5 80 0
44 3 80 6 80 4 0 38 -17 75 -37z m2059 -44 c0 -55 -3 -69 -15 -69 -8 0 -16 8
-16 18 -1 9 -2 24 -3 32 0 8 4 18 9 23 7 4 6 10 -2 15 -16 10 -5 62 13 55 10
-4 14 -24 14 -74z m-3520 7 c0 -3 -4 -8 -10 -11 -5 -3 -10 -1 -10 4 0 6 5 11
10 11 6 0 10 -2 10 -4z m3678 -41 c-3 -3 -9 2 -12 12 -6 14 -5 15 5 6 7 -7 10
-15 7 -18z m-3698 5 c0 -5 -4 -10 -9 -10 -6 0 -13 5 -16 10 -3 6 1 10 9 10 9
0 16 -4 16 -10z m2220 -14 c0 -14 -28 -42 -35 -34 -2 2 -2 14 2 26 6 24 33 31
33 8z m1395 -36 c-3 -5 -11 -10 -16 -10 -6 0 -7 5 -4 10 3 6 11 10 16 10 6 0
7 -4 4 -10z m-4360 -10 c3 -5 1 -10 -4 -10 -6 0 -11 5 -11 10 0 6 2 10 4 10 3
0 8 -4 11 -10z m2535 -9 c0 -5 -7 -17 -16 -26 -9 -8 -14 -24 -11 -35 5 -18
-10 -30 -37 -30 -10 0 -9 11 3 48 12 37 21 48 38 50 13 1 23 -2 23 -7z m400
-11 c0 -5 -4 -10 -10 -10 -5 0 -10 5 -10 10 0 6 5 10 10 10 6 0 10 -4 10 -10z
m-170 -20 c0 -5 -5 -10 -11 -10 -5 0 -7 5 -4 10 3 6 8 10 11 10 2 0 4 -4 4
-10z m-1872 -51 c-20 -13 -38 -11 -38 5 0 9 8 12 26 8 19 -3 22 -7 12 -13z
m82 -139 c0 -11 -7 -20 -15 -20 -15 0 -21 21 -8 33 12 13 23 7 23 -13z m365 0
c-3 -5 -10 -10 -16 -10 -5 0 -9 5 -9 10 0 6 7 10 16 10 8 0 12 -4 9 -10z
m1105 -320 c0 -5 -9 -10 -19 -10 -11 0 -23 5 -26 10 -4 6 5 10 19 10 14 0 26
-4 26 -10z m-63 -6 c-3 -3 -12 -4 -19 -1 -8 3 -5 6 6 6 11 1 17 -2 13 -5z
m165 -5 c-15 -6 -30 -5 -40 1 -13 7 -8 9 23 9 35 0 37 -1 17 -10z m-193 -23
c30 -16 16 -26 -29 -20 -19 2 -59 7 -88 10 -35 5 -49 10 -40 15 20 13 130 10
157 -5z m191 -23 c49 -6 52 -7 27 -14 -37 -10 -179 1 -152 12 26 10 57 10 125
2z m280 -103 c0 -5 -9 -10 -20 -10 -11 0 -20 5 -20 10 0 6 9 10 20 10 11 0 20
-4 20 -10z m-1485 -38 c0 -18 -20 -15 -23 4 -3 10 1 15 10 12 7 -3 13 -10 13
-16z m1255 -12 c0 -5 -9 -10 -20 -10 -11 0 -20 5 -20 10 0 6 9 10 20 10 11 0
20 -4 20 -10z m153 -27 c-7 -2 -19 -2 -25 0 -7 3 -2 5 12 5 14 0 19 -2 13 -5z
m-80 -60 c-7 -2 -19 -2 -25 0 -7 3 -2 5 12 5 14 0 19 -2 13 -5z"/>
<path d="M2543 3463 c25 -4 27 -8 27 -53 0 -27 5 -52 10 -55 6 -4 10 15 10 51
0 55 1 56 25 52 14 -3 25 -1 25 3 0 5 -28 8 -62 8 -35 -1 -51 -4 -35 -6z"/>
<path d="M2494 3400 c1 -44 2 -45 34 -45 32 -1 32 0 30 45 -1 43 -2 44 -5 8
-2 -21 -8 -39 -14 -39 -29 -5 -35 -1 -40 36 l-7 40 2 -45z"/>
<path d="M2601 3393 l2 -48 6 40 c5 31 11 41 28 43 14 2 23 -3 26 -15 4 -14 5
-13 6 5 1 19 -4 22 -34 22 l-35 0 1 -47z"/>
<path d="M2661 3374 c0 -11 3 -14 6 -6 3 7 2 16 -1 19 -3 4 -6 -2 -5 -13z"/>
<path d="M4340 3380 c0 -5 7 -10 16 -10 8 0 12 5 9 10 -3 6 -10 10 -16 10 -5
0 -9 -4 -9 -10z"/>
<path d="M4483 3039 c9 -5 17 -17 17 -25 0 -10 8 -14 23 -12 12 2 21 8 19 13
-2 6 -9 9 -16 7 -7 -1 -19 5 -26 13 -7 8 -18 15 -24 15 -6 0 -3 -5 7 -11z"/>
<path d="M4455 2950 c-3 -5 1 -10 9 -10 9 0 16 5 16 10 0 6 -4 10 -9 10 -6 0
-13 -4 -16 -10z"/>
<path d="M4380 2875 c0 -20 17 -28 23 -11 3 8 -1 17 -9 20 -8 3 -14 -1 -14 -9z"/>
<path d="M3080 3365 c0 -16 6 -25 15 -25 9 0 15 9 15 25 0 16 -6 25 -15 25 -9
0 -15 -9 -15 -25z"/>
<path d="M4924 3375 c-7 -18 3 -35 22 -35 8 0 14 10 14 25 0 27 -27 35 -36 10z"/>
<path d="M4630 3350 c0 -5 7 -10 15 -10 8 0 15 5 15 10 0 6 -7 10 -15 10 -8 0
-15 -4 -15 -10z"/>
<path d="M2990 3350 c0 -5 7 -10 15 -10 8 0 15 5 15 10 0 6 -7 10 -15 10 -8 0
-15 -4 -15 -10z"/>
<path d="M3160 3350 c0 -5 7 -10 15 -10 8 0 15 5 15 10 0 6 -7 10 -15 10 -8 0
-15 -4 -15 -10z"/>
<path d="M3277 3377 c-3 -8 -2 -20 3 -27 11 -18 42 -4 38 17 -4 22 -34 29 -41
10z"/>
<path d="M3500 3365 c0 -18 5 -25 20 -25 15 0 20 7 20 25 0 18 -5 25 -20 25
-15 0 -20 -7 -20 -25z"/>
<path d="M3890 3350 c0 -5 7 -10 15 -10 8 0 15 5 15 10 0 6 -7 10 -15 10 -8 0
-15 -4 -15 -10z"/>
<path d="M4803 3374 c-8 -20 13 -42 27 -28 12 12 3 44 -11 44 -5 0 -12 -7 -16
-16z"/>
<path d="M4840 3280 c0 -5 5 -10 10 -10 6 0 10 5 10 10 0 6 -4 10 -10 10 -5 0
-10 -4 -10 -10z"/>
<path d="M5057 2823 c-12 -12 -7 -22 8 -17 8 4 15 10 15 15 0 11 -14 12 -23 2z"/>
<path d="M4985 2803 c3 -12 1 -24 -5 -28 -16 -10 -12 -33 10 -55 24 -24 65
-28 57 -6 -4 9 2 17 14 21 15 5 17 10 10 19 -6 7 -8 16 -5 19 4 4 -5 1 -19 -6
-14 -6 -24 -13 -22 -16 5 -4 -21 -31 -30 -31 -3 0 -3 5 0 10 3 6 1 10 -4 10
-17 0 10 38 31 43 26 7 22 25 -4 23 -13 -1 -27 3 -31 9 -5 5 -6 0 -2 -12z m45
-83 c0 -5 -5 -10 -11 -10 -5 0 -7 5 -4 10 3 6 8 10 11 10 2 0 4 -4 4 -10z"/>
<path d="M5015 3380 c-3 -5 1 -10 9 -10 9 0 16 5 16 10 0 6 -4 10 -9 10 -6 0
-13 -4 -16 -10z"/>
<path d="M5170 3350 c0 -5 4 -10 9 -10 6 0 13 5 16 10 3 6 -1 10 -9 10 -9 0
-16 -4 -16 -10z"/>
<path d="M5300 3159 c0 -5 5 -7 10 -4 6 3 10 8 10 11 0 2 -4 4 -10 4 -5 0 -10
-5 -10 -11z"/>
<path d="M2670 3041 c0 -5 5 -13 10 -16 6 -3 10 -2 10 4 0 5 -4 13 -10 16 -5
3 -10 2 -10 -4z"/>
<path d="M2626 2995 c4 -8 9 -15 13 -15 4 0 8 7 8 15 0 8 -6 15 -13 15 -8 0
-11 -6 -8 -15z"/>
<path d="M5956 3386 c5 -20 2 -26 -10 -26 -13 0 -14 -4 -4 -25 6 -14 15 -25
20 -25 5 0 2 -8 -8 -17 -16 -16 -15 -18 12 -25 17 -5 30 -4 32 2 2 6 9 10 16
10 6 0 12 9 13 20 1 11 -2 20 -8 20 -5 0 -9 -4 -9 -10 0 -5 -7 -10 -15 -10
-18 0 -19 12 -3 28 9 9 9 12 0 12 -18 0 -15 18 4 22 12 2 8 9 -15 26 l-32 23
7 -25z"/>
<path d="M6290 3340 c0 -5 5 -10 11 -10 5 0 7 5 4 10 -3 6 -8 10 -11 10 -2 0
-4 -4 -4 -10z"/>
<path d="M6520 3295 c7 -9 15 -13 17 -11 7 7 -7 26 -19 26 -6 0 -6 -6 2 -15z"/>
<path d="M6033 3269 c-10 -10 -8 -16 9 -31 12 -10 24 -16 27 -13 3 4 0 9 -6
13 -6 4 -12 15 -14 25 -3 14 -7 16 -16 6z"/>
<path d="M5907 3226 c-4 -10 -1 -13 9 -9 7 3 14 9 14 14 0 14 -17 10 -23 -5z"/>
<path d="M6380 3136 c0 -15 21 -46 31 -46 6 0 17 -7 26 -15 8 -9 18 -13 22
-10 3 4 -3 11 -14 17 -10 6 -29 22 -42 36 -13 14 -23 22 -23 18z"/>
<path d="M6490 3132 c0 -5 7 -15 15 -22 8 -7 15 -8 15 -2 0 5 -7 15 -15 22 -8
7 -15 8 -15 2z"/>
<path d="M6075 2780 c-3 -5 -24 -10 -46 -10 -38 0 -52 -13 -26 -23 6 -3 3 -6
-9 -6 -11 -1 -21 -8 -21 -16 0 -8 3 -12 7 -10 4 2 29 -4 56 -13 l49 -18 1 -55
c3 -129 -1 -119 44 -119 45 0 42 -8 44 114 1 66 2 70 28 77 35 9 38 -1 38
-107 l0 -84 180 0 c99 0 180 4 180 9 0 10 -24 21 -48 21 -8 0 -23 6 -31 14
-26 23 -57 24 -53 2 3 -17 1 -16 -29 5 l-32 23 34 12 c19 7 28 13 22 13 -7 1
-13 10 -13 21 0 11 -8 24 -17 27 -41 16 -64 71 -24 58 29 -9 37 25 11 45 -20
15 -26 15 -73 -1 -29 -10 -66 -18 -83 -19 -17 0 -37 -6 -43 -14 -10 -12 -16
-10 -38 10 -15 14 -37 27 -50 30 -13 4 -23 10 -23 15 0 12 -27 11 -35 -1z"/>
<path d="M6871 2764 c0 -11 3 -14 6 -6 3 7 2 16 -1 19 -3 4 -6 -2 -5 -13z"/>
<path d="M6940 2746 c0 -8 8 -17 18 -19 16 -4 16 -5 0 -6 -22 -1 -23 -14 -3
-31 9 -7 14 -19 11 -27 -3 -7 -2 -23 3 -36 5 -12 9 -25 10 -30 0 -4 7 -20 15
-36 9 -16 13 -31 10 -34 -3 -3 -1 -14 5 -24 9 -15 10 -13 11 15 0 52 -20 174
-33 202 -18 38 -47 54 -47 26z"/>
<path d="M6460 2730 c0 -5 5 -10 11 -10 5 0 7 5 4 10 -3 6 -8 10 -11 10 -2 0
-4 -4 -4 -10z"/>
<path d="M6445 2685 c20 -16 37 -16 36 0 0 5 -13 10 -28 12 -27 3 -27 3 -8
-12z"/>
<path d="M6568 2683 c6 -3 10 -9 6 -14 -3 -5 1 -9 9 -9 28 0 26 25 -2 26 -14
1 -20 -1 -13 -3z"/>
<path d="M5840 2660 c0 -5 5 -10 10 -10 6 0 10 5 10 10 0 6 -4 10 -10 10 -5 0
-10 -4 -10 -10z"/>
<path d="M5900 2661 c0 -5 5 -13 11 -17 20 -12 -7 -27 -29 -15 -11 6 -23 11
-26 11 -4 0 6 -40 21 -80 4 -8 5 -18 5 -22 -4 -16 14 -7 27 14 l14 22 10 -24
c6 -14 9 -28 9 -32 -1 -5 21 -8 49 -8 36 0 49 4 47 13 -3 6 -19 12 -35 12 -33
0 -51 10 -39 22 4 4 10 2 14 -4 11 -17 31 -1 28 22 -2 11 1 23 7 26 5 4 -4 10
-21 14 -17 3 -36 13 -43 21 -17 21 -49 37 -49 25z m65 -78 c5 -14 -13 -17 -39
-7 -24 9 -19 19 9 19 14 0 27 -6 30 -12z"/>
<path d="M3091 2568 c-1 -21 4 -38 9 -38 11 0 11 14 0 50 -7 22 -8 21 -9 -12z"/>
<path d="M6520 2575 c0 -10 29 -24 34 -17 3 6 -3 12 -14 15 -11 3 -20 4 -20 2z"/>
<path d="M6596 2566 c3 -9 16 -16 28 -15 14 0 16 2 6 6 -8 3 -21 10 -28 16 -9
7 -11 6 -6 -7z"/>
<path d="M2850 2550 c6 -11 12 -20 14 -20 2 0 2 9 -1 20 -3 11 -9 20 -15 20
-5 0 -4 -9 2 -20z"/>
<path d="M6610 2520 c0 -5 9 -10 20 -10 11 0 20 5 20 10 0 6 -9 10 -20 10 -11
0 -20 -4 -20 -10z"/>
<path d="M6184 2456 c-17 -8 -34 -21 -38 -31 -9 -25 -7 -30 6 -17 14 14 87 16
123 2 14 -5 30 -21 35 -35 13 -35 20 -31 10 6 -12 41 -28 59 -67 76 -38 15
-31 15 -69 -1z"/>
<path d="M5325 2390 c3 -5 1 -10 -6 -10 -7 0 -10 -2 -7 -5 8 -9 38 6 32 16 -3
5 -10 9 -15 9 -6 0 -7 -4 -4 -10z"/>
<path d="M2437 2368 c-6 -3 7 -11 29 -17 39 -10 135 -8 222 6 26 3 68 6 95 5
27 -1 47 3 47 9 0 11 -373 9 -393 -3z"/>
<path d="M6970 2339 c0 -5 11 -9 25 -9 14 0 25 2 25 4 0 2 -11 6 -25 8 -14 3
-25 1 -25 -3z"/>
<path d="M6168 2333 c7 -3 16 -2 19 1 4 3 -2 6 -13 5 -11 0 -14 -3 -6 -6z"/>
<path d="M6258 2333 c7 -3 16 -2 19 1 4 3 -2 6 -13 5 -11 0 -14 -3 -6 -6z"/>
<path d="M6937 2321 c3 -12 9 -21 14 -21 14 0 11 16 -5 29 -12 10 -13 8 -9 -8z"/>
<path d="M6180 2310 c-8 -5 -11 -12 -7 -16 4 -4 13 -2 19 4 15 15 7 24 -12 12z"/>
<path d="M6250 2304 c0 -8 5 -12 10 -9 6 4 8 11 5 16 -9 14 -15 11 -15 -7z"/>
<path d="M7000 2305 c-10 -12 -10 -15 1 -16 8 0 3 -5 -10 -10 -16 -6 -28 -6
-34 0 -6 6 -16 6 -27 -2 -14 -8 -22 -8 -35 3 -14 11 -17 10 -22 -8 -3 -12 -9
-22 -13 -22 -9 0 -12 -232 -3 -292 4 -32 10 -39 36 -47 l32 -9 -32 -1 c-37 -1
-36 3 -37 -118 l-1 -83 62 0 c55 0 64 3 82 26 17 22 21 41 21 110 l0 84 -39 0
c-22 0 -43 5 -46 11 -12 18 3 22 45 11 l40 -10 0 194 c0 107 -2 194 -4 194 -2
0 -9 -7 -16 -15z m-30 -254 c0 -5 -16 -12 -35 -15 -19 -4 -35 -11 -35 -17 0
-6 -5 -7 -10 -4 -16 10 13 33 46 38 16 2 30 5 32 6 1 0 2 -3 2 -8z m-37 -178
c-7 -2 -21 -2 -30 0 -10 3 -4 5 12 5 17 0 24 -2 18 -5z m10 -160 c-13 -2 -33
-2 -45 0 -13 2 -3 4 22 4 25 0 35 -2 23 -4z"/>
<path d="M6185 2167 c-23 -17 -12 -37 21 -37 19 0 24 5 24 25 0 28 -17 32 -45
12z"/>
<path d="M6127 2129 c-17 -26 -25 -30 -107 -67 -25 -11 -52 -28 -61 -38 -22
-27 -60 -157 -69 -235 -4 -36 -10 -71 -14 -77 -5 -9 78 -12 342 -12 l349 0 -3
45 c-2 25 -10 56 -19 68 -8 12 -15 39 -15 59 0 21 -13 68 -30 104 -28 62 -32
66 -94 94 -35 16 -74 42 -86 57 -17 22 -23 25 -30 13 -6 -8 -7 -21 -5 -29 3
-8 10 -33 15 -56 5 -24 21 -75 36 -115 26 -72 26 -73 6 -92 -19 -19 -19 -19
-49 6 -43 36 -57 76 -50 147 5 54 3 60 -11 54 -32 -12 -36 -10 -62 45 l-27 54
-16 -25z m33 -114 c0 -41 5 -50 42 -86 l43 -41 -35 -29 c-19 -16 -52 -38 -72
-49 -20 -11 -39 -24 -43 -30 -8 -12 -45 -13 -64 -1 -12 8 -9 20 14 75 16 37
38 78 51 91 13 14 26 44 29 70 10 62 35 62 35 0z"/>
<path d="M2820 1896 c0 -2 7 -7 16 -10 8 -3 12 -2 9 4 -6 10 -25 14 -25 6z"/>
<path d="M3006 1855 c3 -31 21 -55 41 -55 18 0 43 24 43 42 0 7 -7 2 -16 -10
-8 -12 -19 -22 -24 -22 -18 0 -38 30 -33 50 3 11 1 20 -4 20 -6 0 -9 -11 -7
-25z"/>
<path d="M2840 1820 c0 -11 5 -20 10 -20 6 0 10 9 10 20 0 11 -4 20 -10 20 -5
0 -10 -9 -10 -20z"/>
<path d="M0 195 l0 -195 6400 0 6400 0 0 195 0 195 -6400 0 -6400 0 0 -195z
m5990 135 c0 -5 -5 -10 -11 -10 -5 0 -7 5 -4 10 3 6 8 10 11 10 2 0 4 -4 4
-10z m350 -44 c0 -51 -1 -53 -27 -52 -24 1 -28 5 -28 31 0 22 5 30 23 35 13 3
23 8 23 13 -2 19 -1 27 4 27 3 0 5 -24 5 -54z m1167 -28 c-2 -18 -4 -6 -4 27
0 33 2 48 4 33 2 -15 2 -42 0 -60z m-2091 47 c15 -23 15 -27 0 -50 -22 -33
-60 -33 -82 0 -15 23 -15 27 0 50 10 15 26 25 41 25 15 0 31 -10 41 -25z m114
10 c11 -13 9 -20 -10 -40 l-23 -25 21 0 c12 0 22 -4 22 -10 0 -5 -13 -10 -30
-10 -35 0 -38 15 -9 46 23 25 18 47 -8 37 -11 -4 -14 -3 -9 5 10 17 31 15 46
-3z m78 -23 c6 -56 -41 -88 -54 -37 -10 42 3 77 29 73 17 -2 23 -11 25 -36z
m70 14 c3 -12 -5 -27 -19 -37 l-24 -19 23 0 c12 0 22 -4 22 -10 0 -5 -13 -10
-30 -10 -35 0 -38 13 -10 37 24 21 28 58 5 49 -8 -3 -15 -1 -15 5 0 19 45 5
48 -15z m74 -12 c5 -41 -14 -79 -25 -50 -4 9 -13 16 -22 16 -20 0 -19 5 7 40
28 39 35 38 40 -6z m93 -39 c16 0 21 9 26 40 l6 40 2 -41 c1 -47 -17 -69 -49
-59 -17 5 -20 14 -19 53 l2 47 6 -40 c5 -31 10 -40 26 -40z m645 25 c0 -46 -2
-50 -25 -50 -27 0 -48 30 -39 54 3 9 15 16 25 16 10 0 19 7 19 15 0 8 5 15 10
15 6 0 10 -22 10 -50z m108 43 c-14 -3 -18 -15 -18 -49 0 -28 -4 -43 -10 -39
-5 3 -10 24 -10 45 0 21 -6 41 -12 43 -7 3 5 5 27 5 22 0 32 -2 23 -5z m456
-29 l25 -37 4 39 c3 34 4 32 5 -13 1 -29 -2 -53 -6 -53 -4 0 -17 15 -27 33
-20 32 -20 32 -23 7 -7 -50 -22 -44 -22 8 0 29 4 52 10 52 5 0 20 -16 34 -36z
m-1096 -33 c2 -21 0 -31 -7 -26 -6 3 -11 18 -11 31 0 35 -23 26 -31 -12 -6
-27 -7 -26 -8 9 -1 36 1 38 27 35 23 -2 28 -8 30 -37z m32 2 c0 -20 -3 -33 -7
-30 -10 10 -11 67 -1 67 4 0 8 -16 8 -37z m34 15 l6 -23 15 25 c8 15 14 19 14
10 0 -23 -25 -64 -32 -53 -15 24 -26 63 -18 63 5 0 12 -10 15 -22z m104 0 c2
-13 -3 -18 -20 -19 -23 -1 -23 -1 2 -9 22 -6 23 -8 8 -15 -27 -11 -48 1 -48
28 0 13 3 27 7 31 13 13 48 1 51 -16z m45 15 c-7 -2 -13 -18 -13 -34 0 -18 -4
-28 -10 -24 -5 3 -10 19 -10 36 0 24 4 29 23 28 12 0 16 -3 10 -6z m42 -2
c-19 -8 -19 -8 3 -20 19 -10 21 -15 11 -27 -13 -16 -39 -19 -39 -4 0 6 8 10
18 10 16 1 16 1 0 11 -26 14 -22 39 5 38 21 0 21 -1 2 -8z m42 -43 c-2 -13 -4
-5 -4 17 -1 22 1 32 4 23 2 -10 2 -28 0 -40z m153 19 c0 -28 -4 -33 -25 -35
-19 -1 -25 3 -25 18 0 11 7 20 15 20 8 0 15 5 15 11 0 6 -7 9 -15 5 -8 -3 -15
-1 -15 4 0 6 11 10 25 10 22 0 25 -4 25 -33z m248 11 c3 -14 -4 -18 -25 -19
-23 -1 -24 -2 -5 -6 29 -6 29 -25 0 -21 -23 3 -34 28 -24 54 8 21 50 14 54 -8z
m45 12 c-28 -12 -30 -30 -3 -37 20 -5 28 -23 11 -23 -24 0 -41 14 -41 34 0 28
8 36 34 35 20 0 20 -1 -1 -9z m91 -16 c4 -15 2 -32 -3 -37 -8 -8 -11 -1 -11
21 0 22 -5 32 -15 32 -10 0 -15 -10 -15 -31 0 -17 -4 -28 -10 -24 -5 3 -10 19
-10 36 0 25 4 29 29 29 23 0 30 -5 35 -26z m23 -26 c-2 -13 -4 -5 -4 17 -1 22
1 32 4 23 2 -10 2 -28 0 -40z m56 42 c-28 -12 -30 -30 -3 -37 20 -5 28 -23 11
-23 -24 0 -41 14 -41 34 0 28 8 36 34 35 20 0 20 -1 -1 -9z m85 -28 c3 -31 2
-33 -25 -30 -29 3 -47 38 -19 38 8 0 18 5 22 12 5 8 2 9 -9 5 -10 -3 -17 -2
-17 4 0 6 10 9 23 7 17 -2 23 -11 25 -36z m202 21 c0 -15 1 -15 18 0 10 10 27
17 38 16 17 0 16 -1 -3 -9 -13 -5 -23 -16 -23 -24 0 -8 10 -16 23 -19 20 -3
21 -4 3 -12 -14 -6 -23 -3 -32 10 -11 15 -14 15 -19 4 -3 -8 -17 -16 -30 -17
-19 -1 -25 3 -25 18 0 11 6 20 14 20 8 0 18 5 22 12 5 8 0 9 -14 6 -12 -4 -20
-2 -16 3 9 16 44 10 44 -8z m92 -23 c-6 -41 -12 -38 -12 6 0 19 4 33 8 30 5
-3 7 -19 4 -36z m85 24 c8 -22 -10 -49 -32 -49 -22 0 -40 27 -32 49 8 21 56
21 64 0z m72 -21 c-1 -36 -2 -36 -8 -9 -9 42 -31 46 -31 6 0 -18 -4 -29 -10
-25 -5 3 -10 19 -10 36 0 26 3 29 30 29 28 0 30 -2 29 -37z m71 4 c0 -28 -4
-33 -25 -35 -19 -1 -25 3 -25 18 0 14 7 20 21 20 12 0 17 4 14 11 -4 6 -13 8
-21 5 -8 -3 -14 -1 -14 4 0 6 11 10 25 10 22 0 25 -4 25 -33z m-1900 -147 c0
-5 -4 -10 -10 -10 -5 0 -10 -18 -10 -40 0 -22 -4 -40 -10 -40 -5 0 -10 18 -10
40 0 22 -4 40 -10 40 -5 0 -10 5 -10 10 0 6 14 10 30 10 17 0 30 -4 30 -10z
m140 -40 c0 -46 -2 -50 -24 -50 -47 0 -61 55 -16 67 11 3 20 12 20 19 0 8 5
14 10 14 6 0 10 -22 10 -50z m197 -28 c-2 -15 -4 -2 -4 28 0 30 2 43 4 27 2
-15 2 -39 0 -55z m263 27 l0 -50 -32 3 c-29 3 -33 6 -33 33 0 23 5 31 23 33
12 2 22 10 22 18 0 8 5 14 10 14 6 0 10 -23 10 -51z m280 36 c0 -8 9 -15 20
-15 11 0 21 -7 21 -15 1 -8 2 -21 3 -27 5 -28 -9 -31 -14 -4 -7 39 -23 39 -30
1 -3 -18 -8 -25 -13 -19 -9 16 -6 94 5 94 4 0 8 -7 8 -15z m720 -35 c0 -46 -2
-50 -24 -50 -52 0 -59 61 -7 68 11 2 21 10 21 18 0 8 2 14 5 14 3 0 5 -22 5
-50z m-1545 -15 c0 -38 -37 -48 -55 -15 -14 27 4 52 34 48 16 -2 21 -10 21
-33z m160 0 c0 -25 -4 -30 -24 -30 -32 0 -49 28 -31 50 7 9 23 15 34 13 16 -2
21 -10 21 -33z m53 28 c-22 -6 -23 -12 -1 -28 9 -7 13 -17 9 -23 -9 -15 -46
-16 -46 -1 0 6 7 9 15 5 20 -7 19 4 -2 19 -20 15 -9 35 20 34 17 -1 18 -2 5
-6z m153 -9 c17 -21 0 -49 -32 -49 -24 0 -36 23 -25 51 7 19 40 18 57 -2z m49
5 c-11 -8 -12 -12 -2 -16 20 -8 14 -43 -8 -43 -11 0 -20 5 -20 11 0 5 4 8 9 4
5 -3 12 -1 15 4 3 5 -1 11 -9 15 -24 9 -18 36 8 36 18 0 19 -2 7 -11z m198
-11 c2 -13 -3 -18 -18 -18 -12 0 -18 -4 -15 -10 4 -6 10 -8 15 -5 5 3 11 1 15
-5 4 -6 -4 -10 -18 -10 -27 0 -41 22 -31 52 7 24 47 21 52 -4z m44 10 c-7 -7
-12 -22 -12 -35 0 -13 -4 -23 -10 -23 -5 0 -10 16 -10 35 0 29 4 35 22 35 17
0 19 -3 10 -12z m76 -10 c3 -14 -3 -18 -25 -18 -21 0 -24 -3 -13 -9 8 -6 18
-7 22 -5 4 3 8 0 8 -6 0 -6 -10 -10 -22 -8 -23 3 -34 28 -24 54 8 21 50 14 54
-8z m45 12 c-36 -15 -28 -47 10 -41 4 0 7 -4 7 -10 0 -18 -45 -5 -48 14 -6 29
6 47 30 46 l23 0 -22 -9z m168 -6 c17 -21 0 -49 -32 -49 -24 0 -36 23 -25 51
7 19 40 18 57 -2z m47 9 c-22 -6 -24 -23 -2 -23 21 0 14 -34 -9 -38 -9 -2 -17
2 -17 8 0 6 4 9 9 5 5 -3 12 -1 15 4 3 5 -1 11 -9 15 -24 9 -18 36 8 35 16 -1
18 -2 5 -6z m95 0 c-7 -2 -13 -18 -13 -34 0 -16 -4 -29 -10 -29 -5 0 -10 16
-10 35 0 30 3 35 23 34 12 0 16 -3 10 -6z m75 -15 c3 -14 -3 -18 -25 -18 -21
0 -24 -3 -13 -9 8 -6 18 -7 22 -5 4 3 8 0 8 -6 0 -6 -10 -10 -22 -8 -23 3 -34
28 -24 54 8 21 50 14 54 -8z m37 13 c-19 -8 -19 -8 0 -18 15 -9 22 -7 35 10
11 13 23 18 33 14 24 -9 21 -37 -4 -37 -12 0 -17 -4 -14 -11 4 -6 13 -8 21 -5
8 3 14 1 14 -4 0 -14 -34 -12 -49 3 -11 10 -14 10 -18 0 -6 -16 -43 -17 -43
-2 0 5 4 8 9 4 5 -3 12 -1 15 4 3 5 -1 11 -9 15 -24 9 -18 36 8 35 20 0 21 -1
2 -8z m165 -13 l9 -23 7 23 c3 12 10 22 15 22 11 0 11 -1 -2 -39 -14 -39 -23
-39 -39 -1 -15 37 -33 34 -41 -6 -6 -27 -7 -27 -8 9 -1 33 2 37 24 37 17 0 29
-8 35 -22z m98 -16 c3 -31 2 -33 -25 -30 -35 4 -37 30 -3 38 17 4 21 8 12 14
-6 4 -17 4 -24 0 -7 -4 -8 -3 -4 5 15 23 41 7 44 -27z m157 3 c0 -25 -4 -30
-24 -30 -32 0 -49 28 -31 50 7 9 23 15 34 13 16 -2 21 -10 21 -33z m53 28
c-22 -6 -23 -12 -1 -28 9 -7 13 -17 9 -23 -9 -15 -46 -16 -46 -1 0 6 7 9 15 5
20 -7 19 4 -2 19 -20 15 -9 35 20 34 17 -1 18 -2 5 -6z m42 -53 c0 -5 -4 -10
-10 -10 -5 0 -10 5 -10 10 0 6 5 10 10 10 6 0 10 -4 10 -10z"/>
<path d="M6297 283 c-4 -3 -7 -12 -7 -20 0 -17 26 -17 33 1 8 21 -11 35 -26
19z"/>
<path d="M5340 300 c-8 -14 -8 -26 0 -40 14 -26 56 -26 70 -1 13 25 13 27 -6
45 -21 22 -51 20 -64 -4z m50 0 c0 -5 -5 -9 -12 -7 -20 4 -21 -31 -1 -36 15
-4 14 -5 -4 -6 -25 -1 -34 17 -21 42 9 18 38 24 38 7z"/>
<path d="M5571 306 c-16 -19 -10 -51 9 -51 17 0 26 43 12 57 -5 5 -14 3 -21
-6z"/>
<path d="M5715 280 c-3 -5 -1 -10 4 -10 6 0 11 5 11 10 0 6 -2 10 -4 10 -3 0
-8 -4 -11 -10z"/>
<path d="M6447 283 c-13 -12 -7 -33 8 -33 8 0 15 9 15 20 0 20 -11 26 -23 13z"/>
<path d="M6090 279 c0 -5 5 -7 10 -4 6 3 10 8 10 11 0 2 -4 4 -10 4 -5 0 -10
-5 -10 -11z"/>
<path d="M6378 253 c7 -3 16 -2 19 1 4 3 -2 6 -13 5 -11 0 -14 -3 -6 -6z"/>
<path d="M6625 280 c3 -5 8 -10 11 -10 2 0 4 5 4 10 0 6 -5 10 -11 10 -5 0 -7
-4 -4 -10z"/>
<path d="M7128 253 c7 -3 16 -2 19 1 4 3 -2 6 -13 5 -11 0 -14 -3 -6 -6z"/>
<path d="M7290 270 c0 -15 5 -20 18 -18 9 2 17 10 17 18 0 8 -8 16 -17 18 -13
2 -18 -3 -18 -18z"/>
<path d="M7448 253 c7 -3 16 -2 19 1 4 3 -2 6 -13 5 -11 0 -14 -3 -6 -6z"/>
<path d="M5674 75 c-7 -17 4 -37 17 -30 12 8 12 45 -1 45 -6 0 -13 -7 -16 -15z"/>
<path d="M6127 76 c-7 -19 18 -42 28 -26 8 13 -1 40 -14 40 -5 0 -11 -6 -14
-14z"/>
<path d="M7134 75 c-3 -8 -3 -19 1 -25 10 -16 35 7 28 26 -7 18 -22 18 -29 -1z"/>
<path d="M5593 74 c-8 -21 13 -42 28 -27 13 13 5 43 -11 43 -6 0 -13 -7 -17
-16z"/>
<path d="M5753 74 c-8 -20 8 -36 26 -25 15 10 8 41 -9 41 -6 0 -13 -7 -17 -16z"/>
<path d="M5953 74 c-6 -16 15 -37 29 -28 4 3 8 14 8 25 0 23 -28 26 -37 3z"/>
<path d="M6210 80 c0 -5 7 -10 16 -10 8 0 12 5 9 10 -3 6 -10 10 -16 10 -5 0
-9 -4 -9 -10z"/>
<path d="M6325 80 c-3 -5 1 -10 9 -10 9 0 16 5 16 10 0 6 -4 10 -9 10 -6 0
-13 -4 -16 -10z"/>
<path d="M6533 74 c-7 -18 17 -38 31 -24 11 11 1 40 -14 40 -6 0 -13 -7 -17
-16z"/>
<path d="M6755 80 c-3 -5 1 -10 9 -10 9 0 16 5 16 10 0 6 -4 10 -9 10 -6 0
-13 -4 -16 -10z"/>
<path d="M6885 80 c-3 -5 1 -10 10 -10 9 0 13 5 10 10 -3 6 -8 10 -10 10 -2 0
-7 -4 -10 -10z"/>
<path d="M7065 50 c4 -6 11 -8 16 -5 14 9 11 15 -7 15 -8 0 -12 -5 -9 -10z"/>
<path d="M7213 74 c-8 -21 13 -42 28 -27 13 13 5 43 -11 43 -6 0 -13 -7 -17
-16z"/>
</g>
</svg>
