<?xml version="1.0" standalone="no"?>
<!DOCTYPE svg PUBLIC "-//W3C//DTD SVG 20010904//EN"
 "http://www.w3.org/TR/2001/REC-SVG-20010904/DTD/svg10.dtd">
<svg version="1.0" xmlns="http://www.w3.org/2000/svg"
 width="217.000000pt" height="135.000000pt" viewBox="0 0 217.000000 135.000000"
 preserveAspectRatio="xMidYMid meet">

<g transform="translate(0.000000,135.000000) scale(0.100000,-0.100000)"
fill="#000000" stroke="none">
<path d="M0 985 l0 -365 185 0 c158 0 185 -2 185 -15 0 -8 5 -15 10 -15 6 0
10 53 10 138 0 94 4 142 12 150 9 9 122 12 448 12 278 0 430 4 420 10 -8 5
-34 7 -57 5 -32 -3 -43 0 -44 11 -3 30 -4 34 -14 34 -5 0 -11 -11 -13 -25 -5
-37 -22 -30 -22 9 0 29 4 34 28 39 27 6 42 37 18 37 -6 0 -5 4 2 9 8 4 14 12
14 16 0 4 -6 12 -14 16 -7 5 -8 9 -2 9 14 0 14 30 0 30 -7 0 -7 3 -1 8 15 11
17 32 2 32 -8 0 -7 4 3 10 13 9 13 10 0 10 -13 0 -13 1 0 10 13 9 13 10 0 10
-13 0 -13 1 0 10 13 9 13 10 0 10 -13 0 -13 1 0 10 13 9 13 10 0 10 -13 0 -13
1 0 10 13 9 13 10 0 10 -13 0 -13 1 0 10 13 9 13 10 0 10 -13 0 -13 1 0 10 13
9 13 10 0 10 -13 0 -13 1 0 10 9 6 207 10 508 10 l492 0 0 30 0 30 -1085 0
-1085 0 0 -365z m430 0 c0 -9 9 -15 23 -15 13 0 28 -5 35 -12 9 -9 15 -9 24 0
7 7 25 12 40 12 25 0 28 -3 28 -35 0 -32 -3 -35 -28 -35 -15 0 -33 5 -40 12
-9 9 -15 9 -24 0 -7 -7 -27 -12 -45 -12 -33 0 -33 0 -33 50 0 28 5 50 10 50 6
0 10 -7 10 -15z m390 0 c0 -8 6 -15 14 -15 7 0 16 -13 20 -30 3 -16 10 -30 16
-30 5 0 10 14 10 30 0 20 5 30 15 30 8 0 15 -5 15 -12 0 -9 3 -9 12 0 7 7 22
12 35 12 14 0 23 6 23 15 0 10 9 15 28 14 16 -1 20 -3 10 -6 -10 -2 -18 -9
-18 -14 0 -10 15 -12 73 -9 36 1 37 1 37 -34 l0 -35 -87 0 c-64 0 -92 4 -104
15 -15 13 -17 13 -22 -1 -13 -33 -59 -13 -70 30 -3 13 -5 9 -6 -12 0 -18 -5
-33 -10 -33 -10 0 -18 55 -13 83 4 21 22 23 22 2z m-625 -20 c0 -13 -8 -21
-22 -23 -15 -2 -23 -10 -23 -23 0 -10 -4 -19 -10 -19 -5 0 -10 21 -10 46 0 45
0 45 33 42 24 -2 32 -8 32 -23z m523 18 c-35 -5 -37 -33 -3 -33 14 0 25 5 25
10 0 6 9 10 19 10 11 0 23 -4 26 -10 3 -5 -1 -10 -10 -10 -15 0 -15 -1 -1 -16
24 -24 12 -32 -49 -33 l-55 0 0 44 0 45 38 -1 c30 -2 32 -3 10 -6z m-448 -44
c0 -38 24 -35 28 4 4 33 22 36 22 5 0 -34 -15 -50 -41 -46 -17 2 -25 11 -29
32 -4 24 -7 26 -16 15 -7 -8 -14 -23 -17 -34 -3 -12 -5 -4 -6 18 -1 35 1 37
29 37 27 0 30 -3 30 -31z m128 9 c3 -14 -3 -18 -28 -18 -20 0 -29 -4 -24 -11
3 -6 17 -8 33 -4 19 5 23 4 15 -5 -30 -30 -76 6 -60 46 8 21 60 14 64 -8z
m222 12 c0 -5 -4 -10 -10 -10 -5 0 -10 5 -10 10 0 6 5 10 10 10 6 0 10 -4 10
-10z m0 -50 c0 -5 -4 -10 -10 -10 -5 0 -10 5 -10 10 0 6 5 10 10 10 6 0 10 -4
10 -10z"/>
<path d="M434 945 c-4 -9 -2 -21 4 -27 15 -15 44 -1 40 19 -4 23 -36 29 -44 8z"/>
<path d="M523 944 c-8 -21 13 -42 28 -27 13 13 5 43 -11 43 -6 0 -13 -7 -17
-16z"/>
<path d="M938 948 c-7 -19 2 -38 17 -38 18 0 26 15 19 34 -7 19 -30 21 -36 4z"/>
<path d="M1053 944 c-8 -21 13 -42 28 -27 13 13 5 43 -11 43 -6 0 -13 -7 -17
-16z"/>
<path d="M150 965 c0 -8 7 -15 15 -15 8 0 15 7 15 15 0 8 -7 15 -15 15 -8 0
-15 -7 -15 -15z"/>
<path d="M690 926 c0 -12 9 -15 35 -13 43 3 40 21 -3 25 -24 2 -32 -1 -32 -12z"/>
<path d="M350 950 c0 -5 9 -10 21 -10 11 0 17 5 14 10 -3 6 -13 10 -21 10 -8
0 -14 -4 -14 -10z"/>
<path d="M1810 1113 c-24 -12 -39 -29 -46 -53 -34 -103 83 -180 159 -104 81
81 -11 208 -113 157z m69 -47 c16 -20 3 -46 -24 -46 -13 0 -26 7 -29 16 -7 19
10 44 29 44 7 0 18 -6 24 -14z m30 -80 c16 -19 -10 -38 -54 -38 -20 0 -42 6
-50 12 -24 20 1 40 50 40 24 0 48 -6 54 -14z"/>
<path d="M2018 1028 c9 -9 15 -9 24 0 9 9 7 12 -12 12 -19 0 -21 -3 -12 -12z"/>
<path d="M1328 903 c12 -2 30 -2 40 0 9 3 -1 5 -23 4 -22 0 -30 -2 -17 -4z"/>
<path d="M2061 604 c0 -11 3 -14 6 -6 3 7 2 16 -1 19 -3 4 -6 -2 -5 -13z"/>
</g>
</svg>
