<?xml version="1.0" standalone="no"?>
<!DOCTYPE svg PUBLIC "-//W3C//DTD SVG 20010904//EN"
 "http://www.w3.org/TR/2001/REC-SVG-20010904/DTD/svg10.dtd">
<svg version="1.0" xmlns="http://www.w3.org/2000/svg"
 width="520.000000pt" height="578.000000pt" viewBox="0 0 520.000000 578.000000"
 preserveAspectRatio="xMidYMid meet">

<g transform="translate(0.000000,578.000000) scale(0.100000,-0.100000)"
fill="#000000" stroke="none">
<path d="M2400 4945 c0 -24 -5 -35 -15 -35 -8 0 -15 -4 -15 -10 0 -5 7 -10 15
-10 12 0 15 -16 15 -85 0 -50 4 -85 10 -85 6 0 10 35 10 85 0 78 2 85 20 85
11 0 20 5 20 10 0 6 -9 10 -20 10 -16 0 -20 7 -20 35 0 19 -4 35 -10 35 -5 0
-10 -16 -10 -35z"/>
<path d="M2740 4850 c0 -80 4 -130 10 -130 6 0 10 7 10 15 0 14 4 14 31 -1 64
-33 139 11 139 81 0 69 -80 117 -135 81 -13 -9 -27 -16 -30 -16 -3 0 -5 23 -5
50 0 28 -4 50 -10 50 -6 0 -10 -50 -10 -130z m145 15 c30 -30 32 -64 4 -99
-41 -52 -129 -19 -129 49 0 12 9 34 21 49 27 34 71 35 104 1z"/>
<path d="M2970 4850 c0 -109 2 -130 15 -130 13 0 15 21 15 130 0 109 -2 130
-15 130 -13 0 -15 -21 -15 -130z"/>
<path d="M1810 4845 c0 -77 4 -125 10 -125 6 0 10 27 10 60 0 33 4 60 8 60 5
0 30 -27 55 -60 26 -33 52 -60 58 -60 13 0 5 13 -38 67 -18 23 -33 44 -33 46
0 3 13 8 29 12 39 8 53 27 49 67 -4 40 -34 58 -100 58 l-48 0 0 -125z m118 93
c7 -7 12 -21 12 -33 0 -32 -20 -45 -67 -45 l-43 0 0 45 0 45 43 0 c24 0 48 -5
55 -12z"/>
<path d="M2063 4900 c-32 -13 -56 -65 -49 -106 8 -38 47 -74 83 -74 28 0 83
26 83 40 0 14 -12 12 -34 -5 -31 -24 -72 -19 -95 11 -12 15 -21 31 -21 35 0 5
36 9 80 9 78 0 80 1 80 24 0 29 -52 76 -83 75 -12 0 -32 -4 -44 -9z m85 -26
c42 -29 28 -44 -43 -44 -69 0 -79 8 -48 42 20 22 61 23 91 2z"/>
<path d="M2252 4898 c-7 -7 -12 -24 -12 -39 0 -20 9 -32 36 -48 26 -16 35 -27
32 -44 -3 -19 -8 -22 -43 -20 -37 2 -39 1 -21 -12 39 -29 86 -10 86 35 0 24
-8 35 -40 55 -42 27 -45 32 -31 54 6 9 19 11 42 7 32 -7 33 -6 15 9 -24 18
-48 19 -64 3z"/>
<path d="M2541 4896 c-26 -15 -50 -51 -51 -79 0 -30 27 -72 55 -85 34 -16 54
-15 88 2 23 13 27 13 27 0 0 -8 5 -14 10 -14 6 0 10 38 10 95 0 57 -4 95 -10
95 -5 0 -10 -6 -10 -14 0 -13 -4 -13 -27 0 -34 17 -61 17 -92 0z m96 -28 c30
-28 30 -74 1 -105 -45 -48 -122 -16 -122 52 0 67 72 99 121 53z"/>
<path d="M3093 4900 c-32 -13 -56 -65 -49 -106 8 -38 47 -74 83 -74 28 0 83
26 83 40 0 14 -12 12 -34 -5 -31 -24 -72 -19 -95 11 -12 15 -21 31 -21 35 0 5
36 9 80 9 78 0 80 1 80 24 0 29 -52 76 -83 75 -12 0 -32 -4 -44 -9z m85 -26
c42 -29 28 -44 -43 -44 -69 0 -79 8 -48 42 20 22 61 23 91 2z"/>
<path d="M3318 4894 c-77 -41 -58 -154 29 -170 39 -7 109 18 98 36 -4 6 -14 5
-28 -5 -53 -37 -127 -1 -127 61 0 60 75 95 127 59 13 -9 24 -11 28 -6 7 13
-47 41 -77 41 -13 -1 -35 -7 -50 -16z"/>
<path d="M3532 4885 c-27 -22 -32 -34 -32 -68 1 -60 36 -97 93 -97 29 0 80 37
71 52 -4 5 -15 1 -28 -11 -12 -12 -33 -21 -47 -21 -33 0 -69 26 -69 51 0 17 7
19 81 19 l81 0 -7 28 c-9 38 -35 62 -76 68 -28 5 -41 1 -67 -21z m100 -12 c34
-41 32 -43 -41 -43 -75 0 -84 7 -51 40 25 25 72 26 92 3z"/>
<path d="M3720 4815 c0 -57 4 -95 10 -95 6 0 10 24 11 53 1 72 11 100 37 112
12 5 22 13 22 17 0 12 -25 9 -39 -4 -11 -10 -14 -10 -18 0 -13 36 -23 1 -23
-83z"/>
<path d="M2540 4525 c0 -28 -4 -35 -20 -35 -11 0 -20 -4 -20 -10 0 -5 9 -10
20 -10 18 0 20 -7 20 -85 0 -50 4 -85 10 -85 6 0 10 35 10 85 0 69 3 85 15 85
8 0 15 5 15 10 0 6 -7 10 -15 10 -10 0 -15 11 -15 35 0 19 -4 35 -10 35 -5 0
-10 -16 -10 -35z"/>
<path d="M3370 4540 c-8 -5 -13 -10 -10 -10 56 -7 98 -7 110 0 12 8 11 10 -6
10 -12 0 -34 2 -50 5 -16 3 -36 1 -44 -5z"/>
<path d="M1888 4474 c-77 -41 -58 -154 29 -170 39 -7 109 18 98 36 -4 6 -14 5
-28 -5 -53 -37 -127 -1 -127 61 0 60 75 95 127 59 13 -9 24 -11 28 -6 7 13
-47 41 -77 41 -13 -1 -35 -7 -50 -16z"/>
<path d="M2101 4464 c-26 -21 -31 -33 -31 -69 0 -36 5 -48 31 -69 41 -35 83
-34 120 3 21 22 29 39 29 66 0 27 -8 44 -29 66 -37 37 -79 38 -120 3z m106
-16 c30 -28 30 -74 1 -105 -45 -48 -118 -16 -118 52 0 67 69 99 117 53z"/>
<path d="M2300 4395 c0 -107 16 -129 22 -31 4 75 25 106 69 106 38 0 49 -24
49 -104 0 -37 4 -66 10 -66 6 0 10 31 10 73 0 60 -4 77 -20 95 -24 26 -50 28
-90 7 -27 -14 -30 -14 -30 0 0 8 -4 15 -10 15 -6 0 -10 -38 -10 -95z"/>
<path d="M2630 4395 c0 -57 4 -95 10 -95 6 0 10 28 10 64 0 79 6 95 39 108 21
9 23 12 8 15 -10 3 -24 -1 -32 -7 -11 -9 -15 -9 -15 -1 0 6 -4 11 -10 11 -6 0
-10 -38 -10 -95z"/>
<path d="M2781 4476 c-26 -15 -50 -51 -51 -79 0 -30 27 -72 55 -85 34 -16 54
-15 88 2 23 13 27 13 27 0 0 -8 5 -14 10 -14 6 0 10 38 10 95 0 57 -4 95 -10
95 -5 0 -10 -6 -10 -14 0 -13 -4 -13 -27 0 -34 17 -61 17 -92 0z m96 -28 c30
-28 30 -74 1 -105 -45 -48 -122 -16 -122 52 0 67 72 99 121 53z"/>
<path d="M2986 4474 c-26 -25 -19 -47 26 -85 38 -33 41 -39 28 -54 -10 -12
-23 -15 -49 -11 -34 6 -35 5 -17 -9 11 -8 28 -15 38 -15 21 0 58 34 58 54 0
15 -55 66 -71 66 -6 0 -9 10 -7 23 2 18 9 22 36 20 27 -1 31 1 21 13 -15 19
-44 18 -63 -2z"/>
<path d="M3139 4461 c-21 -22 -29 -39 -29 -66 0 -47 44 -95 88 -95 31 0 86 36
77 50 -3 5 -15 0 -25 -10 -26 -26 -74 -26 -100 0 -40 40 -27 50 60 50 74 0 80
1 80 21 0 32 -53 79 -90 79 -22 0 -41 -9 -61 -29z m111 -11 c33 -33 24 -40
-51 -40 -73 0 -75 2 -41 43 20 23 67 22 92 -3z"/>
<path d="M3340 4395 c0 -107 16 -129 22 -31 4 75 25 106 69 106 38 0 49 -24
49 -104 0 -37 4 -66 10 -66 6 0 10 31 10 73 0 60 -4 77 -20 95 -24 26 -50 28
-90 7 -27 -14 -30 -14 -30 0 0 8 -4 15 -10 15 -6 0 -10 -38 -10 -95z"/>
<path d="M3579 4461 c-77 -77 20 -207 109 -145 20 14 22 14 22 0 0 -9 7 -16
15 -16 12 0 15 17 15 95 0 78 -3 95 -15 95 -8 0 -15 -7 -15 -16 0 -14 -2 -14
-22 0 -35 25 -76 20 -109 -13z m112 -10 c17 -13 23 -29 23 -56 0 -67 -72 -99
-121 -53 -68 64 25 168 98 109z"/>
<path d="M2290 4110 c0 -7 173 -10 500 -10 327 0 500 3 500 10 0 7 -173 10
-500 10 -327 0 -500 -3 -500 -10z"/>
<path d="M1423 3780 c0 -36 2 -50 4 -32 2 17 2 47 0 65 -2 17 -4 3 -4 -33z"/>
<path d="M1559 3825 c-2 -11 -2 -40 2 -65 l6 -45 1 43 c1 26 7 42 15 42 8 0 9
3 1 8 -6 4 -13 14 -16 22 -3 11 -6 9 -9 -5z"/>
<path d="M1840 3813 c0 -21 -3 -24 -12 -15 -14 14 -44 16 -52 3 -3 -4 5 -6 17
-4 31 6 55 -22 40 -45 -6 -10 -22 -17 -36 -17 -14 1 -23 -3 -21 -7 3 -4 21 -7
40 -5 l34 2 0 58 c0 31 -2 57 -5 57 -3 0 -5 -12 -5 -27z"/>
<path d="M2809 3825 c-2 -11 -2 -40 2 -65 l6 -45 1 43 c1 26 7 42 15 42 8 0 9
3 1 8 -6 4 -13 14 -16 22 -3 11 -6 9 -9 -5z"/>
<path d="M3197 3833 c-3 -5 6 -9 20 -10 19 -1 22 1 12 8 -17 11 -26 11 -32 2z"/>
<path d="M3439 3825 c-2 -11 -2 -40 2 -65 l6 -45 1 43 c1 26 7 42 15 42 8 0 9
3 1 8 -6 4 -13 14 -16 22 -3 11 -6 9 -9 -5z"/>
<path d="M4113 3780 c0 -36 2 -50 4 -32 2 17 2 47 0 65 -2 17 -4 3 -4 -33z"/>
<path d="M1473 3803 c-7 -2 -13 -12 -13 -21 0 -13 2 -13 14 3 21 29 46 12 48
-32 l1 -38 4 33 c6 48 -16 71 -54 55z"/>
<path d="M1612 3761 c1 -41 2 -42 5 -11 3 19 9 40 14 46 5 7 3 11 -6 11 -11 0
-15 -12 -13 -46z"/>
<path d="M1672 3798 c-7 -7 -12 -16 -12 -22 0 -5 6 -1 14 9 8 11 19 16 30 12
25 -10 31 -36 12 -55 -14 -14 -19 -15 -39 -3 -20 13 -21 13 -8 -2 19 -24 50
-21 62 7 21 45 -26 87 -59 54z"/>
<path d="M1871 3779 c-1 -40 17 -63 45 -57 10 2 19 10 21 18 4 12 3 12 -5 2
-18 -27 -47 -9 -53 33 l-6 40 -2 -36z"/>
<path d="M1942 3790 c0 -14 2 -19 5 -12 2 6 2 18 0 25 -3 6 -5 1 -5 -13z"/>
<path d="M1973 3803 c9 -2 25 -2 35 0 9 3 1 5 -18 5 -19 0 -27 -2 -17 -5z"/>
<path d="M2049 3793 c-13 -15 -12 -15 9 -2 19 12 25 12 45 0 20 -13 21 -13 8
2 -7 10 -21 17 -31 17 -10 0 -24 -7 -31 -17z"/>
<path d="M2152 3798 c-16 -16 -15 -53 2 -67 7 -6 25 -10 40 -9 23 2 26 6 26
43 0 37 -2 41 -28 43 -15 1 -33 -3 -40 -10z m53 -33 c0 -25 -4 -30 -25 -30
-16 0 -26 6 -28 18 -6 30 6 49 30 45 18 -2 23 -9 23 -33z"/>
<path d="M2297 3803 c-13 -12 -7 -28 16 -42 21 -13 22 -13 5 6 -10 11 -18 22
-18 26 0 3 8 8 18 10 14 4 14 5 1 6 -9 0 -19 -2 -22 -6z"/>
<path d="M2419 3775 c-4 -42 -32 -60 -51 -33 -8 10 -9 10 -5 -2 5 -20 41 -24
56 -6 7 8 11 30 9 48 -4 33 -4 33 -9 -7z"/>
<path d="M2509 3793 c-13 -15 -12 -15 9 -2 19 12 25 12 45 0 20 -13 21 -13 8
2 -7 10 -21 17 -31 17 -10 0 -24 -7 -31 -17z"/>
<path d="M2616 3802 c-2 -4 8 -8 22 -7 23 0 27 -4 27 -30 0 -26 -4 -30 -27
-30 -14 1 -24 -3 -22 -7 8 -12 38 -10 52 4 27 27 7 78 -29 78 -10 0 -20 -4
-23 -8z"/>
<path d="M2702 3760 c1 -35 2 -38 5 -13 8 66 62 71 65 6 l1 -38 4 33 c5 42
-11 62 -48 59 -28 -2 -29 -4 -27 -47z"/>
<path d="M2865 3799 c-11 -17 1 -21 15 -4 8 9 8 15 2 15 -6 0 -14 -5 -17 -11z"/>
<path d="M2915 3794 c-31 -32 -11 -68 39 -69 36 -2 36 -1 36 39 0 38 -2 41
-30 43 -16 1 -36 -5 -45 -13z m59 -16 c8 -14 7 -21 -6 -34 -30 -30 -75 9 -48
42 16 18 39 15 54 -8z"/>
<path d="M3017 3803 c-13 -12 -7 -28 16 -42 21 -13 22 -13 5 6 -10 11 -18 22
-18 26 0 3 8 8 18 10 14 4 14 5 1 6 -9 0 -19 -2 -22 -6z"/>
<path d="M3092 3798 c-24 -24 -13 -38 28 -38 43 0 49 9 24 34 -19 19 -36 20
-52 4z m48 -13 c11 -13 8 -15 -19 -15 -30 0 -39 9 -24 23 11 11 30 8 43 -8z"/>
<path d="M3181 3760 l2 -45 6 40 c5 35 9 40 33 40 14 -1 24 3 22 7 -3 5 -19 7
-35 6 -28 -2 -29 -4 -28 -48z"/>
<path d="M3292 3798 c-16 -16 -15 -53 2 -67 7 -6 25 -10 40 -9 23 2 26 6 26
43 0 37 -2 41 -28 43 -15 1 -33 -3 -40 -10z m53 -33 c0 -25 -4 -30 -25 -30
-16 0 -26 6 -28 18 -6 30 6 49 30 45 18 -2 23 -9 23 -33z"/>
<path d="M3502 3798 c-24 -24 -13 -38 28 -38 43 0 49 9 24 34 -19 19 -36 20
-52 4z m48 -13 c11 -13 8 -15 -19 -15 -30 0 -39 9 -24 23 11 11 30 8 43 -8z"/>
<path d="M3592 3760 c1 -44 1 -44 5 -7 4 40 29 60 44 36 6 -11 11 -11 21 -1
23 23 37 13 41 -30 l4 -43 1 43 c2 46 -16 64 -42 43 -10 -8 -16 -9 -21 -2 -3
6 -17 10 -30 9 -23 -2 -25 -6 -23 -48z"/>
<path d="M3740 3785 c1 -18 1 -19 11 -2 5 9 19 17 29 17 10 0 24 -8 29 -17 6
-10 11 -13 11 -7 0 19 -25 34 -54 32 -19 -2 -26 -8 -26 -23z"/>
<path d="M3862 3798 c-27 -27 -7 -78 29 -78 10 0 20 4 23 8 2 4 -8 8 -22 7
-23 0 -27 4 -27 30 0 26 4 30 27 30 14 -1 24 3 22 7 -8 12 -38 10 -52 -4z"/>
<path d="M3952 3760 c1 -40 2 -41 5 -10 2 19 11 40 20 47 13 10 13 12 -6 10
-18 -1 -21 -7 -19 -47z"/>
<path d="M4016 3801 c-4 -5 3 -7 14 -4 11 3 27 0 35 -7 9 -7 15 -8 15 -2 0 19
-54 30 -64 13z"/>
<path d="M1761 3764 c0 -11 3 -14 6 -6 3 7 2 16 -1 19 -3 4 -6 -2 -5 -13z"/>
<path d="M2601 3764 c0 -11 3 -14 6 -6 3 7 2 16 -1 19 -3 4 -6 -2 -5 -13z"/>
<path d="M3921 3764 c0 -11 3 -14 6 -6 3 7 2 16 -1 19 -3 4 -6 -2 -5 -13z"/>
<path d="M4001 3764 c0 -11 3 -14 6 -6 3 7 2 16 -1 19 -3 4 -6 -2 -5 -13z"/>
<path d="M3252 3745 c0 -16 2 -22 5 -12 2 9 2 23 0 30 -3 6 -5 -1 -5 -18z"/>
<path d="M2040 3755 c-1 -33 50 -46 71 -17 11 14 11 15 -1 5 -20 -18 -47 -16
-59 5 -6 9 -11 12 -11 7z"/>
<path d="M2500 3755 c-1 -33 50 -46 71 -17 11 14 11 15 -1 5 -20 -18 -47 -16
-59 5 -6 9 -11 12 -11 7z"/>
<path d="M3742 3725 c0 -22 3 -30 5 -19 3 16 9 20 24 17 21 -6 49 12 49 31 0
6 -5 3 -11 -6 -5 -10 -19 -18 -29 -18 -10 0 -24 8 -29 18 -8 13 -10 9 -9 -23z"/>
<path d="M3089 3736 c17 -20 52 -18 59 4 5 13 3 13 -12 1 -15 -13 -21 -13 -39
-1 -20 12 -21 12 -8 -4z"/>
<path d="M3499 3736 c17 -20 52 -18 59 4 5 13 3 13 -12 1 -15 -13 -21 -13 -39
-1 -20 12 -21 12 -8 -4z"/>
<path d="M4065 3740 c-4 -7 -18 -10 -31 -7 -13 2 -21 0 -18 -4 3 -5 13 -9 22
-9 22 0 48 17 40 25 -3 4 -9 1 -13 -5z"/>
<path d="M2290 3728 c0 -4 6 -8 14 -8 8 0 17 4 20 8 2 4 -4 8 -15 8 -10 0 -19
-4 -19 -8z"/>
<path d="M3010 3728 c0 -4 6 -8 14 -8 8 0 17 4 20 8 2 4 -4 8 -15 8 -10 0 -19
-4 -19 -8z"/>
<path d="M1973 3723 c9 -2 25 -2 35 0 9 3 1 5 -18 5 -19 0 -27 -2 -17 -5z"/>
<path d="M1394 3473 c-14 -16 -32 -35 -40 -44 -11 -12 -14 -34 -12 -75 l3 -59
85 0 85 0 3 62 c3 54 0 63 -18 73 -11 6 -20 17 -20 25 0 14 -37 45 -53 45 -4
0 -19 -12 -33 -27z m74 -20 c3 -21 -1 -23 -37 -23 -33 0 -41 4 -41 18 0 27 10
33 45 30 22 -2 31 -9 33 -25z m-68 -93 c0 -5 -4 -10 -10 -10 -5 0 -10 5 -10
10 0 6 5 10 10 10 6 0 10 -4 10 -10z m40 0 c0 -5 -4 -10 -10 -10 -5 0 -10 5
-10 10 0 6 5 10 10 10 6 0 10 -4 10 -10z m40 0 c0 -5 -4 -10 -10 -10 -5 0 -10
5 -10 10 0 6 5 10 10 10 6 0 10 -4 10 -10z"/>
<path d="M3929 3451 c-16 -16 -29 -35 -29 -41 0 -6 13 -25 29 -41 25 -25 37
-29 81 -29 44 0 56 4 81 29 16 16 29 35 29 41 0 6 -13 25 -29 41 -25 25 -37
29 -81 29 -44 0 -56 -4 -81 -29z m123 2 c22 -20 23 -61 1 -85 -34 -38 -103
-11 -103 40 0 54 62 81 102 45z"/>
<path d="M4005 3440 c3 -5 -4 -15 -15 -23 -18 -12 -18 -16 -6 -26 23 -20 51
-9 54 20 2 20 -2 28 -17 32 -12 3 -19 1 -16 -3z"/>
<path d="M1533 2930 c0 -36 2 -50 4 -32 2 17 2 47 0 65 -2 17 -4 3 -4 -33z"/>
<path d="M1669 2975 c-2 -11 -2 -40 2 -65 l6 -45 1 43 c1 26 7 42 15 42 8 0 9
3 1 8 -6 4 -13 14 -16 22 -3 11 -6 9 -9 -5z"/>
<path d="M1940 2971 c0 -14 -5 -18 -20 -14 -26 7 -50 -13 -50 -42 0 -29 20
-46 54 -43 25 2 26 5 26 60 0 32 -2 58 -5 58 -3 0 -5 -9 -5 -19z m-5 -56 c0
-25 -4 -30 -25 -30 -16 0 -26 6 -28 18 -6 30 6 49 30 45 18 -2 23 -9 23 -33z"/>
<path d="M3459 2975 c-2 -11 -2 -40 2 -65 l6 -45 1 43 c1 26 7 42 15 42 8 0 9
3 1 8 -6 4 -13 14 -16 22 -3 11 -6 9 -9 -5z"/>
<path d="M1562 2910 c1 -35 2 -38 5 -13 8 66 62 71 65 6 l1 -38 4 33 c5 42
-11 62 -48 59 -28 -2 -29 -4 -27 -47z"/>
<path d="M1725 2949 c-11 -17 1 -21 15 -4 8 9 8 15 2 15 -6 0 -14 -5 -17 -11z"/>
<path d="M1769 2939 c-25 -47 29 -92 62 -52 13 15 12 15 -8 2 -20 -12 -25 -11
-39 3 -19 19 -13 45 12 55 11 4 22 -1 30 -12 8 -10 14 -14 14 -9 0 35 -54 45
-71 13z"/>
<path d="M1981 2923 c-1 -34 3 -43 19 -48 31 -10 50 12 49 54 l-2 36 -6 -40
c-5 -31 -10 -40 -26 -40 -16 0 -21 9 -26 40 l-6 40 -2 -42z"/>
<path d="M2070 2956 c0 -8 51 -13 56 -5 3 5 -9 9 -25 9 -17 0 -31 -2 -31 -4z"/>
<path d="M2156 2944 c-9 -8 -16 -22 -16 -29 0 -15 27 -45 40 -45 17 0 40 12
40 21 0 5 -9 4 -19 -3 -15 -9 -23 -9 -35 1 -9 8 -16 19 -16 26 0 7 7 18 16 26
12 10 20 10 35 1 10 -7 19 -8 19 -3 0 9 -23 21 -40 21 -5 0 -16 -7 -24 -16z"/>
<path d="M2262 2948 c-7 -7 -12 -16 -12 -22 0 -5 6 -2 13 8 21 28 52 17 52
-19 0 -36 -31 -47 -52 -19 -7 10 -13 13 -13 7 0 -18 26 -33 54 -31 23 2 26 6
26 43 0 37 -2 41 -28 43 -15 1 -33 -3 -40 -10z"/>
<path d="M2403 2944 c-4 -10 1 -22 10 -29 22 -16 22 -32 0 -38 -17 -4 -17 -5
0 -6 25 -1 33 26 13 48 -20 22 -21 35 0 27 8 -3 12 -2 9 4 -9 15 -25 12 -32
-6z"/>
<path d="M2461 2929 c-1 -40 17 -63 45 -57 10 2 19 10 21 18 4 12 3 12 -5 2
-18 -27 -47 -9 -53 33 l-6 40 -2 -36z"/>
<path d="M2532 2940 c0 -14 2 -19 5 -12 2 6 2 18 0 25 -3 6 -5 1 -5 -13z"/>
<path d="M2602 2910 c1 -35 2 -38 5 -13 8 66 62 71 65 6 l1 -38 4 33 c5 42
-11 62 -48 59 -28 -2 -29 -4 -27 -47z"/>
<path d="M2701 2929 c-1 -40 17 -63 45 -57 10 2 19 10 21 18 4 12 3 12 -5 2
-18 -27 -47 -9 -53 33 l-6 40 -2 -36z"/>
<path d="M2772 2940 c0 -14 2 -19 5 -12 2 6 2 18 0 25 -3 6 -5 1 -5 -13z"/>
<path d="M2812 2948 c-27 -27 -7 -78 29 -78 10 0 20 4 23 8 2 4 -7 8 -21 7
-14 0 -28 6 -30 13 -3 8 7 12 31 12 20 0 36 4 36 8 0 4 -16 6 -36 4 -28 -3
-35 -1 -32 9 3 8 17 14 31 14 14 -1 23 3 21 7 -8 12 -38 10 -52 -4z"/>
<path d="M2965 2949 c-4 -6 -5 -12 -2 -15 2 -3 7 2 10 11 7 17 1 20 -8 4z"/>
<path d="M3006 2951 c-4 -5 3 -7 14 -4 11 3 27 0 35 -7 9 -7 15 -8 15 -2 0 19
-54 30 -64 13z"/>
<path d="M3159 2943 c-13 -15 -12 -15 9 -2 19 12 25 12 45 0 20 -13 21 -13 8
2 -7 10 -21 17 -31 17 -10 0 -24 -7 -31 -17z"/>
<path d="M3262 2948 c-27 -27 -7 -78 29 -78 10 0 20 4 23 8 2 4 -8 8 -22 7
-23 0 -27 4 -27 30 0 26 4 30 27 30 14 -1 24 3 22 7 -8 12 -38 10 -52 -4z"/>
<path d="M3352 2910 c1 -35 2 -38 5 -13 8 66 62 71 65 6 l1 -38 4 33 c5 42
-11 62 -48 59 -28 -2 -29 -4 -27 -47z"/>
<path d="M3515 2949 c-11 -17 1 -21 15 -4 8 9 8 15 2 15 -6 0 -14 -5 -17 -11z"/>
<path d="M3565 2944 c-31 -32 -11 -68 39 -69 36 -2 36 -1 36 39 0 38 -2 41
-30 43 -16 1 -36 -5 -45 -13z m59 -16 c8 -14 7 -21 -6 -34 -30 -30 -75 9 -48
42 16 18 39 15 54 -8z"/>
<path d="M3667 2953 c-13 -12 -7 -28 16 -42 21 -13 22 -13 5 6 -10 11 -18 22
-18 26 0 3 8 8 18 10 14 4 14 5 1 6 -9 0 -19 -2 -22 -6z"/>
<path d="M3730 2941 c-17 -32 -12 -37 30 -33 40 4 50 18 28 40 -18 18 -46 14
-58 -7z m58 -8 c2 -9 -7 -13 -28 -13 -28 0 -31 2 -20 15 15 18 41 16 48 -2z"/>
<path d="M3831 2911 l2 -46 6 40 c5 31 11 41 28 43 19 3 22 -2 26 -40 l4 -43
-1 45 c-1 44 -2 45 -33 46 -33 1 -33 1 -32 -45z"/>
<path d="M3942 2948 c-7 -7 -12 -16 -12 -22 0 -5 6 -2 13 8 21 28 52 17 52
-19 0 -36 -31 -47 -52 -19 -7 10 -13 13 -13 7 0 -18 26 -33 54 -31 23 2 26 6
26 43 0 37 -2 41 -28 43 -15 1 -33 -3 -40 -10z"/>
<path d="M4040 2950 c0 -5 5 -10 10 -10 6 0 10 5 10 10 0 6 -4 10 -10 10 -5 0
-10 -4 -10 -10z"/>
<path d="M2991 2914 c0 -11 3 -14 6 -6 3 7 2 16 -1 19 -3 4 -6 -2 -5 -13z"/>
<path d="M3321 2914 c0 -11 3 -14 6 -6 3 7 2 16 -1 19 -3 4 -6 -2 -5 -13z"/>
<path d="M3150 2905 c-1 -33 50 -46 71 -17 11 14 11 15 -1 5 -20 -18 -47 -16
-59 5 -6 9 -11 12 -11 7z"/>
<path d="M2935 2889 c-4 -6 -5 -12 -2 -15 2 -3 7 2 10 11 7 17 1 20 -8 4z"/>
<path d="M3055 2890 c-4 -7 -18 -10 -31 -7 -13 2 -21 0 -18 -4 3 -5 13 -9 22
-9 22 0 48 17 40 25 -3 4 -9 1 -13 -5z"/>
<path d="M3784 2889 c-3 -6 -17 -9 -30 -6 -13 2 -21 0 -18 -4 8 -14 40 -10 54
6 7 8 10 15 7 15 -3 0 -9 -5 -13 -11z"/>
<path d="M3660 2878 c0 -4 6 -8 14 -8 8 0 17 4 20 8 2 4 -4 8 -15 8 -10 0 -19
-4 -19 -8z"/>
<path d="M4040 2880 c0 -5 5 -10 10 -10 6 0 10 5 10 10 0 6 -4 10 -10 10 -5 0
-10 -4 -10 -10z"/>
<path d="M2083 2873 c9 -2 25 -2 35 0 9 3 1 5 -18 5 -19 0 -27 -2 -17 -5z"/>
<path d="M1394 2623 c-14 -16 -32 -35 -40 -44 -11 -12 -14 -34 -12 -75 l3 -59
85 0 85 0 3 62 c3 54 0 63 -18 73 -11 6 -20 17 -20 25 0 14 -37 45 -53 45 -4
0 -19 -12 -33 -27z m74 -20 c3 -21 -1 -23 -37 -23 -33 0 -41 4 -41 18 0 27 10
33 45 30 22 -2 31 -9 33 -25z m-68 -93 c0 -5 -4 -10 -10 -10 -5 0 -10 5 -10
10 0 6 5 10 10 10 6 0 10 -4 10 -10z m40 0 c0 -5 -4 -10 -10 -10 -5 0 -10 5
-10 10 0 6 5 10 10 10 6 0 10 -4 10 -10z m40 0 c0 -5 -4 -10 -10 -10 -5 0 -10
5 -10 10 0 6 5 10 10 10 6 0 10 -4 10 -10z"/>
<path d="M3929 2601 c-16 -16 -29 -35 -29 -41 0 -6 13 -25 29 -41 25 -25 37
-29 81 -29 44 0 56 4 81 29 16 16 29 35 29 41 0 6 -13 25 -29 41 -25 25 -37
29 -81 29 -44 0 -56 -4 -81 -29z m123 2 c22 -20 23 -61 1 -85 -34 -38 -103
-11 -103 40 0 54 62 81 102 45z"/>
<path d="M4005 2590 c3 -5 -4 -15 -15 -23 -18 -12 -18 -16 -6 -26 23 -20 51
-9 54 20 2 20 -2 28 -17 32 -12 3 -19 1 -16 -3z"/>
<path d="M1947 2122 c-45 -50 5 -120 67 -96 9 3 16 11 16 17 0 7 -4 7 -12 -1
-7 -7 -21 -12 -33 -12 -28 0 -45 19 -45 50 0 31 17 50 45 50 12 0 26 -5 33
-12 8 -8 12 -8 12 -1 0 27 -60 30 -83 5z"/>
<path d="M2268 2123 c-2 -10 -1 -38 3 -63 l6 -45 3 45 c1 25 2 49 1 54 -1 5 4
13 11 17 10 7 9 9 -3 9 -9 0 -18 -8 -21 -17z"/>
<path d="M3061 2128 c-1 -10 -7 -18 -13 -18 -10 0 -10 -2 -1 -8 6 -4 13 -25
15 -47 l3 -40 5 48 c3 26 2 55 -2 65 -6 16 -7 16 -7 0z"/>
<path d="M3450 2130 c8 -5 20 -10 25 -10 6 0 3 5 -5 10 -8 5 -19 10 -25 10 -5
0 -3 -5 5 -10z"/>
<path d="M2072 2098 c-27 -27 -7 -78 29 -78 10 0 20 4 23 8 2 4 -8 8 -22 7
-23 0 -27 4 -27 30 0 26 4 30 27 30 14 -1 24 3 22 7 -8 12 -38 10 -52 -4z"/>
<path d="M2162 2060 c1 -35 2 -38 5 -13 8 66 62 71 65 6 l1 -38 4 33 c5 42
-11 62 -48 59 -28 -2 -29 -4 -27 -47z"/>
<path d="M2313 2065 c0 -27 2 -38 4 -22 2 15 2 37 0 50 -2 12 -4 0 -4 -28z"/>
<path d="M2342 2060 c1 -40 2 -41 5 -10 2 19 11 40 20 47 13 10 13 12 -6 10
-18 -1 -21 -7 -19 -47z"/>
<path d="M2391 2060 l2 -45 6 40 c5 31 10 40 26 40 16 0 21 -8 24 -40 l5 -40
5 40 c5 34 10 40 29 39 16 0 20 2 12 10 -7 7 -16 7 -30 -2 -12 -7 -21 -8 -25
-2 -3 5 -17 9 -30 8 -23 -2 -25 -6 -24 -48z"/>
<path d="M2556 2101 c-4 -5 3 -7 14 -4 11 3 27 0 35 -7 9 -7 15 -8 15 -2 0 19
-54 30 -64 13z"/>
<path d="M2652 2060 c1 -40 2 -41 5 -10 2 19 11 40 20 47 13 10 13 12 -6 10
-18 -1 -21 -7 -19 -47z"/>
<path d="M2756 2094 c-9 -8 -16 -22 -16 -29 0 -15 27 -45 40 -45 17 0 40 12
40 21 0 5 -9 4 -19 -3 -15 -9 -23 -9 -35 1 -9 8 -16 19 -16 26 0 7 7 18 16 26
12 10 20 10 35 1 10 -7 19 -8 19 -3 0 9 -23 21 -40 21 -5 0 -16 -7 -24 -16z"/>
<path d="M2862 2098 c-7 -7 -12 -16 -12 -22 0 -5 6 -1 14 9 8 11 19 16 30 12
25 -10 31 -36 12 -55 -14 -14 -19 -15 -39 -3 -20 13 -21 13 -8 -2 19 -24 50
-21 62 7 21 45 -26 87 -59 54z"/>
<path d="M2951 2060 l2 -45 6 40 c5 35 9 40 33 40 14 -1 24 3 22 7 -3 5 -19 7
-35 6 -28 -2 -29 -4 -28 -48z"/>
<path d="M3102 2060 c1 -40 2 -41 5 -10 2 19 11 40 20 47 13 10 13 12 -6 10
-18 -1 -21 -7 -19 -47z"/>
<path d="M3166 2101 c-4 -5 3 -7 14 -4 11 3 27 0 35 -7 9 -7 15 -8 15 -2 0 19
-54 30 -64 13z"/>
<path d="M3263 2094 c-4 -10 1 -22 10 -29 22 -16 22 -32 0 -38 -17 -4 -17 -5
0 -6 25 -1 33 26 13 48 -20 22 -21 35 0 27 8 -3 12 -2 9 4 -9 15 -25 12 -32
-6z"/>
<path d="M3330 2091 c-17 -32 -12 -37 30 -33 40 4 50 18 28 40 -18 18 -46 14
-58 -7z m58 -8 c2 -9 -7 -13 -28 -13 -28 0 -31 2 -20 15 15 18 41 16 48 -2z"/>
<path d="M3443 2103 c-7 -2 -13 -12 -13 -21 0 -13 2 -13 14 3 21 29 46 12 48
-32 l1 -38 4 33 c6 48 -16 71 -54 55z"/>
<path d="M3535 2094 c-31 -32 -11 -68 39 -69 36 -2 36 -1 36 39 0 38 -2 41
-30 43 -16 1 -36 -5 -45 -13z m59 -16 c8 -14 7 -21 -6 -34 -30 -30 -75 9 -48
42 16 18 39 15 54 -8z"/>
<path d="M2131 2064 c0 -11 3 -14 6 -6 3 7 2 16 -1 19 -3 4 -6 -2 -5 -13z"/>
<path d="M2541 2064 c0 -11 3 -14 6 -6 3 7 2 16 -1 19 -3 4 -6 -2 -5 -13z"/>
<path d="M3151 2064 c0 -11 3 -14 6 -6 3 7 2 16 -1 19 -3 4 -6 -2 -5 -13z"/>
<path d="M2512 2045 c0 -16 2 -22 5 -12 2 9 2 23 0 30 -3 6 -5 -1 -5 -18z"/>
<path d="M3022 2045 c0 -16 2 -22 5 -12 2 9 2 23 0 30 -3 6 -5 -1 -5 -18z"/>
<path d="M2605 2040 c-4 -7 -18 -10 -31 -7 -13 2 -21 0 -18 -4 3 -5 13 -9 22
-9 22 0 48 17 40 25 -3 4 -9 1 -13 -5z"/>
<path d="M3215 2040 c-4 -7 -18 -10 -31 -7 -13 2 -21 0 -18 -4 3 -5 13 -9 22
-9 22 0 48 17 40 25 -3 4 -9 1 -13 -5z"/>
<path d="M3384 2039 c-3 -6 -17 -9 -30 -6 -13 2 -21 0 -18 -4 8 -14 40 -10 54
6 7 8 10 15 7 15 -3 0 -9 -5 -13 -11z"/>
<path d="M1394 1773 c-14 -16 -32 -35 -40 -44 -11 -12 -14 -34 -12 -75 l3 -59
85 0 85 0 3 62 c3 54 0 63 -18 73 -11 6 -20 17 -20 25 0 14 -37 45 -53 45 -4
0 -19 -12 -33 -27z m74 -20 c3 -21 -1 -23 -37 -23 -33 0 -41 4 -41 18 0 27 10
33 45 30 22 -2 31 -9 33 -25z m-68 -93 c0 -5 -4 -10 -10 -10 -5 0 -10 5 -10
10 0 6 5 10 10 10 6 0 10 -4 10 -10z m40 0 c0 -5 -4 -10 -10 -10 -5 0 -10 5
-10 10 0 6 5 10 10 10 6 0 10 -4 10 -10z m40 0 c0 -5 -4 -10 -10 -10 -5 0 -10
5 -10 10 0 6 5 10 10 10 6 0 10 -4 10 -10z"/>
<path d="M3929 1751 c-16 -16 -29 -35 -29 -41 0 -6 13 -25 29 -41 25 -25 37
-29 81 -29 44 0 56 4 81 29 16 16 29 35 29 41 0 6 -13 25 -29 41 -25 25 -37
29 -81 29 -44 0 -56 -4 -81 -29z m123 2 c22 -20 23 -61 1 -85 -34 -38 -103
-11 -103 40 0 54 62 81 102 45z"/>
<path d="M4005 1740 c3 -5 -4 -15 -15 -23 -18 -12 -18 -16 -6 -26 23 -20 51
-9 54 20 2 20 -2 28 -17 32 -12 3 -19 1 -16 -3z"/>
</g>
</svg>
